<?xml version="1.0" encoding="UTF-8" standalone="no"?>
<svg width="19px" height="19px" viewBox="0 0 19 19" version="1.1" xmlns="http://www.w3.org/2000/svg" xmlns:xlink="http://www.w3.org/1999/xlink" xmlns:sketch="http://www.bohemiancoding.com/sketch/ns">
    <!-- Generator: Sketch 3.3.2 (12043) - http://www.bohemiancoding.com/sketch -->
    <title>Blue_1_</title>
    <desc>Created with Sketch.</desc>
    <defs></defs>
    <g id="Page-1" stroke="none" stroke-width="1" fill="none" fill-rule="evenodd" sketch:type="MSPage">
        <g id="Blue_1_" sketch:type="MSLayerGroup" fill-opacity="0.78" fill="#000000">
            <path d="M17.9056293,18.9491622 C18.4817915,18.9491622 18.9490154,18.4819382 18.9490154,17.9056293 L18.9490154,1.08659459 C18.9490154,0.510285714 18.4818649,0.0431351351 17.9056293,0.0431351351 L1.08659459,0.0431351351 C0.510285714,0.0431351351 0.0431351351,0.510212355 0.0431351351,1.08659459 L0.0431351351,17.9057027 C0.0431351351,18.4818649 0.510138996,18.9492355 1.08659459,18.9492355 L17.9056293,18.9492355 L17.9056293,18.9491622 Z M13.0879189,18.9491622 L13.0879189,11.6277066 L15.5453745,11.6277066 L15.9133436,8.77433205 L13.0879189,8.77433205 L13.0879189,6.9527529 C13.0879189,6.12665637 13.3173127,5.56369884 14.5018417,5.56369884 L16.0127452,5.56303861 L16.0127452,3.01102317 C15.7514402,2.97617761 14.8546255,2.89856371 13.8110927,2.89856371 C11.6327683,2.89856371 10.1413784,4.22827027 10.1413784,6.67017375 L10.1413784,8.77440541 L7.6776139,8.77440541 L7.6776139,11.6277799 L10.1413784,11.6277799 L10.1413784,18.9492355 L13.0879189,18.9492355 L13.0879189,18.9491622 Z" sketch:type="MSShapeGroup"></path>
        </g>
    </g>
</svg>