<?xml version="1.0" encoding="UTF-8" standalone="no"?>
<svg width="19px" height="19px" viewBox="0 0 19 19" version="1.1" xmlns="http://www.w3.org/2000/svg" xmlns:xlink="http://www.w3.org/1999/xlink" xmlns:sketch="http://www.bohemiancoding.com/sketch/ns">
    <!-- Generator: Sketch 3.3.2 (12043) - http://www.bohemiancoding.com/sketch -->
    <title>Shape</title>
    <desc>Created with Sketch.</desc>
    <defs></defs>
    <g id="Page-1" stroke="none" stroke-width="1" fill="none" fill-rule="evenodd" sketch:type="MSPage">
        <g id="Shape" sketch:type="MSLayerGroup" fill-opacity="0.783259737" fill="#000000">
            <path d="M2.45233594,0.0185546875 L16.5471816,0.0185546875 C17.8860508,0.0185546875 18.9814453,1.1134668 18.9814453,2.45233594 L18.9814453,16.5471816 C18.9814453,17.8860508 17.8860508,18.9814453 16.5471816,18.9814453 L2.45233594,18.9814453 C1.1134668,18.9814453 0.0185546875,17.8860508 0.0185546875,16.5471816 L0.0185546875,2.45233594 C0.0185546875,1.1134668 1.1134668,0.0185546875 2.45233594,0.0185546875 L2.45233594,0.0185546875 L2.45233594,0.0185546875 Z M13.8319258,2.12503125 C13.3624922,2.12503125 12.9782246,2.50929883 12.9782246,2.97873242 L12.9782246,5.02223438 C12.9782246,5.49166797 13.3624551,5.87593555 13.8319258,5.87593555 L15.9754375,5.87593555 C16.4448711,5.87593555 16.8291387,5.49170508 16.8291387,5.02223438 L16.8291387,2.97873242 C16.8291387,2.50929883 16.4449082,2.12503125 15.9754375,2.12503125 L13.8319258,2.12503125 L13.8319258,2.12503125 Z M16.8379336,8.03751953 L15.1689395,8.03751953 C15.3268027,8.55322852 15.4120059,9.09907031 15.4120059,9.66483984 C15.4120059,12.8189883 12.7731211,15.3758984 9.51758984,15.3758984 C6.26250391,15.3758984 3.62361914,12.8189883 3.62361914,9.66483984 C3.62361914,9.09910742 3.70878516,8.55326562 3.86668555,8.03751953 L2.12547656,8.03751953 L2.12547656,16.0476895 C2.12547656,16.462498 2.46435937,16.8018262 2.87920508,16.8018262 L16.0842422,16.8018262 C16.4986055,16.8018262 16.8379707,16.4624609 16.8379707,16.0476895 L16.8379707,8.03751953 L16.8379336,8.03751953 L16.8379336,8.03751953 Z M9.51762695,5.76854102 C7.41437891,5.76854102 5.70927734,7.42083594 5.70927734,9.45880859 C5.70927734,11.4967812 7.41437891,13.1490762 9.51762695,13.1490762 C11.6212832,13.1490762 13.3263848,11.4967812 13.3263848,9.45880859 C13.3263848,7.42083594 11.6212832,5.76854102 9.51762695,5.76854102 L9.51762695,5.76854102 L9.51762695,5.76854102 Z" sketch:type="MSShapeGroup"></path>
        </g>
    </g>
</svg>