<?xml version="1.0" encoding="UTF-8" standalone="no"?>
<svg width="23px" height="23px" viewBox="0 0 23 23" version="1.1" xmlns="http://www.w3.org/2000/svg" xmlns:xlink="http://www.w3.org/1999/xlink" xmlns:sketch="http://www.bohemiancoding.com/sketch/ns">
    <!-- Generator: Sketch 3.3.2 (12043) - http://www.bohemiancoding.com/sketch -->
    <title>facebook-grey copy</title>
    <desc>Created with Sketch.</desc>
    <defs></defs>
    <g id="Welcome" stroke="none" stroke-width="1" fill="none" fill-rule="evenodd" sketch:type="MSPage">
        <g id="Home---After-a-few-seconds" sketch:type="MSArtboardGroup" transform="translate(-131.000000, -822.000000)">
            <g id="facebook-grey-copy-+-layer1-copy-+-Share-this" sketch:type="MSLayerGroup" transform="translate(53.000000, 822.000000)">
                <g id="facebook-grey-copy" transform="translate(78.000000, 0.000000)" sketch:type="MSShapeGroup">
                    <path d="M21.6752355,22.9384595 C22.372695,22.9384595 22.9382819,22.3728726 22.9382819,21.6752355 L22.9382819,1.31535135 C22.9382819,0.617714286 22.3727838,0.0522162162 21.6752355,0.0522162162 L1.31535135,0.0522162162 C0.617714286,0.0522162162 0.0522162162,0.617625483 0.0522162162,1.31535135 L0.0522162162,21.6753243 C0.0522162162,22.3727838 0.61753668,22.9385483 1.31535135,22.9385483 L21.6752355,22.9385483 L21.6752355,22.9384595 Z" id="Blue_1_" fill="#4891C2"></path>
                    <path d="M15.8432703,22.9384595 L15.8432703,14.0756448 L18.8180849,14.0756448 L19.2635212,10.6215598 L15.8432703,10.6215598 L15.8432703,8.41649035 C15.8432703,7.41647876 16.1209575,6.73500386 17.554861,6.73500386 L19.3838494,6.73420463 L19.3838494,3.64492278 C19.0675328,3.60274131 17.9819151,3.50878764 16.7186911,3.50878764 C14.0817722,3.50878764 12.2764054,5.11843243 12.2764054,8.07442085 L12.2764054,10.6216486 L9.29395367,10.6216486 L9.29395367,14.0757336 L12.2764054,14.0757336 L12.2764054,22.9385483 L15.8432703,22.9385483 L15.8432703,22.9384595 Z" id="f" fill="#F9F9F9"></path>
                </g>
            </g>
        </g>
    </g>
</svg>