<?xml version="1.0" encoding="UTF-8" standalone="no"?>
<svg width="24px" height="19px" viewBox="0 0 24 19" version="1.1" xmlns="http://www.w3.org/2000/svg" xmlns:xlink="http://www.w3.org/1999/xlink" xmlns:sketch="http://www.bohemiancoding.com/sketch/ns">
    <!-- Generator: Sketch 3.3.2 (12043) - http://www.bohemiancoding.com/sketch -->
    <title>path5</title>
    <desc>Created with Sketch.</desc>
    <defs></defs>
    <g id="Page-1" stroke="none" stroke-width="1" fill="none" fill-rule="evenodd" sketch:type="MSPage">
        <g id="path5" sketch:type="MSLayerGroup" fill-opacity="0.78" fill="#000000">
            <path d="M23.2454182,2.3579753 C22.3951345,2.73514551 21.4812479,2.98982636 20.5222196,3.10450012 C21.5011912,2.5177909 22.2531061,1.58867743 22.6069643,0.481422106 C21.690787,1.02474125 20.6761061,1.41929445 19.5959359,1.63193274 C18.7312338,0.710365369 17.4989288,0.134705794 16.1351061,0.134705794 C13.5166096,0.134705794 11.3935955,2.25758523 11.3935955,4.87608168 C11.3935955,5.24772707 11.4355033,5.60953558 11.5163543,5.95665615 C7.57580823,5.7589753 4.08209901,3.87123771 1.74361674,1.00264196 C1.33545362,1.70281218 1.10152454,2.51725189 1.10152454,3.38613133 C1.10152454,5.03118097 1.93860255,6.48245757 3.21079404,7.3326065 C2.43354582,7.30794693 1.70251745,7.09463487 1.06312028,6.7396987 C1.06258128,6.75937246 1.06258128,6.77931572 1.06258128,6.79925899 C1.06258128,9.09650721 2.69698553,11.0128122 4.86608482,11.4485994 C4.46829759,11.5569398 4.04935433,11.6147483 3.61693589,11.6147483 C3.31131887,11.6147483 3.01432596,11.5849682 2.72487915,11.52972 C3.32829759,13.413415 5.07926213,14.78411 7.15416993,14.8223796 C5.53135433,16.0941668 3.48703518,16.8521455 1.26551745,16.8521455 C0.882822411,16.8521455 0.505382695,16.829642 0.134411064,16.7858476 C2.23276567,18.1312093 4.72499972,18.9162732 7.4026522,18.9162732 C16.1239217,18.9162732 20.8930565,11.6915569 20.8930565,5.42573416 C20.8930565,5.22023771 20.8884749,5.01568452 20.8793118,4.81220934 C21.8059997,4.14384055 22.6096593,3.30891856 23.2454182,2.3579753 L23.2454182,2.3579753 L23.2454182,2.3579753 Z" sketch:type="MSShapeGroup"></path>
        </g>
    </g>
</svg>