<?xml version="1.0" encoding="UTF-8" standalone="no"?>
<svg width="28px" height="23px" viewBox="0 0 28 23" version="1.1" xmlns="http://www.w3.org/2000/svg" xmlns:xlink="http://www.w3.org/1999/xlink" xmlns:sketch="http://www.bohemiancoding.com/sketch/ns">
    <!-- Generator: Sketch 3.3.2 (12043) - http://www.bohemiancoding.com/sketch -->
    <title>layer1 copy</title>
    <desc>Created with Sketch.</desc>
    <defs></defs>
    <g id="Welcome" stroke="none" stroke-width="1" fill="none" fill-rule="evenodd" sketch:type="MSPage">
        <g id="Home---After-a-few-seconds" sketch:type="MSArtboardGroup" transform="translate(-167.000000, -822.000000)" fill="#4891C2">
            <g id="facebook-grey-copy-+-layer1-copy-+-Share-this" sketch:type="MSLayerGroup" transform="translate(53.000000, 822.000000)">
                <g id="layer1-copy" transform="translate(114.105263, 0.000000)" sketch:type="MSShapeGroup">
                    <path d="M27.5682932,2.74140426 C26.5558974,3.19797872 25.4677724,3.5062766 24.325899,3.6450922 C25.491518,2.93486525 26.3867904,1.81014894 26.8081139,0.469787234 C25.7172614,1.12748936 24.509125,1.60510638 23.2230132,1.86251064 C22.1934499,0.746929078 20.7261979,0.0500780142 19.1023535,0.0500780142 C15.9846235,0.0500780142 13.4568427,2.61987943 13.4568427,5.7896383 C13.4568427,6.23952482 13.5067405,6.67750355 13.6030064,7.09770213 C8.91116929,6.85840426 4.75136147,4.57324823 1.9670322,1.10073759 C1.4810501,1.94831206 1.20252091,2.93421277 1.20252091,3.98601418 C1.20252091,5.97739007 2.19919334,7.73419858 3.71393649,8.76332624 C2.78850079,8.73347518 1.91809706,8.47525532 1.15679463,8.04559574 C1.15615286,8.06941135 1.15615286,8.09355319 1.15615286,8.11769504 C1.15615286,10.8985745 3.10216702,13.2183121 5.68481933,13.745844 C5.21119135,13.8769929 4.7123738,13.9469716 4.19751195,13.9469716 C3.83362703,13.9469716 3.48001048,13.910922 3.13537873,13.8440426 C3.85384286,16.124305 5.93864029,17.7835674 8.40914288,17.8298936 C6.47692683,19.3694255 4.04284481,20.2869787 1.39778014,20.2869787 C0.942121785,20.2869787 0.492720709,20.2597376 0.0510209005,20.2067234 C2.54944059,21.8353191 5.51683542,22.7856596 8.70499993,22.7856596 C19.0890367,22.7856596 24.7674383,14.0399504 24.7674383,6.45500709 C24.7674383,6.20624823 24.7619833,5.95863121 24.7510731,5.71231915 C25.8544402,4.90324113 26.8113228,3.8925461 27.5682932,2.74140426 L27.5682932,2.74140426 L27.5682932,2.74140426 Z" id="path5"></path>
                </g>
            </g>
        </g>
    </g>
</svg>