<?xml version="1.0" encoding="UTF-8" standalone="no"?>
<svg width="24px" height="19px" viewBox="0 0 24 19" version="1.1" xmlns="http://www.w3.org/2000/svg" xmlns:xlink="http://www.w3.org/1999/xlink" xmlns:sketch="http://www.bohemiancoding.com/sketch/ns">
    <!-- Generator: Sketch 3.3.2 (12043) - http://www.bohemiancoding.com/sketch -->
    <title>layer1</title>
    <desc>Created with Sketch.</desc>
    <defs></defs>
    <g id="Welcome" stroke="none" stroke-width="1" fill="none" fill-rule="evenodd" sketch:type="MSPage">
        <g id="Home---After-a-few-seconds" sketch:type="MSArtboardGroup" transform="translate(-973.000000, -2966.000000)" fill="#757575">
            <g id="Group" sketch:type="MSLayerGroup" transform="translate(0.000000, 2931.000000)">
                <g id="layer1" transform="translate(973.091560, 35.093337)" sketch:type="MSShapeGroup">
                    <path d="M23.1538582,2.2646383 C22.3035745,2.64180851 21.3896879,2.89648936 20.4306596,3.01116312 C21.4096312,2.4244539 22.1615461,1.49534043 22.5154043,0.388085106 C21.599227,0.931404255 20.5845461,1.32595745 19.5043759,1.53859574 C18.6396738,0.617028369 17.4073688,0.0413687943 16.0435461,0.0413687943 C13.4250496,0.0413687943 11.3020355,2.16424823 11.3020355,4.78274468 C11.3020355,5.15439007 11.3439433,5.51619858 11.4247943,5.86331915 C7.48424823,5.6656383 3.99053901,3.77790071 1.65205674,0.909304965 C1.24389362,1.60947518 1.00996454,2.42391489 1.00996454,3.29279433 C1.00996454,4.93784397 1.84704255,6.38912057 3.11923404,7.2392695 C2.34198582,7.21460993 1.61095745,7.00129787 0.971560284,6.6463617 C0.971021277,6.66603546 0.971021277,6.68597872 0.971021277,6.70592199 C0.971021277,9.00317021 2.60542553,10.9194752 4.77452482,11.3552624 C4.37673759,11.4636028 3.95779433,11.5214113 3.52537589,11.5214113 C3.21975887,11.5214113 2.92276596,11.4916312 2.63331915,11.436383 C3.23673759,13.320078 4.98770213,14.690773 7.06260993,14.7290426 C5.43979433,16.0008298 3.39547518,16.7588085 1.17395745,16.7588085 C0.791262411,16.7588085 0.413822695,16.736305 0.0428510638,16.6925106 C2.14120567,18.0378723 4.63343972,18.8229362 7.3110922,18.8229362 C16.0323617,18.8229362 20.8014965,11.5982199 20.8014965,5.33239716 C20.8014965,5.12690071 20.7969149,4.92234752 20.7877518,4.71887234 C21.7144397,4.05050355 22.5180993,3.21558156 23.1538582,2.2646383 L23.1538582,2.2646383 L23.1538582,2.2646383 Z" id="path5"></path>
                </g>
            </g>
        </g>
    </g>
</svg>