<?xml version="1.0" encoding="UTF-8" standalone="no"?>
<svg width="46px" height="28px" viewBox="0 0 46 28" version="1.1" xmlns="http://www.w3.org/2000/svg" xmlns:xlink="http://www.w3.org/1999/xlink" xmlns:sketch="http://www.bohemiancoding.com/sketch/ns">
    <!-- Generator: Sketch 3.3.2 (12043) - http://www.bohemiancoding.com/sketch -->
    <title>blueonwhite1 copy</title>
    <desc>Created with Sketch.</desc>
    <defs></defs>
    <g id="Welcome" stroke="none" stroke-width="1" fill="none" fill-rule="evenodd" sketch:type="MSPage">
        <g id="Home---After-a-few-seconds" sketch:type="MSArtboardGroup" transform="translate(-16.000000, -378.000000)">
            <g id="blueonwhite1-copy" sketch:type="MSLayerGroup" transform="translate(18.000000, 379.973214)">
                <g id="Group-3" transform="translate(0.000000, 10.000000)" fill="#4891C2" sketch:type="MSShapeGroup">
                    <path d="M0,5.54711397 C0.654747758,5.58355042 1.29872758,5.73522321 1.95490471,5.75397584 C2.85712444,5.77943277 3.7601065,5.77700368 4.66223094,5.74678571 C12.2738285,5.49241071 19.3769507,2.85382878 26.7619451,1.33039653 C28.2167601,1.03025735 29.6889182,0.842342437 31.1687948,0.707381828 C32.9006222,0.549490546 34.7728139,0.536859244 36.474148,0.936008403 C37.8270964,1.25344275 39.1551738,1.9801313 39.865667,3.19623424 C40.3167769,3.96829832 40.4885874,4.88989758 40.4427522,5.78740021 C40.372713,7.15983981 39.7948655,8.49914653 38.8500504,9.47914128 C37.1945516,11.1961239 34.6734249,11.4065809 32.4367433,11.4403939 C29.6714798,11.4821744 26.9147926,11.2166255 24.1602971,11.0083062 C21.106491,10.7773477 17.9567265,10.5802022 14.8954877,10.0888445 C12.4165751,9.69095851 9.95938901,9.16092962 7.52335762,8.54801996 C4.83518498,7.87166229 2.32091928,7.12971901 0,5.54711397" id="Fill-1"></path>
                </g>
                <path d="M9.11203175,13.8463048 C8.88745866,13.4907246 16.470374,7.46848386 17.298887,6.8279948 C17.9917909,6.29240092 18.7175156,5.7979917 19.4556538,5.33103891 C21.1719264,4.24534951 22.9276968,3.23139489 24.72983,2.30889728 C26.7864417,1.25598159 28.9592898,0.593063317 31.2578725,0.350209197 C33.0773095,0.158014138 34.8559321,0.348469001 36.5948689,0.859023382 C38.1518338,1.31611505 39.3835062,2.22952497 39.9202998,3.89644007 C40.1641516,4.65342564 40.21832,5.44859887 40.2203889,6.23613456 C40.2242446,7.66193573 40.2440876,9.0903472 40.0835573,10.5113145 C40.0834633,10.5119912 40.0833692,10.512668 40.0831811,10.5144082 C40.0831811,10.5148916 40.0830871,10.5154716 40.0829931,10.5160517 C40.0124613,11.1354651 39.4418124,10.6621315 39.1422876,10.4773807 C37.8850357,9.70212303 36.4515484,9.51563195 35.0215407,9.34982987 C33.3533238,9.15647468 31.6670507,9.1702029 29.9964827,9.32488705 C26.5055373,9.64817693 23.185937,10.627811 19.7876233,11.4351656 C16.3292165,12.2568285 12.8343213,12.9308647 9.41080424,13.9017011 C9.29090027,13.9357316 9.19742219,13.9814601 9.11203175,13.8463048" id="Fill-4" fill="#46A446" sketch:type="MSShapeGroup"></path>
            </g>
        </g>
    </g>
</svg>