<?xml version="1.0" encoding="UTF-8" standalone="no"?>
<svg width="512px" height="512px" viewBox="0 0 512 512" version="1.1" xmlns="http://www.w3.org/2000/svg" xmlns:xlink="http://www.w3.org/1999/xlink" xmlns:sketch="http://www.bohemiancoding.com/sketch/ns">
    <!-- Generator: Sketch 3.3.2 (12043) - http://www.bohemiancoding.com/sketch -->
    <title>5151e0c8492e5103c096af88a50059a5</title>
    <desc>Created with Sketch.</desc>
    <defs></defs>
    <g id="Page-1" stroke="none" stroke-width="1" fill="none" fill-rule="evenodd" sketch:type="MSPage">
        <g id="5151e0c8492e5103c096af88a50059a5" sketch:type="MSLayerGroup" fill="#E6B10F">
            <path d="M66.084,0.5 L445.903,0.5 C481.982,0.5 511.5,30.005 511.5,66.084 L511.5,445.903 C511.5,481.982 481.982,511.5 445.903,511.5 L66.084,511.5 C30.005,511.5 0.5,481.982 0.5,445.903 L0.5,66.084 C0.5,30.005 30.005,0.5 66.084,0.5 L66.084,0.5 L66.084,0.5 Z M372.734,57.264 C360.084,57.264 349.729,67.619 349.729,80.269 L349.729,135.336 C349.729,147.986 360.083,158.341 372.734,158.341 L430.496,158.341 C443.146,158.341 453.501,147.987 453.501,135.336 L453.501,80.269 C453.501,67.619 443.147,57.264 430.496,57.264 L372.734,57.264 L372.734,57.264 L372.734,57.264 Z M453.738,216.59 L408.763,216.59 C413.017,230.487 415.313,245.196 415.313,260.442 C415.313,345.438 344.202,414.34 256.474,414.34 C168.758,414.34 97.647,345.438 97.647,260.442 C97.647,245.197 99.942,230.488 104.197,216.59 L57.276,216.59 L57.276,432.443 C57.276,443.621 66.408,452.765 77.587,452.765 L433.428,452.765 C444.594,452.765 453.739,443.62 453.739,432.443 L453.739,216.59 L453.738,216.59 L453.738,216.59 Z M256.475,155.447 C199.798,155.447 153.85,199.972 153.85,254.89 C153.85,309.808 199.798,354.333 256.475,354.333 C313.163,354.333 359.111,309.808 359.111,254.89 C359.111,199.972 313.163,155.447 256.475,155.447 L256.475,155.447 Z" id="Shape" sketch:type="MSShapeGroup"></path>
        </g>
    </g>
</svg>