<?xml version="1.0" encoding="UTF-8" standalone="no"?>
<svg width="28px" height="28px" viewBox="0 0 28 28" version="1.1" xmlns="http://www.w3.org/2000/svg" xmlns:xlink="http://www.w3.org/1999/xlink" xmlns:sketch="http://www.bohemiancoding.com/sketch/ns">
    <!-- Generator: Sketch 3.3.2 (12043) - http://www.bohemiancoding.com/sketch -->
    <title>facebook</title>
    <desc>Created with Sketch.</desc>
    <defs></defs>
    <g id="MyFig" stroke="none" stroke-width="1" fill="none" fill-rule="evenodd" sketch:type="MSPage">
        <g id="Home" sketch:type="MSArtboardGroup" transform="translate(-1199.000000, -1977.000000)">
            <g id="Footer" sketch:type="MSLayerGroup" transform="translate(0.000000, 1957.000000)">
                <g id="facebook" transform="translate(1199.000000, 20.000000)" sketch:type="MSShapeGroup">
                    <path d="M26.3872432,27.9250811 C27.2363243,27.9250811 27.9248649,27.2365405 27.9248649,26.3872432 L27.9248649,1.6012973 C27.9248649,0.751891892 27.2364324,0.0635675676 26.3872432,0.0635675676 L1.6012973,0.0635675676 C0.751891892,0.0635675676 0.0635675676,0.751891892 0.0635675676,1.6012973 L0.0635675676,26.3872432 C0.0635675676,27.2364324 0.751783784,27.9250811 1.6012973,27.9250811 L26.3872432,27.9250811 L26.3872432,27.9250811 Z" id="Blue_1_" fill="#E6B10F"></path>
                    <path d="M19.2874595,27.9250811 L19.2874595,17.1355676 L22.908973,17.1355676 L23.4512432,12.9307027 L19.2874595,12.9307027 L19.2874595,10.2461622 C19.2874595,9.02875676 19.6255135,8.19913514 21.3712432,8.19913514 L23.5978378,8.19816216 L23.5978378,4.4372973 C23.2127568,4.38605405 21.891027,4.27156757 20.3532973,4.27156757 C17.143027,4.27156757 14.9451892,6.23113514 14.9451892,9.82972973 L14.9451892,12.9307027 L11.3143784,12.9307027 L11.3143784,17.1355676 L14.9451892,17.1355676 L14.9451892,27.9250811 L19.2874595,27.9250811 L19.2874595,27.9250811 Z" id="f" fill="#3A3A3A"></path>
                </g>
            </g>
        </g>
    </g>
</svg>