<?xml version="1.0" encoding="UTF-8" standalone="no"?>
<svg width="35px" height="29px" viewBox="0 0 35 29" version="1.1" xmlns="http://www.w3.org/2000/svg" xmlns:xlink="http://www.w3.org/1999/xlink" xmlns:sketch="http://www.bohemiancoding.com/sketch/ns">
    <!-- Generator: Sketch 3.3.2 (12043) - http://www.bohemiancoding.com/sketch -->
    <title>path5</title>
    <desc>Created with Sketch.</desc>
    <defs></defs>
    <g id="MyFig" stroke="none" stroke-width="1" fill="none" fill-rule="evenodd" sketch:type="MSPage">
        <g id="Home" sketch:type="MSArtboardGroup" transform="translate(-1260.000000, -1977.000000)" fill="#E6B10F">
            <g id="Footer" sketch:type="MSLayerGroup" transform="translate(0.000000, 1957.000000)">
                <path d="M1294.75869,23.6422339 C1293.49208,24.2045246 1292.13062,24.5843812 1290.70203,24.755274 C1292.16023,23.8804818 1293.28034,22.4952552 1293.80761,20.8445599 C1292.44271,21.6547472 1290.93115,22.2428786 1289.32215,22.559858 C1288.03385,21.1859999 1286.19815,20.3277471 1284.16655,20.3277471 C1280.26585,20.3277471 1277.10312,23.4925292 1277.10312,27.396182 C1277.10312,27.9502039 1277.1656,28.4897556 1277.2861,29.0070846 C1271.41577,28.7123299 1266.21128,25.8981164 1262.72751,21.6214996 C1262.11951,22.6654589 1261.7711,23.879622 1261.7711,25.1750981 C1261.7711,27.6275413 1263.01808,29.7910877 1264.91334,31.0586539 C1263.75553,31.021961 1262.6664,30.703949 1261.71412,30.1745624 C1261.71331,30.2040192 1261.71331,30.2336488 1261.71331,30.2634531 C1261.71331,33.6881934 1264.14807,36.5449559 1267.37931,37.1947611 C1266.78663,37.3563506 1266.16263,37.4426578 1265.51847,37.4426578 C1265.06334,37.4426578 1264.62094,37.3982124 1264.18955,37.3158668 C1265.08847,40.1240495 1267.69691,42.1676956 1270.78786,42.224544 C1268.3705,44.1205546 1265.32499,45.2506504 1262.01559,45.2506504 C1261.44546,45.2506504 1260.88325,45.2170572 1260.33068,45.1517653 C1263.45658,47.1575131 1267.1693,48.3277471 1271.15814,48.3277471 C1284.15008,48.3277471 1291.25483,37.5568749 1291.25483,28.2156726 C1291.25483,27.9092039 1291.24794,27.6044568 1291.23434,27.3010898 C1292.61422,26.3046755 1293.81163,25.0598463 1294.75857,23.6422339 L1294.75869,23.6422339 Z" id="path5" sketch:type="MSShapeGroup"></path>
            </g>
        </g>
    </g>
</svg>