<?xml version="1.0" encoding="UTF-8" standalone="no"?>
<svg width="1071px" height="116px" viewBox="0 0 1071 116" version="1.1" xmlns="http://www.w3.org/2000/svg" xmlns:xlink="http://www.w3.org/1999/xlink" xmlns:sketch="http://www.bohemiancoding.com/sketch/ns">
    <!-- Generator: Sketch 3.3.2 (12043) - http://www.bohemiancoding.com/sketch -->
    <title>Imported Layers</title>
    <desc>Created with Sketch.</desc>
    <defs>
        <path id="path-1" d="M0,0 L1115,0 L1115,732.963547 L0,732.963547"></path>
    </defs>
    <g id="MyFig" stroke="none" stroke-width="1" fill="none" fill-rule="evenodd" sketch:type="MSPage">
        <g id="How-to-get-around" sketch:type="MSArtboardGroup" transform="translate(-31.000000, 0.000000)">
            <g id="Topbar" sketch:type="MSLayerGroup" transform="translate(0.000000, -1.000000)">
                <g id="Imported-Layers">
                    <g transform="translate(-13.000000, -402.000000)" id="Group-8">
                        <g>
                            <mask id="mask-2" sketch:name="Clip 2" fill="white">
                                <use xlink:href="#path-1"></use>
                            </mask>
                            <g id="Clip-2"></g>
                            <path d="M808.440484,811.410867 L1126.30575,228.822245" id="Stroke-1" stroke="#E6CC8A" stroke-width="8.146" sketch:type="MSShapeGroup" mask="url(#mask-2)"></path>
                            <path d="M1155.1931,490.944274 C1087.3126,482.042966 1035.4828,428.544807 977.178921,392.647407 C887.943524,337.704357 776.059468,320.907497 698.119198,250.846212 C667.263786,223.108197 643.201024,188.124477 610.366929,162.762741 C555.245222,120.191573 481.177365,109.58508 411.815516,115.738262 C342.455437,121.889674 275.445706,143.054851 207.428937,157.97831 C139.410397,172.899999 67.7389048,181.477269 0.725634921,162.548487 L-48.5007302,126.316424 M325.58531,827.942122 C356.830087,808.163404 377.965532,775.614397 392.718929,741.698409 C407.472325,707.780652 427.068008,675.984192 440.563048,641.544078 C467.466405,572.892269 501.118167,504.865517 508.44354,431.487711 C513.367238,382.168404 501.137635,332.937633 497.192659,283.529792 C489.766405,190.550336 511.714206,98.0117849 533.500952,7.31830299 C537.132667,-7.79107988 540.801548,-23.0155582 547.309254,-37.1262663 C562.726341,-70.5606232 592.493302,-94.7554676 621.269151,-117.714363 C669.614135,-156.28198 717.957349,-194.854908 766.300563,-233.422524" id="Stroke-3" stroke="#E6CC8A" stroke-width="13.033" sketch:type="MSShapeGroup" mask="url(#mask-2)"></path>
                            <path d="M762.052538,977.070377 L1029.7769,503.364573 L1258.63706,166.692028 M562.816057,960.35634 L796.049538,566.314332 C793.510365,547.430479 936.120969,336.820369 939.266751,327.772303 C942.414324,318.722447 1202.46927,-0.838619457 1202.46927,-0.838619457 M86.7453325,704.799507 L229.355936,704.799507 C229.355936,704.799507 799.80193,1011.14116 806.093496,1011.14116 M44.8946129,438.833997 L265.009929,445.853678 L1254.87751,970.301335 M51.7212118,205.417534 L330.022771,205.417534 C332.608469,204.601167 1268.14598,697.633024 1256.99617,704.799507 M38.068014,58.5413257 L330.024561,58.5413257 L1227.63553,595.691006 M108.320248,-48.4707595 L380.357083,-48.4707595 L1246.34381,479.757965 M504.092991,-82.6883455 C504.092991,-82.6883455 808.190684,73.2269772 814.482249,73.2269772 C820.773815,73.2269772 902.565954,85.8180034 902.565954,85.8180034 L1257.05343,360.686566 M38.068014,371.32798 C46.0273094,377.474005 339.27581,371.32798 339.27581,371.32798 L1259.41366,897.163103 M39.7733216,611.176912 C39.7733216,611.176912 339.27581,616.171788 339.27581,611.176912 C339.27581,606.182036 1070.34282,1011.14295 1070.34282,1011.14295" id="Stroke-4" stroke="#E6CC8A" stroke-width="25.1459999" sketch:type="MSShapeGroup" mask="url(#mask-2)"></path>
                        </g>
                    </g>
                </g>
            </g>
        </g>
    </g>
</svg>