<?xml version="1.0" standalone="no"?>
<!DOCTYPE svg PUBLIC "-//W3C//DTD SVG 1.1//EN" "http://www.w3.org/Graphics/SVG/1.1/DTD/svg11.dtd" >
<svg>
<metadata>
Created by FontForge 20090622 at Fri Oct  9 17:16:54 2015
 By deploy user
&#194;&#169;2009 Schwartzco Inc.
</metadata>
<defs>
<font id="StagStencil-Bold" horiz-adv-x="580" >
  <font-face 
    font-family="Stag Stencil Bold"
    font-weight="700"
    font-stretch="normal"
    units-per-em="1000"
    panose-1="2 0 6 3 6 0 0 2 0 4"
    ascent="800"
    descent="-200"
    x-height="528"
    cap-height="700"
    bbox="-168 -237 1330 940"
    underline-thickness="20"
    underline-position="-113"
    unicode-range="U+0020-U+FB04"
  />
<missing-glyph horiz-adv-x="253" 
 />
    <glyph glyph-name="f_f" unicode="ff" horiz-adv-x="741" 
d="M376 528v-131h-63v131h63zM406 123v428q0 87 48.5 125t146.5 38q78 0 127 -15v-118h-47q-32 0 -44 -8.5t-12 -33.5v-391q0 -8 8.5 -16.5t15.5 -8.5h44v-123h-331v123h44zM283 530v-407h42v-123h-310v123h25q7 0 15.5 8.5t8.5 16.5v249h-52v131h52v14q0 87 48.5 125
t146.5 38q60 0 109 -15v-118h-29q-32 0 -44 -8.5t-12 -33.5zM724 397h-69v131h69v-131z" />
    <glyph glyph-name="f_i" unicode="fi" horiz-adv-x="691" 
d="M283 539v-416h42v-123h-310v123h25q7 0 15.5 8.5t8.5 16.5v249h-52v131h52v23q0 87 48.5 125t146.5 38q78 0 127 -15v-118h-47q-32 0 -44 -8.5t-12 -33.5zM362 0v123h44v405h188q31 0 31 -51v-329q0 -8 8.5 -16.5t16.5 -8.5h26v-123h-314zM515 555q-45 0 -73 25.5
t-28 67.5t28 68.5t73 26.5t73.5 -26t28.5 -69q0 -42 -28.5 -67.5t-73.5 -25.5zM376 397h-63v131h63v-131z" />
    <glyph glyph-name="f_l" unicode="fl" horiz-adv-x="694" 
d="M15 0v123h25q7 0 15.5 8.5t8.5 16.5v249h-52v131h52v23q0 87 48.5 125t146.5 38q68 0 117 -15v-120h-37q-32 0 -44 -8.5t-12 -33.5v-414h42v-123h-310zM679 123v-123h-317v123h44v577h187q32 0 32 -44v-508q0 -8 8.5 -16.5t15.5 -8.5h30zM376 397h-63v131h63v-131z" />
    <glyph glyph-name="f_f_i" unicode="ffi" horiz-adv-x="1033" 
d="M376 528v-131h-63v131h63zM406 123v428q0 87 48.5 125t146.5 38q78 0 127 -15v-118h-47q-32 0 -44 -8.5t-12 -33.5v-416h42v-123h-305v123h44zM718 528v-131h-63v131h63zM748 123v405h188q31 0 31 -51v-329q0 -8 8.5 -16.5t16.5 -8.5h26v-123h-314v123h44zM857 555
q-45 0 -73 25.5t-28 67.5t28 68.5t73 26.5t73.5 -26t28.5 -69q0 -42 -28.5 -67.5t-73.5 -25.5zM283 530v-407h42v-123h-310v123h25q7 0 15.5 8.5t8.5 16.5v249h-52v131h52v14q0 87 48.5 125t146.5 38q60 0 109 -15v-118h-29q-32 0 -44 -8.5t-12 -33.5z" />
    <glyph glyph-name="f_f_l" unicode="ffl" horiz-adv-x="1036" 
d="M283 530v-407h42v-123h-310v123h25q7 0 15.5 8.5t8.5 16.5v249h-52v131h52v14q0 87 48.5 125t146.5 38q60 0 109 -15v-118h-29q-32 0 -44 -8.5t-12 -33.5zM362 0v123h44v428q0 87 48.5 125t146.5 38q68 0 117 -15v-120h-37q-32 0 -44 -8.5t-12 -33.5v-414h42v-123h-305z
M1021 123v-123h-317v123h44v577h187q32 0 32 -44v-508q0 -8 8.5 -16.5t15.5 -8.5h30zM718 397h-63v131h63v-131zM376 528v-131h-63v131h63z" />
    <glyph glyph-name="f_b" unicode="fb" horiz-adv-x="992" 
d="M15 0v123h25q7 0 15.5 8.5t8.5 16.5v249h-52v131h52v23q0 87 48.5 125t146.5 38q68 0 117 -15v-120h-37q-32 0 -44 -8.5t-12 -33.5v-414h68v-123h-336zM624 656v-508q0 -41 -14 -77t-30 -53.5t-27 -17.5h-147v700h187q31 0 31 -44zM628 31l26 91h19q82 0 82 138
q0 69 -21.5 95t-59.5 26h-20v112q55 45 127 45q85 0 140 -60t55 -199q0 -144 -61 -216.5t-163 -72.5q-80 0 -124 41zM376 397h-63v131h63v-131z" />
    <glyph glyph-name="f_h" unicode="fh" horiz-adv-x="1003" 
d="M15 0v123h25q7 0 15.5 8.5t8.5 16.5v249h-52v131h52v23q0 87 48.5 125t146.5 38q68 0 117 -15v-120h-37q-32 0 -44 -8.5t-12 -33.5v-414h42v-123h-310zM625 656v-533h58v-123h-321v123h44v577h187q32 0 32 -44zM729 0v328q0 28 -14 37.5t-50 9.5h-10v109q69 54 157 54
q60 0 98 -29.5t38 -96.5v-264q0 -8 8.5 -16.5t15.5 -8.5h16v-123h-259zM376 397h-63v131h63v-131z" />
    <glyph glyph-name="f_j" unicode="fj" horiz-adv-x="663" 
d="M283 539v-416h68v-123h-336v123h25q7 0 15.5 8.5t8.5 16.5v249h-52v131h52v23q0 87 48.5 125t146.5 38q78 0 127 -15v-118h-47q-32 0 -44 -8.5t-12 -33.5zM376 397h-63v131h63v-131zM429 -170q-54 0 -106 14v111h26q33 0 45 10.5t12 37.5v525h188q15 0 23 -14.5t8 -36.5
v-484q0 -89 -48 -126t-148 -37zM515 555q-45 0 -73 25.5t-28 67.5t28 68.5t73 26.5t73.5 -26t28.5 -69q0 -42 -28.5 -67.5t-73.5 -25.5z" />
    <glyph glyph-name="f_k" unicode="fk" horiz-adv-x="993" 
d="M15 0v123h25q7 0 15.5 8.5t8.5 16.5v249h-52v131h52v23q0 87 48.5 125t146.5 38q68 0 117 -15v-120h-37q-32 0 -44 -8.5t-12 -33.5v-414h42v-123h-310zM625 656v-533h44v-123h-307v123h44v577h187q32 0 32 -44zM656 192v138l40 33q18 16 16 27.5t-21 11.5h-19v126h304
v-131h-12q-16 0 -32 -14l-105 -84l109 -150q20 -26 30 -26h12v-123h-263v120zM376 397h-63v131h63v-131z" />
    <glyph glyph-name="f_t" unicode="ft" horiz-adv-x="741" 
d="M283 539v-416h68v-123h-336v123h25q7 0 15.5 8.5t8.5 16.5v249h-52v131h52v23q0 87 48.5 125t146.5 38q68 0 117 -15v-118h-37q-32 0 -44 -8.5t-12 -33.5zM406 145v520h219v-483q0 -34 13.5 -46.5t49.5 -12.5h38v-119q-56 -15 -127 -15q-94 0 -143.5 34.5t-49.5 121.5z
M376 528v-131h-63v131h63zM724 397h-69v131h69v-131z" />
    <glyph glyph-name="f_f_b" unicode="ffb" horiz-adv-x="1334" 
d="M283 530v-407h42v-123h-310v123h25q7 0 15.5 8.5t8.5 16.5v249h-52v131h52v14q0 87 48.5 125t146.5 38q60 0 109 -15v-118h-29q-32 0 -44 -8.5t-12 -33.5zM362 0v123h44v428q0 87 48.5 125t146.5 38q68 0 117 -15v-120h-37q-32 0 -44 -8.5t-12 -33.5v-414h68v-123h-331z
M966 656v-508q0 -41 -14 -77t-30 -53.5t-27 -17.5h-147v700h187q31 0 31 -44zM970 31l26 91h19q82 0 82 138q0 69 -21.5 95t-59.5 26h-20v112q55 45 127 45q85 0 140 -60t55 -199q0 -144 -61 -216.5t-163 -72.5q-80 0 -124 41zM718 397h-63v131h63v-131zM376 528v-131h-63
v131h63z" />
    <glyph glyph-name="f_f_h" unicode="ffh" horiz-adv-x="1345" 
d="M283 530v-407h42v-123h-310v123h25q7 0 15.5 8.5t8.5 16.5v249h-52v131h52v14q0 87 48.5 125t146.5 38q60 0 109 -15v-118h-29q-32 0 -44 -8.5t-12 -33.5zM362 0v123h44v428q0 87 48.5 125t146.5 38q68 0 117 -15v-120h-37q-32 0 -44 -8.5t-12 -33.5v-414h42v-123h-305z
M967 656v-533h58v-123h-321v123h44v577h187q32 0 32 -44zM1071 0v328q0 28 -14 37.5t-50 9.5h-10v109q69 54 157 54q60 0 98 -29.5t38 -96.5v-264q0 -8 8.5 -16.5t15.5 -8.5h16v-123h-259zM376 528v-131h-63v131h63zM718 397h-63v131h63v-131z" />
    <glyph glyph-name="f_f_j" unicode="ffj" horiz-adv-x="1005" 
d="M283 530v-407h42v-123h-310v123h25q7 0 15.5 8.5t8.5 16.5v249h-52v131h52v14q0 87 48.5 125t146.5 38q60 0 109 -15v-118h-29q-32 0 -44 -8.5t-12 -33.5zM406 123v428q0 87 48.5 125t146.5 38q78 0 127 -15v-118h-47q-32 0 -44 -8.5t-12 -33.5v-416h68v-123h-331v123h44
zM771 -170q-54 0 -106 14v111h26q33 0 45 10.5t12 37.5v525h188q15 0 23 -14.5t8 -36.5v-484q0 -89 -48 -126t-148 -37zM857 555q-17 0 -30 3l-11 3q-1 1 -3 1.5t-4 1.5l-4 2q-17 8 -26 19l-5 6l-8 12q-8 16 -9 29q-1 4 -1 12v4q0 14 3 28q3 13 15 30q6 7 13 13q5 5 12 9
q6 4 10 5q9 5 18 6q6 2 8 2q3 1 9 1q3 1 8 1h5q8 0 13 -1h4h2l2 -1q10 -2 16 -4q12 -3 18 -7l7 -4q2 -2 3 -2l5 -5l3 -2l3 -3l7 -8q6 -8 8 -13l2 -3q6 -16 8 -26q1 -5 1 -16t-1 -16q-3 -18 -10 -29q-4 -9 -18 -23l-8 -7q-10 -7 -24 -12q-12 -4 -28 -6h-13zM376 528v-131h-63
v131h63zM718 528v-131h-63v131h63z" />
    <glyph glyph-name="f_f_k" unicode="ffk" horiz-adv-x="1335" 
d="M283 530v-407h42v-123h-310v123h25q7 0 15.5 8.5t8.5 16.5v249h-52v131h52v14q0 87 48.5 125t146.5 38q60 0 109 -15v-118h-29q-32 0 -44 -8.5t-12 -33.5zM362 0v123h44v428q0 87 48.5 125t146.5 38q68 0 117 -15v-120h-37q-32 0 -44 -8.5t-12 -33.5v-414h42v-123h-305z
M967 656v-533h44v-123h-307v123h44v577h187q32 0 32 -44zM998 192v138l40 33q18 16 16 27.5t-21 11.5h-19v126h304v-131h-12q-16 0 -32 -14l-105 -84l109 -150q20 -26 30 -26h12v-123h-263v120zM376 528v-131h-63v131h63zM718 397h-63v131h63v-131z" />
    <glyph glyph-name="f_f_t" unicode="fft" horiz-adv-x="1083" 
d="M376 528v-131h-63v131h63zM283 530v-407h42v-123h-310v123h25q7 0 15.5 8.5t8.5 16.5v249h-52v131h52v14q0 87 48.5 125t146.5 38q60 0 109 -15v-118h-29q-32 0 -44 -8.5t-12 -33.5zM625 539v-416h68v-123h-331v123h44v428q0 87 48.5 125t146.5 38q68 0 117 -15v-118h-37
q-32 0 -44 -8.5t-12 -33.5zM748 145v520h219v-483q0 -34 13.5 -46.5t49.5 -12.5h38v-119q-56 -15 -127 -15q-94 0 -143.5 34.5t-49.5 121.5zM718 528v-131h-63v131h63zM1066 397h-69v131h69v-131z" />
    <glyph glyph-name=".notdef" horiz-adv-x="253" 
 />
    <glyph glyph-name=".null" horiz-adv-x="0" 
 />
    <glyph glyph-name="nonmarkingreturn" horiz-adv-x="333" 
 />
    <glyph glyph-name="space" unicode=" " horiz-adv-x="160" 
 />
    <glyph glyph-name="exclam" unicode="!" horiz-adv-x="264" 
d="M78 219l-58 353v128h221v-128l-59 -353h-104zM131 -7q-43 0 -72.5 28t-29.5 68q0 41 29.5 69.5t72.5 28.5q42 0 71.5 -28.5t29.5 -69.5q0 -40 -29.5 -68t-71.5 -28z" />
    <glyph glyph-name="quotedbl" unicode="&#x22;" horiz-adv-x="450" 
d="M280 431l-40 169v100h185v-100l-40 -169h-105zM65 431l-40 169v100h185v-100l-40 -169h-105z" />
    <glyph glyph-name="numbersign" unicode="#" horiz-adv-x="513" 
d="M277 700l-102 -700h-118l25 174h-62v155h85l9 66h-62v155h85l22 150h118zM237 0l102 700h118l-22 -150h61v-155h-84l-9 -66h61v-155h-84l-25 -174h-118z" />
    <glyph glyph-name="dollar" unicode="$" horiz-adv-x="570" 
d="M328 771v-208h-21q-84 0 -84 -52q0 -16 13.5 -27.5t30.5 -17t56 -15.5q3 -1 4 -1q125 -34 174 -81t49 -144q0 -89 -52.5 -147.5t-169.5 -71.5v-98h-93v237h3q40 0 65.5 13.5t25.5 38.5t-22 36.5t-84 28.5q-3 1 -4 1q-96 22 -148.5 68.5t-52.5 149.5q0 188 217 213v77h93z
M139 208q11 -27 25.5 -41t40.5 -20v-142q-94 3 -188 21v182h122zM409 503q-21 43 -51 55v138q62 -3 169 -25v-168h-118z" />
    <glyph glyph-name="percent" unicode="%" horiz-adv-x="860" 
d="M123 -34l493 763h118l-493 -763h-118zM400 516q0 -89 -50.5 -139.5t-125.5 -53.5v97q28 14 28 94q0 82 -28 96v98q74 -2 125 -52.5t51 -139.5zM18 516q0 89 50.5 139.5t125.5 52.5v-98q-28 -13 -28 -96q0 -82 28 -94v-97q-75 3 -125.5 53.5t-50.5 139.5zM843 184
q0 -89 -50.5 -139.5t-125.5 -53.5v97q28 14 28 94q0 82 -28 96v98q75 -3 125.5 -53.5t50.5 -138.5zM461 184q0 89 50.5 139t125.5 53v-98q-28 -13 -28 -96q0 -82 28 -94v-97q-75 3 -125.5 53.5t-50.5 139.5z" />
    <glyph glyph-name="ampersand" unicode="&#x26;" horiz-adv-x="758" 
d="M464 497l-16 65v138h164v-203h-148zM727 331q-36 -80 -60 -120l-123 128q9 37 15 81h168v-89zM537 0l-292 305q-34 35 -45.5 48t-32 42t-28 56.5t-7.5 62.5q0 89 57 141t159 52q39 0 70 -7v-138q-54 -1 -54 -52q0 -5 1 -10t1.5 -8.5t3 -8.5t3.5 -7.5t5.5 -8t5.5 -7.5
t7 -8l7.5 -7.5l9 -9l9.5 -9.5l258 -266l18 -17q23 -20 37 -20h7v-123h-200zM137 385q16 -27 87 -102l18 -19q-5 -17 -5 -36q0 -44 26.5 -69.5t74.5 -25.5q16 0 28 2l104 -109q-71 -34 -167 -34q-140 0 -213 56t-73 154q0 121 120 183z" />
    <glyph glyph-name="quotesingle" unicode="'" horiz-adv-x="248" 
d="M70 431l-45 169v100h198v-100l-45 -169h-108z" />
    <glyph glyph-name="parenleft" unicode="(" horiz-adv-x="346" 
d="M240 -49q-32 12 -62 32t-60 54t-51.5 77t-35 104t-13.5 132q0 87 20 157.5t53.5 116t70.5 74t78 43.5h89v-115q-57 -21 -89.5 -84t-32.5 -192q0 -242 122 -288v-111h-89z" />
    <glyph glyph-name="parenright" unicode=")" horiz-adv-x="346" 
d="M16 -49v111q123 46 123 288q0 230 -123 276v115h89q42 -15 79 -43.5t70.5 -74.5t53.5 -116.5t20 -156.5q0 -88 -20 -160.5t-53.5 -119t-70.5 -75.5t-79 -44h-89z" />
    <glyph glyph-name="asterisk" unicode="*" horiz-adv-x="410" 
d="M216 547h-23l-52 96l23 57h81l22 -57zM57 639l60 -9l61 -91l-11 -21l-113 8l-36 48zM292 630l60 9l39 -65l-36 -48l-113 -8l-11 21zM216 475l51 -96l-22 -57h-81l-23 57l52 96h23zM117 392l-60 -9l-39 65l36 48l113 8l11 -21zM352 383l-60 9l-61 91l11 21l113 -8l36 -48z
" />
    <glyph glyph-name="plus" unicode="+" horiz-adv-x="532" 
d="M351 92h-168v507h168v-507zM18 269v153h135v-153h-135zM515 269h-134v153h134v-153z" />
    <glyph glyph-name="comma" unicode="," horiz-adv-x="239" 
d="M19 -120v77q63 12 63 42q0 9 -4.5 14t-15 11t-16.5 11q-29 24 -29 66q0 38 27.5 62t69.5 24q46 0 76.5 -30.5t30.5 -87.5q0 -174 -202 -189z" />
    <glyph glyph-name="hyphen" unicode="-" horiz-adv-x="306" 
d="M24 230v142h257v-142h-257z" />
    <glyph glyph-name="period" unicode="." horiz-adv-x="239" 
d="M120 -7q-43 0 -72.5 28t-29.5 68q0 41 29.5 69.5t72.5 28.5q42 0 71.5 -28.5t29.5 -69.5q0 -40 -29.5 -68t-71.5 -28z" />
    <glyph glyph-name="slash" unicode="/" horiz-adv-x="379" 
d="M-1 -49l242 790h138l-242 -790h-138z" />
    <glyph glyph-name="zero" unicode="0" horiz-adv-x="704" 
d="M685 350q0 -166 -89.5 -261t-229.5 -100v148q79 15 79 209q0 192 -79 205v160q137 -6 228 -101t91 -260zM18 350q0 165 91 260t227 101v-160q-78 -13 -78 -205q0 -194 78 -209v-148q-139 5 -228.5 100t-89.5 261z" />
    <glyph glyph-name="one" unicode="1" horiz-adv-x="436" 
d="M24 0v123h57q9 0 18.5 10.5t9.5 18.5v371l-55 -31h-37v132l152 76h174v-548q0 -8 9.5 -18.5t17.5 -10.5h49v-123h-395z" />
    <glyph glyph-name="two" unicode="2" horiz-adv-x="574" 
d="M392 273l-39 -21.5l-41.5 -23.5t-31 -20.5t-28.5 -23.5h-216q31 84 151 164l33.5 23t33 23t25 20t22 22t12 22t5.5 27q0 58 -56 63v163q156 0 224.5 -49t68.5 -156q0 -86 -42 -137t-121 -96zM19 0v85q0 35 8 69h362l17 56h137v-210h-524zM45 672q73 33 187 39v-164
q-45 -11 -73 -59h-114v184z" />
    <glyph glyph-name="three" unicode="3" horiz-adv-x="567" 
d="M248 -11h-3v148q65 8 65 73q0 73 -87 73h-62v134h57q92 0 92 71q0 58 -63 64v159q64 0 112 -7.5t90.5 -27t64.5 -57t22 -93.5q0 -136 -146 -166v-4q159 -22 159 -162q0 -98 -80 -151.5t-221 -53.5zM135 189q25 -48 80 -52v-148q-114 3 -198 37v163h118zM38 674
q82 29 179 36v-159q-48 -4 -68 -45h-111v168z" />
    <glyph glyph-name="four" unicode="4" horiz-adv-x="608" 
d="M591 182h-59v-30q0 -8 9.5 -18.5t18.5 -10.5h31v-123h-353v123h37q8 0 17.5 10.5t9.5 18.5v548h230v-383h59v-135zM160 321v-4h112v-135h-255v156l255 332v-189z" />
    <glyph glyph-name="five" unicode="5" horiz-adv-x="564" 
d="M546 227q0 -113 -77 -175t-219 -63v149q63 12 63 86q0 40 -22 61t-60 21h-11v120q46 24 111 24q95 0 155 -56t60 -167zM357 541h-326v159h478v-199h-137zM158 273h-127v238h159v-214q-16 -8 -32 -24zM135 191q26 -49 85 -53v-148q-114 2 -203 39v162h118z" />
    <glyph glyph-name="six" unicode="6" horiz-adv-x="645" 
d="M256 351q-2 -117 12 -166t47 -55v-140q-140 6 -218.5 91t-78.5 254q0 174 88 271t263 105v-161q-55 -5 -83 -49t-30 -150zM286 308l4 105q55 34 126 34q95 0 152.5 -53.5t57.5 -155.5q0 -112 -75 -179.5t-206 -69.5v141q51 11 51 96q0 44 -17.5 65t-54.5 21q-22 0 -38 -4
zM476 521q-27 25 -77 29v161q113 0 186 -21v-169h-109z" />
    <glyph glyph-name="seven" unicode="7" horiz-adv-x="554" 
d="M90 0v95l414 605h33v-177l-214 -523h-233zM17 460v240h450l-114 -166h-180l-19 -74h-137z" />
    <glyph glyph-name="eight" unicode="8" horiz-adv-x="647" 
d="M628 199q0 -95 -76 -151t-214 -59v142q31 4 46.5 28t15.5 60t-15.5 60.5t-46.5 28.5v119q47 9 47 70q0 63 -47 71v143q116 -4 190 -55t74 -134q0 -111 -113 -147v-4q139 -42 139 -172zM43 522q0 83 74 134t191 55v-143q-48 -8 -48 -71q0 -29 12.5 -47.5t35.5 -22.5v-119
q-63 -8 -63 -89t63 -88v-142q-138 3 -214 59t-76 151q0 130 140 172v4q-115 37 -115 147z" />
    <glyph glyph-name="nine" unicode="9" horiz-adv-x="645" 
d="M388 349q2 116 -12 163.5t-47 53.5v144q298 -14 298 -345q0 -360 -352 -376v157q56 5 83.5 50t29.5 153zM358 388l-4 -105q-55 -34 -126 -34q-94 0 -152 55t-58 158q0 112 75 179.5t206 69.5v-145q-51 -11 -51 -96q0 -44 17.5 -65t54.5 -21q22 0 38 4zM156 175
q29 -29 89 -29v-157q-134 0 -198 22v164h109z" />
    <glyph glyph-name="colon" unicode=":" horiz-adv-x="237" 
d="M118 -7q-42 0 -70.5 27t-28.5 67t28.5 68t70.5 28q41 0 70 -28t29 -68t-29 -67t-70 -27zM118 275q-42 0 -70.5 27t-28.5 67t28.5 67.5t70.5 27.5q41 0 70 -27.5t29 -67.5t-29 -67t-70 -27z" />
    <glyph glyph-name="semicolon" unicode=";" horiz-adv-x="237" 
d="M118 275q-42 0 -70.5 27t-28.5 67t28.5 67.5t70.5 27.5q41 0 70 -27.5t29 -67.5t-29 -67t-70 -27zM19 -118v77q62 10 62 40q0 9 -4.5 14t-15 11t-15.5 10q-28 23 -28 65q0 37 26.5 60.5t67.5 23.5q45 0 75 -30t30 -85q0 -88 -49.5 -133t-148.5 -53z" />
    <glyph glyph-name="less" unicode="&#x3c;" horiz-adv-x="464" 
d="M18 390l373 190h52v-157l-386 -176l-39 20v123zM270 312l173 -80v-154h-52l-300 152z" />
    <glyph glyph-name="equal" unicode="=" horiz-adv-x="508" 
d="M24 337v147h460v-147h-460zM24 133v148h460v-148h-460z" />
    <glyph glyph-name="greater" unicode="&#x3e;" horiz-adv-x="464" 
d="M446 268l-373 -190h-52v157l386 176l39 -20v-123zM194 346l-173 80v154h52l300 -152z" />
    <glyph glyph-name="question" unicode="?" horiz-adv-x="488" 
d="M127 219q-13 61 1 104t53 83l16 16.5t19.5 21.5l14 19t13 24t3.5 23q0 45 -35 52v149q258 -1 258 -194q0 -46 -19 -82t-41.5 -55t-61.5 -44q-36 -24 -51 -35.5t-28 -33t-11 -48.5h-131zM199 -7q-43 0 -72.5 28t-29.5 68q0 41 29.5 69.5t72.5 28.5q42 0 71.5 -28.5
t29.5 -69.5q0 -40 -29.5 -68t-71.5 -28zM18 676q81 31 164 35v-149q-32 -8 -45 -50h-119v164z" />
    <glyph glyph-name="at" unicode="@" horiz-adv-x="883" 
d="M459 216l26 112q13 55 41 87t58 32h99l-55 -242q-12 -56 23 -56q45 0 81 49.5t36 138.5q0 116 -84.5 184.5t-216.5 71.5v74q102 -2 189.5 -40t144 -114t56.5 -176q0 -133 -75 -201.5t-191 -68.5q-137 0 -137 96q0 31 5 53zM427 169v-65q-38 -34 -98 -34q-52 0 -84 35
t-32 98q0 107 69 188q57 62 141 62q37 0 66 -25l-31 -76q-37 -1 -57 -43t-20 -101q0 -39 34 -39h12zM27 240q0 97 36.5 178t96 133t131.5 82.5t146 33.5v-74q-62 -3 -117.5 -26.5t-100 -66t-70.5 -110t-26 -150.5q0 -149 86.5 -223t227.5 -77v-74q-63 1 -121.5 15.5
t-111.5 44.5t-92 72.5t-62 104.5t-23 137zM735 -58q-103 -71 -268 -76v74q131 4 218 60h50v-58z" />
    <glyph glyph-name="A" unicode="A" horiz-adv-x="768" 
d="M474 123l-166 577h223l175 -554q3 -8 12.5 -15.5t17.5 -7.5h16v-123h-356v123h78zM281 214l35 106h70l30 -106h-135zM340 479l-89 -261q-17 -49 -8.5 -72t44.5 -23h26v-123h-297v123h13q26 0 38 31l138 391q3 9 -3 18t-15 9h-33v128h122z" />
    <glyph glyph-name="B" unicode="B" horiz-adv-x="681" 
d="M17 0v124h29q9 0 18.5 10.5t9.5 18.5v392q0 8 -9.5 18t-18.5 10h-29v127h287v-700h-287zM359 0h-25v129h10q46 0 65.5 21t19.5 65q0 43 -19.5 62.5t-65.5 19.5h-10v122h6q78 0 78 75q0 38 -18 56t-59 18h-7v132h22q287 0 287 -181q0 -63 -35 -98t-104 -52v-4
q160 -25 160 -164q0 -99 -80.5 -150t-224.5 -51z" />
    <glyph glyph-name="C" unicode="C" horiz-adv-x="659" 
d="M377 -11q-175 0 -267 90.5t-92 263.5q0 177 90.5 271t253.5 94q45 0 74 -8v-145h-25q-70 0 -106 -46t-36 -156q0 -102 26.5 -153.5t86.5 -57.5v-153h-5zM489 450l-23 105v145h172v-250h-149zM641 61q-93 -63 -229 -72v153q72 7 113 70h116v-151z" />
    <glyph glyph-name="D" unicode="D" horiz-adv-x="748" 
d="M17 0v123h29q9 0 18.5 10.5t9.5 18.5v392q0 8 -9.5 18t-18.5 10h-29v128h291v-700h-291zM730 355q0 -355 -392 -355v129h3q149 0 149 217q0 111 -37 164t-112 53h-3v137h6q198 0 292 -84t94 -261z" />
    <glyph glyph-name="E" unicode="E" horiz-adv-x="642" 
d="M17 0v123h29q9 0 18.5 10.5t9.5 18.5v392q0 8 -9.5 18t-18.5 10h-29v128h291v-700h-291zM622 0h-284v134h124l19 106h141v-240zM458 562h-120v138h275v-227h-135zM469 286h-131v142h131v-142z" />
    <glyph glyph-name="F" unicode="F" horiz-adv-x="624" 
d="M17 0v123h29q9 0 18.5 10.5t9.5 18.5v392q0 8 -9.5 18t-18.5 10h-29v128h291v-577h74v-123h-365zM452 562h-114v138h269v-239h-135zM468 260h-130v145h130v-145z" />
    <glyph glyph-name="G" unicode="G" horiz-adv-x="713" 
d="M348 -11q-164 0 -247 90t-83 264q0 177 90.5 271t257.5 94q44 0 74 -8v-145h-29q-70 0 -106 -46t-36 -155q0 -110 27 -160.5t92 -50.5h18l76 -127q-47 -27 -134 -27zM436 151v85h-49v122h314v-125h-15q-9 0 -18.5 -10t-9.5 -18v-205h-132zM492 457l-22 98v145h172v-243
h-150z" />
    <glyph glyph-name="H" unicode="H" horiz-adv-x="781" 
d="M308 572v-449h60v-123h-351v123h29q9 0 18.5 10.5t9.5 18.5v392q0 8 -9.5 18t-18.5 10h-29v128h351v-128h-60zM413 123h60v449h-60v128h351v-128h-29q-9 0 -18.5 -10t-9.5 -18v-392q0 -8 9.5 -18.5t18.5 -10.5h29v-123h-351v123zM338 295v119h105v-119h-105z" />
    <glyph glyph-name="I" unicode="I" horiz-adv-x="391" 
d="M17 0v123h34q9 0 18.5 10.5t9.5 18.5v392q0 8 -9.5 18t-18.5 10h-34v128h358v-128h-35q-8 0 -17.5 -10t-9.5 -18v-392q0 -8 9.5 -18.5t17.5 -10.5h35v-123h-358z" />
    <glyph glyph-name="J" unicode="J" horiz-adv-x="561" 
d="M482 218q0 -119 -64.5 -171.5t-209.5 -54.5v147q39 5 39 59v346q0 8 -9.5 18t-17.5 10h-40v128h363v-128h-34q-9 0 -18 -10t-9 -18v-326zM129 180q16 -37 49 -41v-147q-94 3 -161 38v150h112z" />
    <glyph glyph-name="K" unicode="K" horiz-adv-x="754" 
d="M17 0v123h29q9 0 18.5 10.5t9.5 18.5v392q0 8 -9.5 18t-18.5 10h-29v128h344v-128h-53v-449h56v-123h-347zM669 540l-331 -303v186l100 97q21 20 16.5 36t-29.5 16h-16v128h325v-128h-13q-18 0 -52 -32zM455 108l-66 134l167 153l137 -245q20 -27 33 -27h11v-123h-282
v108z" />
    <glyph glyph-name="L" unicode="L" horiz-adv-x="624" 
d="M17 0v123h29q9 0 18.5 10.5t9.5 18.5v392q0 8 -9.5 18t-18.5 10h-29v128h370v-128h-79v-572h-291zM608 0h-270v134h108l19 124h143v-258z" />
    <glyph glyph-name="M" unicode="M" horiz-adv-x="963" 
d="M605 123h56v280l79 297h206v-128h-30q-8 0 -17.5 -10t-9.5 -18v-392q0 -8 9.5 -18.5t17.5 -10.5h30v-123h-341v123zM380 0l-188 700h210l147 -597l-28 -103h-141zM17 0v123h29q9 0 18.5 10.5t9.5 18.5v392q0 8 -9.5 18t-18.5 10h-29v128h144l80 -298v-279h60v-123h-284z
M711 700l-146 -538l-67 275l68 263h145z" />
    <glyph glyph-name="N" unicode="N" horiz-adv-x="748" 
d="M17 0v123h29q9 0 18.5 10.5t9.5 18.5v392q0 8 -9.5 18t-18.5 10h-29v128h224v-577h64v-123h-288zM475 0l-204 350v350h27l380 -640v-60h-203zM678 544v-424l-168 286v166h-61v128h282v-128h-26q-8 0 -17.5 -10t-9.5 -18z" />
    <glyph glyph-name="O" unicode="O" horiz-adv-x="760" 
d="M742 350q0 -165 -97 -260.5t-250 -100.5v148q50 7 78.5 60t28.5 149q0 95 -28.5 147t-78.5 59v159q151 -5 249 -101t98 -260zM18 350q0 164 98 260t249 101v-159q-50 -7 -78.5 -58.5t-28.5 -147.5t28.5 -149t78.5 -60v-148q-153 5 -250 100t-97 261z" />
    <glyph glyph-name="P" unicode="P" horiz-adv-x="675" 
d="M308 700v-577h74v-123h-365v123h29q9 0 18.5 10.5t9.5 18.5v392q0 8 -9.5 18t-18.5 10h-29v128h291zM348 250h-10v124h4q86 0 86 95q0 94 -86 94h-4v137h20q155 0 227.5 -53.5t72.5 -171.5q0 -225 -310 -225z" />
    <glyph glyph-name="Q" unicode="Q" horiz-adv-x="761" 
d="M597 -117q-52 78 -202 102v152q50 7 78.5 60t28.5 149q0 95 -28.5 147t-78.5 59v159q151 -5 249 -101t98 -260q0 -206 -179 -267v-4q143 -17 201 -73v-123h-167zM18 350q0 164 98 260t249 101v-159q-50 -7 -78.5 -58.5t-28.5 -147.5t28.5 -149t78.5 -60v-147
q-347 44 -347 360z" />
    <glyph glyph-name="R" unicode="R" horiz-adv-x="724" 
d="M308 700v-577h63v-123h-354v123h29q9 0 18.5 10.5t9.5 18.5v392q0 8 -9.5 18t-18.5 10h-29v128h291zM350 267h-12v121h4q48 0 67 21.5t19 65.5t-19.5 66t-66.5 22h-4v137h27q152 0 224 -49.5t72 -150.5q0 -63 -32.5 -101.5t-103.5 -57.5v-4q56 -12 84.5 -42.5
t44.5 -101.5l11 -45q6 -25 25 -25h17v-123h-256l-23 190q-5 43 -22.5 60t-55.5 17z" />
    <glyph glyph-name="S" unicode="S" horiz-adv-x="578" 
d="M293 -8q-43 0 -73 8v130h30q85 0 85 59q0 31 -23 44t-83 29q-9 3 -14 4q-44 12 -74.5 25.5t-60 37.5t-44.5 63.5t-15 93.5q0 113 68.5 166.5t181.5 53.5q45 0 66 -6v-126h-22q-43 0 -64 -12.5t-21 -43.5q0 -20 12.5 -33.5t28 -19.5t43.5 -13l12 -3q131 -35 181.5 -81.5
t50.5 -143.5q0 -232 -265 -232zM170 221l20 -91v-130h-172v221h152zM387 497l-20 77v126h170v-203h-150z" />
    <glyph glyph-name="T" unicode="T" horiz-adv-x="700" 
d="M201 700v-134h-28l-15 -129h-139v263h182zM497 566v134h184v-263h-138l-16 129h-30zM233 700h234v-548q0 -8 9.5 -18.5t18.5 -10.5h33v-123h-356v123h33q9 0 18.5 10.5t9.5 18.5v548z" />
    <glyph glyph-name="U" unicode="U" horiz-adv-x="742" 
d="M304 243q0 -53 20 -78t64 -28v-145q-163 1 -240.5 65t-77.5 198v289q0 8 -9.5 18t-18.5 10h-25v128h356v-128h-69v-329zM673 255q0 -124 -65 -190.5t-190 -72.5v145q79 7 79 106v329h-69v128h297v-128h-25q-8 0 -17.5 -10t-9.5 -18v-289z" />
    <glyph glyph-name="V" unicode="V" horiz-adv-x="756" 
d="M264 0l-202 550q-3 9 -12 15.5t-17 6.5h-16v128h344v-128h-67l186 -572h-216zM689 542l-189 -507l-81 250l76 212q28 75 -40 75h-20v128h304v-128h-12q-10 0 -21.5 -9.5t-16.5 -20.5z" />
    <glyph glyph-name="W" unicode="W" horiz-adv-x="1064" 
d="M198 0l-138 550q-2 8 -11.5 15t-18.5 7h-13v128h342v-128h-62l127 -572h-226zM618 0l-162 700h206l164 -700h-208zM999 542l-155 -493l-71 314l40 134q12 37 3 56t-42 19h-15v128h288v-128h-10q-11 0 -22.5 -9t-15.5 -21zM442 50l-65 301l63 283l68 -293z" />
    <glyph glyph-name="X" unicode="X" horiz-adv-x="732" 
d="M314 579l347 -428q23 -28 43 -28h11v-123h-350v117h53l-347 427q-24 28 -39 28h-15v128h349v-121h-52zM307 206l-24 -37q-14 -21 -8.5 -36.5t30.5 -15.5h15v-117h-303v123h19q22 0 36 19l135 188zM658 550l-131 -187l-105 129l22 31q17 25 10 40.5t-29 15.5h-15v121h305
v-128h-19q-22 0 -38 -22z" />
    <glyph glyph-name="Y" unicode="Y" horiz-adv-x="709" 
d="M488 299l-83 138l43 74q17 28 9 44.5t-41 16.5h-16v128h292v-128h-10q-20 0 -39 -29zM292 572l180 -304v-116q0 -8 9.5 -18.5t18.5 -10.5h34v-123h-357v123h34q9 0 18 10t9 19v113l-176 286q-13 21 -29 21h-16v128h336v-128h-61z" />
    <glyph glyph-name="Z" unicode="Z" horiz-adv-x="608" 
d="M17 0v153l433 547h141v-157l-431 -543h-143zM591 0h-392l105 134h126l19 98h142v-232zM36 478v222h376l-109 -138h-113l-19 -84h-135z" />
    <glyph glyph-name="bracketleft" unicode="[" horiz-adv-x="305" 
d="M23 -49v790h265v-128h-82v-539h82v-123h-265z" />
    <glyph glyph-name="backslash" unicode="\" horiz-adv-x="379" 
d="M244 -49l-242 790h138l242 -790h-138z" />
    <glyph glyph-name="bracketright" unicode="]" horiz-adv-x="305" 
d="M16 -49v123h83v539h-83v128h266v-790h-266z" />
    <glyph glyph-name="asciicircum" unicode="^" horiz-adv-x="419" 
d="M285 451l-171 219l20 30h150l118 -176v-73h-117zM17 451v73l79 119l94 -120l-56 -72h-117z" />
    <glyph glyph-name="underscore" unicode="_" horiz-adv-x="408" 
d="M6 -162v115h396v-115h-396z" />
    <glyph glyph-name="grave" unicode="`" horiz-adv-x="416" 
d="M157 563l-100 87v56h199l24 -143h-123z" />
    <glyph glyph-name="a" unicode="a" horiz-adv-x="589" 
d="M315 126v208q0 28 -16.5 41t-54.5 13q-59 0 -103 -36h-91v149q104 37 247 37q124 0 180.5 -43t56.5 -136v-211q0 -8 8.5 -16.5t15.5 -8.5h17v-104q-51 -28 -125 -28q-61 0 -98 29t-37 106zM267 116q11 0 16 1l18 -89q-47 -35 -123 -35q-70 0 -117 39t-47 112
q0 84 54 124.5t151 40.5q36 0 66 -3v-91q-4 1 -12 1q-27 0 -40.5 -12t-13.5 -40q0 -48 48 -48z" />
    <glyph glyph-name="b" unicode="b" horiz-adv-x="621" 
d="M253 656v-508q0 -41 -14 -77t-30 -53.5t-27 -17.5h-147v547q0 7 -8.5 16t-16.5 9h-27v128h239q31 0 31 -44zM257 31l26 91h19q82 0 82 138q0 69 -21.5 95t-59.5 26h-20v112q55 45 127 45q85 0 140 -60t55 -199q0 -144 -61 -216.5t-163 -72.5q-80 0 -124 41z" />
    <glyph glyph-name="c" unicode="c" horiz-adv-x="532" 
d="M238 260q0 -126 67 -139v-129q-144 2 -217 71.5t-73 198.5q0 127 77 199.5t213 76.5v-140q-67 -12 -67 -138zM388 352q-11 23 -22 33.5t-31 12.5v140q108 -3 169 -27v-159h-116zM505 41q-69 -45 -170 -49v129q44 4 75 44h95v-124z" />
    <glyph glyph-name="d" unicode="d" horiz-adv-x="655" 
d="M638 0h-225q-42 0 -42 97v475h-51v128h238q15 0 23.5 -12t8.5 -32v-508q0 -7 8.5 -16t15.5 -9h24v-123zM317 124h24v-99q-48 -35 -115 -35q-97 0 -153.5 66t-56.5 208q0 140 61 207t153 67q63 0 111 -38v-117h-17q-41 0 -64 -26.5t-23 -97.5q0 -135 80 -135z" />
    <glyph glyph-name="e" unicode="e" 
d="M232 267q0 -81 19 -111t66 -35v-130q-164 4 -233 72t-69 198q0 123 72 197.5t198 79.5v-127q-53 -7 -53 -144zM264 217v103h96q-1 84 -45 92v126q127 -4 188 -69t61 -200q0 -15 -1 -33t-1 -19h-298zM543 39q-77 -44 -196 -48v131q52 3 81 44h115v-127z" />
    <glyph glyph-name="f" unicode="f" horiz-adv-x="399" 
d="M283 539v-391q0 -8 8.5 -16.5t15.5 -8.5h44v-123h-336v123h25q7 0 15.5 8.5t8.5 16.5v249h-52v131h52v23q0 87 48.5 125t146.5 38q78 0 127 -15v-118h-47q-32 0 -44 -8.5t-12 -33.5zM382 397h-69v131h69v-131z" />
    <glyph glyph-name="g" unicode="g" 
d="M333 -1h-129q-78 0 -121 28t-43 81q0 66 61 95l78 -27q1 -17 28 -17h194q86 0 125.5 -33t39.5 -106q0 -91 -69 -144t-214 -57v115q93 4 93 40q0 14 -9.5 19.5t-33.5 5.5zM525 362q0 -80 -59 -124t-167 -47v101q34 10 34 69t-34 67v110q37 -1 79 -10h186v-131h-20
q-12 0 -20 -14q0 -3 0.5 -10t0.5 -11zM269 191q-107 0 -168.5 45.5t-61.5 125.5q0 81 60.5 127t169.5 49v-110q-35 -8 -35 -67t35 -69v-101zM2 -72q0 56 69 72l104 -29q-1 -21 15 -28.5t63 -8.5v-115q-251 3 -251 109z" />
    <glyph glyph-name="h" unicode="h" horiz-adv-x="661" 
d="M283 656v-533h58v-123h-326v123h25q7 0 15.5 9t8.5 16v400q0 8 -8 16t-16 8h-28v128h239q32 0 32 -44zM387 0v328q0 28 -14 37.5t-50 9.5h-10v109q69 54 157 54q60 0 98 -29.5t38 -96.5v-264q0 -8 8.5 -16.5t15.5 -8.5h16v-123h-259z" />
    <glyph glyph-name="i" unicode="i" horiz-adv-x="350" 
d="M15 0v123h26q7 0 15.5 8.5t8.5 16.5v224q0 7 -8.5 16t-15.5 9h-29v131h241q31 0 31 -51v-329q0 -8 9 -16.5t16 -8.5h26v-123h-320zM174 555q-45 0 -73 25.5t-28 67.5t28 68.5t73 26.5t73.5 -26t28.5 -69q0 -42 -28.5 -67.5t-73.5 -25.5z" />
    <glyph glyph-name="j" unicode="j" horiz-adv-x="322" 
d="M88 -170q-54 0 -106 14v111h26q33 0 45 10.5t12 37.5v369q0 7 -8.5 16t-15.5 9h-29v131h241q15 0 23 -14.5t8 -36.5v-484q0 -89 -48 -126t-148 -37zM174 555q-45 0 -73 25.5t-28 67.5t28 68.5t73 26.5t73.5 -26t28.5 -69q0 -42 -28.5 -67.5t-73.5 -25.5z" />
    <glyph glyph-name="k" unicode="k" horiz-adv-x="650" 
d="M282 656v-533h44v-123h-312v123h25q7 0 16 8.5t9 16.5v399q0 7 -9 16t-16 9h-27v128h239q31 0 31 -44zM313 192v138l40 33q18 16 16 27.5t-21 11.5h-19v126h304v-131h-12q-16 0 -32 -14l-105 -84l109 -150q19 -26 30 -26h12v-123h-263v120z" />
    <glyph glyph-name="l" unicode="l" horiz-adv-x="355" 
d="M14 0v123h29q7 0 15.5 8.5t8.5 16.5v399q0 8 -8.5 16.5t-15.5 8.5h-31v128h242q32 0 32 -44v-508q0 -8 8.5 -16.5t15.5 -8.5h30v-123h-326z" />
    <glyph glyph-name="m" unicode="m" horiz-adv-x="958" 
d="M322 375h-9v108q64 55 145 55q135 0 135 -127v-288h47v-123h-265v329q0 29 -9.5 37.5t-43.5 8.5zM632 375h-9v108q64 55 145 55q59 0 97 -29.5t38 -96.5v-264q0 -8 8.5 -16.5t16.5 -8.5h16v-123h-260v329q0 29 -9 37.5t-43 8.5zM15 0v123h25q7 0 16 9t9 16v224
q0 8 -8.5 16.5t-16.5 8.5h-28v131h229q42 0 42 -97v-308h59v-123h-327z" />
    <glyph glyph-name="n" unicode="n" horiz-adv-x="662" 
d="M15 0v123h25q7 0 16 9t9 16v224q0 8 -8.5 16.5t-16.5 8.5h-28v131h229q42 0 42 -97v-308h59v-123h-327zM324 375h-11v109q69 54 157 54q60 0 98 -29.5t38 -96.5v-264q0 -8 9 -16.5t16 -8.5h16v-123h-259v328q0 28 -14.5 37.5t-49.5 9.5z" />
    <glyph glyph-name="o" unicode="o" horiz-adv-x="625" 
d="M15 261q0 122 78.5 197t203.5 80v-144q-61 -10 -61 -134q0 -127 61 -138v-131q-126 5 -204 77.5t-78 192.5zM608 261q0 -120 -78 -192.5t-203 -77.5v131q60 12 60 138q0 124 -60 134v144q125 -5 203 -80t78 -197z" />
    <glyph glyph-name="p" unicode="p" horiz-adv-x="648" 
d="M329 381h-16v115q54 42 123 42q86 0 141 -60.5t55 -197.5t-64 -202t-162 -65q-58 0 -93 16v104h16q38 0 59.5 27t21.5 101q0 68 -21.5 94t-59.5 26zM283 431v-478h46v-115h-314v115h25q8 0 16.5 8.5t8.5 15.5v395q0 7 -9 16t-16 9h-28v131h229q42 0 42 -97z" />
    <glyph glyph-name="q" unicode="q" horiz-adv-x="621" 
d="M317 134h21v-100q-45 -21 -109 -21q-43 0 -79 12.5t-67.5 40.5t-49 80t-17.5 123q0 137 61.5 203t153.5 66q71 0 120 -44l-14 -111h-14q-86 0 -86 -121q0 -75 21 -101.5t59 -26.5zM439 528h147v-551q0 -7 8.5 -15.5t16.5 -8.5h26v-115h-315v115h46v423q0 152 71 152z" />
    <glyph glyph-name="r" unicode="r" horiz-adv-x="480" 
d="M436 340q-73 0 -123 -9v136q16 32 47 49.5t66 17.5q14 0 32 -6v-188h-22zM15 0v123h25q7 0 16 9t9 16v224q0 8 -8.5 16.5t-16.5 8.5h-28v131h229q42 0 42 -97v-308h59v-123h-327z" />
    <glyph glyph-name="s" unicode="s" horiz-adv-x="504" 
d="M235 -9h-3v129q50 2 50 32q0 16 -16.5 22.5t-68.5 11.5q-92 10 -137 49.5t-45 124.5q0 88 63.5 132.5t177.5 45.5v-128q-48 -3 -48 -28q0 -14 16 -20.5t63 -12.5q106 -13 152 -47.5t46 -121.5q0 -94 -60 -141.5t-190 -47.5zM131 167q21 -39 71 -47v-129q-106 2 -186 29
v147h115zM351 373q-23 31 -65 37v128q98 -2 179 -27v-138h-114z" />
    <glyph glyph-name="t" unicode="t" horiz-adv-x="399" 
d="M12 397v131h52v137h219v-483q0 -34 13.5 -46.5t49.5 -12.5h38v-119q-56 -15 -127 -15q-94 0 -143.5 34.5t-49.5 121.5v252h-52zM382 397h-69v131h69v-131z" />
    <glyph glyph-name="u" unicode="u" horiz-adv-x="661" 
d="M341 149h9v-107q-66 -51 -153 -51q-60 0 -100 29.5t-40 96.5v255q0 7 -8.5 16t-15.5 9h-21v131h264v-329q0 -29 15 -39.5t50 -10.5zM380 97v300h-53v131h272v-380q0 -7 8.5 -16t15.5 -9h23v-123h-224q-42 0 -42 97z" />
    <glyph glyph-name="v" unicode="v" horiz-adv-x="630" 
d="M215 0l-159 374q-3 8 -12 15.5t-17 7.5h-15v131h307v-131h-49l140 -397h-195zM571 366l-144 -324l-74 210l39 100q17 45 -24 45h-9v131h261v-131h-11q-10 0 -21.5 -9.5t-16.5 -21.5z" />
    <glyph glyph-name="w" unicode="w" horiz-adv-x="908" 
d="M163 0l-111 374q-3 8 -12 15.5t-17 7.5h-11v131h283v-131h-39l108 -397h-201zM541 0l-150 528h181l150 -528h-181zM853 366l-112 -329l-71 249l21 68q14 43 -25 43h-9v131h241v-131h-7q-11 0 -22.5 -9.5t-15.5 -21.5zM319 272l55 214l70 -246l-61 -203z" />
    <glyph glyph-name="x" unicode="x" horiz-adv-x="608" 
d="M316 117l-258 257q-3 2 -8.5 8t-8 8t-7 4.5t-8.5 2.5h-14v131h315v-124h-34l258 -258q21 -23 33 -23h10v-123h-313v117h35zM465 274l-90 89q14 17 10.5 29t-20.5 12h-6v124h232v-131h-6q-16 0 -38 -26zM142 248l90 -88q-14 -20 -9.5 -31.5t20.5 -11.5h6v-117h-234v123h6
q14 0 40 26z" />
    <glyph glyph-name="y" unicode="y" horiz-adv-x="631" 
d="M321 277l-117 -235l-149 332q-4 9 -12.5 16t-16.5 7h-14v131h305v-131h-44zM258 81l132 271q8 17 2 31t-25 14h-9v131h252v-131h-15q-8 0 -19 -9.5t-16 -21.5l-136 -286q-45 -93 -87.5 -148t-92.5 -94h-165v109q72 19 111.5 48t67.5 86z" />
    <glyph glyph-name="z" unicode="z" horiz-adv-x="537" 
d="M17 0v139l389 389h113v-143l-386 -385h-116zM518 0h-342l134 135h69l15 59h124v-194zM27 329v199h337l-140 -139h-60l-19 -60h-118z" />
    <glyph glyph-name="braceleft" unicode="{" horiz-adv-x="357" 
d="M247 -49q-78 0 -118 36.5t-40 104.5v140q0 23 -14 39t-42 16h-17v128h17q28 0 42 16t14 39v133q0 65 40.5 101.5t119.5 36.5h92v-128h-41q-8 0 -17.5 -10t-9.5 -18v-121q0 -86 -104 -111v-3q104 -25 104 -111v-136q0 -8 9.5 -18.5t17.5 -10.5h41v-123h-94z" />
    <glyph glyph-name="bar" unicode="|" horiz-adv-x="186" 
d="M28 -49v790h130v-790h-130z" />
    <glyph glyph-name="braceright" unicode="}" horiz-adv-x="357" 
d="M16 -49v123h41q9 0 18.5 10.5t9.5 18.5v132q0 85 103 110v3q-103 25 -103 111v126q0 8 -9.5 18t-18.5 10h-41v128h95q78 0 118 -36.5t40 -104.5v-134q0 -23 14 -39t42 -16h16v-127h-16q-28 0 -42 -16t-14 -39v-140q0 -65 -41 -101.5t-120 -36.5h-92z" />
    <glyph glyph-name="asciitilde" unicode="~" horiz-adv-x="382" 
d="M16 208v94q14 33 40 54t62 21q27 0 70 -11t54 -11q24 0 35 26h89v-98q-13 -32 -39.5 -52t-62.5 -20q-27 0 -69.5 11.5t-53.5 11.5q-24 0 -35 -26h-90z" />
    <glyph glyph-name="exclamdown" unicode="&#xa1;" horiz-adv-x="264" 
d="M129 449q-41 0 -70.5 28.5t-29.5 69.5q0 40 29.5 68t70.5 28q43 0 73 -27.5t30 -68.5t-30 -69.5t-73 -28.5zM20 -64v127l58 354h104l59 -354v-127h-221z" />
    <glyph glyph-name="cent" unicode="&#xa2;" horiz-adv-x="532" 
d="M235 -79v76q-220 34 -220 265q0 110 57.5 179.5t162.5 89.5v75h93v-207h-8q-82 0 -82 -139q0 -74 20 -106.5t65 -32.5h5v-200h-93zM388 352q-13 30 -30 40v145q89 -4 146 -26v-159h-116zM505 41q-60 -40 -147 -48v131q30 8 52 41h95v-124z" />
    <glyph glyph-name="sterling" unicode="&#xa3;" horiz-adv-x="562" 
d="M405 286h-127q0 -115 -39 -183t-125 -103h-97v123q84 24 84 106q0 29 -7 57h-74v121h38q-17 58 -17 100q0 99 72.5 151.5t210.5 52.5v-164q-51 -8 -55 -67q-1 -13 3 -73h133v-121zM219 31q57 52 77 135q45 -7 98 -7l15 58h137v-217h-53q-171 0 -274 31zM421 492
q-22 48 -67 55v164q88 -5 182 -36v-183h-115z" />
    <glyph glyph-name="yen" unicode="&#xa5;" horiz-adv-x="658" 
d="M422 312h-371v87h102l-95 152q-13 21 -29 21h-12v128h316v-128h-49zM51 281h555v-87h-161v-42q0 -8 9.5 -18.5t18.5 -10.5h34v-123h-357v123h34q9 0 18 10t9 19v42h-160v87zM456 312l-78 149l28 52q14 29 6.5 44t-34.5 15h-12v128h276v-128h-11q-21 0 -38 -29l-89 -144
h102v-87h-150z" />
    <glyph glyph-name="brokenbar" unicode="&#xa6;" horiz-adv-x="186" 
d="M28 -49v357h131l-1 -357h-130zM28 387v354h130l1 -354h-131z" />
    <glyph glyph-name="section" unicode="&#xa7;" horiz-adv-x="586" 
d="M517 59q0 -89 -57 -139.5t-175 -54.5v125q44 4 44 40q0 20 -18 31t-78 27q-117 30 -166 68t-49 116q0 79 61 121l96 -56v-13q0 -24 20 -37t87 -30q122 -31 178.5 -73t56.5 -125zM290 333q-119 27 -169.5 66.5t-50.5 123.5t59.5 134.5t162.5 53.5v-123q-43 -3 -43 -35
q0 -19 15.5 -29t64.5 -22q53 -13 84.5 -22.5t65 -25t51 -33.5t28.5 -45t11 -63q0 -81 -63 -123l-104 61v8q0 27 -23 43t-89 31zM192 44q18 -48 63 -54v-125q-93 2 -189 34v145h126zM376 544q-18 39 -54 44v123q105 -1 179 -29v-138h-125z" />
    <glyph glyph-name="dieresis" unicode="&#xa8;" horiz-adv-x="416" 
d="M311 559q-41 0 -66.5 24t-25.5 63t25.5 62.5t66.5 23.5t66.5 -23.5t25.5 -62.5t-25.5 -63t-66.5 -24zM103 559q-41 0 -66.5 24t-25.5 63t25.5 62.5t66.5 23.5t66.5 -23.5t25.5 -62.5t-25.5 -63t-66.5 -24z" />
    <glyph glyph-name="copyright" unicode="&#xa9;" horiz-adv-x="775" 
d="M344 350q0 -95 46 -108v-98q-101 1 -153.5 52t-52.5 148q0 99 53.5 154t135.5 55q25 0 40 -4v-92q-69 -3 -69 -107zM30 350q0 162 98.5 257t244.5 101v-39q-130 -5 -213 -90t-83 -229t83.5 -229t212.5 -90v-39q-146 6 -244.5 101t-98.5 257zM745 350q0 -162 -98.5 -257
t-243.5 -101v39q129 5 212 90t83 229t-82.5 229t-212.5 90v39q145 -6 243.5 -101t98.5 -257zM457 403l-14 54v90h107v-144h-93zM551 184q-54 -34 -131 -40v98q32 4 57 36h74v-94z" />
    <glyph glyph-name="ordfeminine" unicode="&#xaa;" horiz-adv-x="502" 
d="M380 253q-114 0 -114 109v179q0 43 -58 43q-50 0 -85 -31h-78v126q85 30 208 30q105 0 152 -35.5t47 -113.5v-174q0 -6 7 -13t14 -7h13v-89q-43 -24 -106 -24zM234 356l16 -75q-37 -26 -98 -26q-59 0 -98 32.5t-39 93.5q0 70 45.5 103.5t125.5 33.5q20 0 50 -2v-72h-3
q-43 0 -43 -46q0 -42 39 -42h5z" />
    <glyph glyph-name="guillemotleft" unicode="&#xab;" horiz-adv-x="527" 
d="M167 40l-142 181v77l142 182h108v-51l-87 -166v-3l87 -167v-53h-108zM394 40l-142 181v77l142 182h108v-51l-87 -166v-3l87 -167v-53h-108z" />
    <glyph glyph-name="registered" unicode="&#xae;" horiz-adv-x="493" 
d="M136 378v41h10q2 0 5 3t3 7v116q0 3 -3 6t-5 3h-10v43h96v-178h21v-41h-117zM285 378l-8 60q-2 14 -6 18t-13 4v43q19 0 19 25q0 23 -19 23v46q97 1 97 -63q0 -36 -45 -49v-1q33 -6 42 -41l5 -17q1 -7 8 -7h6v-41h-86zM20 484q0 99 61 158.5t151 64.5v-41
q-72 -5 -117.5 -52.5t-45.5 -129.5t45.5 -130t117.5 -53v-41q-90 5 -151 65.5t-61 158.5zM473 484q0 -97 -61.5 -157.5t-149.5 -66.5v41q71 5 116.5 53t45.5 130t-45.5 129.5t-116.5 52.5v41q89 -5 150 -64.5t61 -158.5z" />
    <glyph glyph-name="macron" unicode="&#xaf;" horiz-adv-x="416" 
d="M65 579v120h286v-120h-286z" />
    <glyph glyph-name="degree" unicode="&#xb0;" horiz-adv-x="361" 
d="M22 558q0 61 41 101.5t101 45.5v-72q-27 -5 -42.5 -25t-15.5 -50q0 -31 15.5 -51.5t42.5 -25.5v-72q-60 5 -101 46t-41 103zM336 558q0 -62 -41 -103t-101 -46v72q27 5 42.5 25.5t15.5 51.5q0 30 -15.5 50t-42.5 25v72q59 -5 100.5 -45.5t41.5 -101.5z" />
    <glyph glyph-name="twosuperior" unicode="&#xb2;" horiz-adv-x="361" 
d="M254 463q-9 -5 -33 -16.5t-33 -16.5h-154q19 37 71 72l17 11l16.5 10.5t13.5 9.5t12 10t8.5 9t6.5 10t2 10q0 24 -24 28v107h17q78 0 124 -30.5t46 -88.5q0 -48 -23.5 -74.5t-66.5 -50.5zM17 303v52q0 27 6 49h213l7 24h93v-125h-319zM20 686q51 16 110 20v-107
q-22 -7 -32 -28h-78v115z" />
    <glyph glyph-name="threesuperior" unicode="&#xb3;" horiz-adv-x="362" 
d="M345 413q0 -56 -48 -87t-139 -31v94q26 6 26 35q0 33 -47 33h-38v84h38q46 0 46 32q0 25 -25 30v104h14q77 0 121 -26.5t44 -79.5q0 -77 -84 -95v-3q92 -11 92 -90zM94 419q14 -24 37 -30v-94q-69 4 -116 22v102h79zM24 685q49 17 107 21v-103q-20 -5 -32 -23h-75v105z
" />
    <glyph glyph-name="acute" unicode="&#xb4;" horiz-adv-x="416" 
d="M135 563l24 143h199v-56l-100 -87h-123z" />
    <glyph glyph-name="paragraph" unicode="&#xb6;" horiz-adv-x="579" 
d="M231 -91v388q-214 17 -214 201q0 202 254 202h70v-791h-110zM506 -91h-110v791h167v-128h-29q-9 0 -18.5 -10t-9.5 -18v-635z" />
    <glyph glyph-name="periodcentered" unicode="&#xb7;" horiz-adv-x="251" 
d="M126 197q-43 0 -72.5 28t-29.5 68q0 41 29.5 69.5t72.5 28.5q42 0 71.5 -28.5t29.5 -69.5q0 -40 -29.5 -68t-71.5 -28z" />
    <glyph glyph-name="cedilla" unicode="&#xb8;" horiz-adv-x="416" 
d="M205 -185q-51 0 -91 17v58h48q9 -12 26 -12q20 0 20 16t-27 16h-25v55h71q51 0 72 -18.5t21 -54.5t-30 -56.5t-85 -20.5z" />
    <glyph glyph-name="onesuperior" unicode="&#xb9;" horiz-adv-x="307" 
d="M21 303v83h39q4 0 10 5.5t6 9.5v177l-33 -23h-28v97l107 48h118v-299q0 -4 6 -9.5t10 -5.5h35v-83h-270z" />
    <glyph glyph-name="ordmasculine" unicode="&#xba;" horiz-adv-x="528" 
d="M16 479q0 101 65 164t169 66v-122q-46 -8 -46 -109q0 -104 46 -112v-112q-104 2 -169 63.5t-65 161.5zM513 479q0 -100 -64.5 -161.5t-168.5 -63.5v112q45 8 45 112q0 101 -45 109v122q104 -3 168.5 -66t64.5 -164z" />
    <glyph glyph-name="guillemotright" unicode="&#xbb;" horiz-adv-x="527" 
d="M25 40v51l87 166v3l-87 167v53h108l142 -181v-77l-142 -182h-108zM252 40v51l87 166v3l-87 167v53h109l141 -181v-77l-141 -182h-109z" />
    <glyph glyph-name="onequarter" unicode="&#xbc;" horiz-adv-x="828" 
d="M570 0v83h28q4 0 10 5.5t6 9.5v299h155v-203h40v-82h-40v-14q0 -4 5.5 -9.5t9.5 -5.5h25v-83h-239zM538 196v-2h48v-82h-140v94l140 166v-118zM24 303v83h39q4 0 10 5.5t6 9.5v177l-33 -23h-28v97l107 48h118v-299q0 -4 6 -9.5t10 -5.5h35v-83h-270zM125 -34l494 763h98
l-494 -763h-98z" />
    <glyph glyph-name="onehalf" unicode="&#xbd;" horiz-adv-x="868" 
d="M758 160q-9 -5 -33 -16.5t-33 -16.5h-154q19 37 71 72l17 11l16.5 10.5t13.5 9.5t12 10t8.5 9t6.5 10t2 10q0 23 -24 28v107h17q78 0 124 -30.5t46 -88.5q0 -48 -23.5 -74.5t-66.5 -50.5zM521 0v52q0 26 6 49h213l7 24h93v-125h-319zM524 383q51 16 110 20v-107
q-22 -7 -32 -28h-78v115zM24 303v83h39q4 0 10 5.5t6 9.5v177l-33 -23h-28v97l107 48h118v-299q0 -4 6 -9.5t10 -5.5h35v-83h-270zM122 -34l494 763h98l-494 -763h-98z" />
    <glyph glyph-name="threequarters" unicode="&#xbe;" horiz-adv-x="835" 
d="M348 413q0 -56 -48 -87t-139 -31v94q26 6 26 35q0 33 -47 33h-38v84h38q46 0 46 32q0 25 -25 30v104h14q77 0 121 -26.5t44 -79.5q0 -77 -84 -95v-3q92 -11 92 -90zM97 419q14 -24 37 -30v-94q-69 4 -116 22v102h79zM27 685q49 17 107 21v-103q-20 -5 -32 -23h-75v105z
M577 0v83h28q4 0 10 5.5t6 9.5v299h155v-203h40v-82h-40v-14q0 -4 5.5 -9.5t9.5 -5.5h25v-83h-239zM545 196v-2h48v-82h-140v94l140 166v-118zM138 -34l494 763h98l-494 -763h-98z" />
    <glyph glyph-name="questiondown" unicode="&#xbf;" horiz-adv-x="488" 
d="M360 417q13 -61 -1 -104t-53 -83l-16 -16.5t-19.5 -21.5l-14 -19t-13 -24t-3.5 -23q0 -45 35 -52v-149q-258 1 -258 194q0 46 19 82t41.5 55t61.5 44q36 24 51 35.5t28 33t11 48.5h131zM288 643q43 0 72.5 -28t29.5 -68q0 -41 -29.5 -69.5t-72.5 -28.5q-42 0 -71.5 28.5
t-29.5 69.5q0 40 29.5 68t71.5 28zM469 -40q-81 -31 -164 -35v149q32 8 45 50h119v-164z" />
    <glyph glyph-name="Agrave" unicode="&#xc0;" horiz-adv-x="768" 
d="M474 123l-166 577h223l175 -554q3 -8 12.5 -15.5t17.5 -7.5h16v-123h-356v123h78zM281 214l35 106h70l30 -106h-135zM340 479l-89 -261q-17 -49 -8.5 -72t44.5 -23h26v-123h-297v123h13q26 0 38 31l138 391q3 9 -3 18t-15 9h-33v128h122zM311 734l-100 87v56h199l24 -143
h-123z" />
    <glyph glyph-name="Aacute" unicode="&#xc1;" horiz-adv-x="768" 
d="M474 123l-166 577h223l175 -554q3 -8 12.5 -15.5t17.5 -7.5h16v-123h-356v123h78zM281 214l35 106h70l30 -106h-135zM340 479l-89 -261q-17 -49 -8.5 -72t44.5 -23h26v-123h-297v123h13q26 0 38 31l138 391q3 9 -3 18t-15 9h-33v128h122zM289 734l24 143h199v-56
l-100 -87h-123z" />
    <glyph glyph-name="Acircumflex" unicode="&#xc2;" horiz-adv-x="768" 
d="M474 123l-166 577h223l175 -554q3 -8 12.5 -15.5t17.5 -7.5h16v-123h-356v123h78zM281 214l35 106h70l30 -106h-135zM340 479l-89 -261q-17 -49 -8.5 -72t44.5 -23h26v-123h-297v123h13q26 0 38 31l138 391q3 9 -3 18t-15 9h-33v128h122zM211 734v40l72 103h159l70 -103
v-40h-94l-62 44l-61 -44h-84z" />
    <glyph glyph-name="Atilde" unicode="&#xc3;" horiz-adv-x="768" 
d="M474 123l-166 577h223l175 -554q3 -8 12.5 -15.5t17.5 -7.5h16v-123h-356v123h78zM281 214l35 106h70l30 -106h-135zM340 479l-89 -261q-17 -49 -8.5 -72t44.5 -23h26v-123h-297v123h13q26 0 38 31l138 391q3 9 -3 18t-15 9h-33v128h122zM194 735v84q28 61 103 61
q23 0 62.5 -10t51.5 -10q24 0 34 24h85v-86q-29 -61 -103 -61q-23 0 -62.5 11t-51.5 11q-24 0 -33 -24h-86z" />
    <glyph glyph-name="Adieresis" unicode="&#xc4;" horiz-adv-x="768" 
d="M474 123l-166 577h223l175 -554q3 -8 12.5 -15.5t17.5 -7.5h16v-123h-356v123h78zM281 214l35 106h70l30 -106h-135zM340 479l-89 -261q-17 -49 -8.5 -72t44.5 -23h26v-123h-297v123h13q26 0 38 31l138 391q3 9 -3 18t-15 9h-33v128h122zM465 730q-41 0 -66.5 24
t-25.5 63t25.5 62.5t66.5 23.5t66.5 -23.5t25.5 -62.5t-25.5 -63t-66.5 -24zM257 730q-41 0 -66.5 24t-25.5 63t25.5 62.5t66.5 23.5t66.5 -23.5t25.5 -62.5t-25.5 -63t-66.5 -24z" />
    <glyph glyph-name="Aring" unicode="&#xc5;" horiz-adv-x="768" 
d="M474 123l-166 577h223l175 -554q3 -8 12.5 -15.5t17.5 -7.5h16v-123h-356v123h78zM281 214l35 106h70l30 -106h-135zM340 479l-89 -261q-17 -49 -8.5 -72t44.5 -23h26v-123h-297v123h13q26 0 38 31l138 391q3 9 -3 18t-15 9h-33v128h122zM252 838q0 42 28.5 70.5
t68.5 31.5v-62q-28 -7 -28 -40q0 -35 28 -40v-63q-40 3 -68.5 32t-28.5 71zM471 838q0 -42 -28 -71t-68 -32v63q27 5 27 40q0 33 -27 40v62q39 -3 67.5 -31.5t28.5 -70.5z" />
    <glyph glyph-name="AE" unicode="&#xc6;" horiz-adv-x="1022" 
d="M454 123v577h234v-700h-288v123h54zM229 572v128h195v-184l-157 -302q-23 -44 -14.5 -67.5t45.5 -23.5h21v-123h-303v123h18q24 0 40 31l206 391q5 8 -0.5 17.5t-15.5 9.5h-35zM299 214l54 106h71v-106h-125zM1002 0h-284v134h124l19 106h141v-240zM838 562h-120v138h275
v-227h-135zM849 286h-131v142h131v-142z" />
    <glyph glyph-name="Ccedilla" unicode="&#xc7;" horiz-adv-x="659" 
d="M377 -11q-175 0 -267 90.5t-92 263.5q0 177 90.5 271t253.5 94q45 0 74 -8v-145h-25q-70 0 -106 -46t-36 -156q0 -102 26.5 -153.5t86.5 -57.5v-153h-5zM489 450l-23 105v145h172v-250h-149zM641 61q-93 -63 -229 -72v153q72 7 113 70h116v-151zM369 -185q-51 0 -91 17
v58h48q9 -12 26 -12q20 0 20 16t-27 16h-25v55h71q51 0 72 -18.5t21 -54.5t-30 -56.5t-85 -20.5z" />
    <glyph glyph-name="Egrave" unicode="&#xc8;" horiz-adv-x="642" 
d="M17 0v123h29q9 0 18.5 10.5t9.5 18.5v392q0 8 -9.5 18t-18.5 10h-29v128h291v-700h-291zM622 0h-284v134h124l19 106h141v-240zM458 562h-120v138h275v-227h-135zM469 286h-131v142h131v-142zM273 734l-100 87v56h199l24 -143h-123z" />
    <glyph glyph-name="Eacute" unicode="&#xc9;" horiz-adv-x="642" 
d="M259 734l24 143h199v-56l-100 -87h-123zM17 0v123h29q9 0 18.5 10.5t9.5 18.5v392q0 8 -9.5 18t-18.5 10h-29v128h291v-700h-291zM622 0h-284v134h124l19 106h141v-240zM458 562h-120v138h275v-227h-135zM469 286h-131v142h131v-142z" />
    <glyph glyph-name="Ecircumflex" unicode="&#xca;" horiz-adv-x="642" 
d="M173 734v40l72 103h159l70 -103v-40h-94l-62 44l-61 -44h-84zM17 0v123h29q9 0 18.5 10.5t9.5 18.5v392q0 8 -9.5 18t-18.5 10h-29v128h291v-700h-291zM622 0h-284v134h124l19 106h141v-240zM458 562h-120v138h275v-227h-135zM469 286h-131v142h131v-142z" />
    <glyph glyph-name="Edieresis" unicode="&#xcb;" horiz-adv-x="642" 
d="M427 730q-41 0 -66.5 24t-25.5 63t25.5 62.5t66.5 23.5t66.5 -23.5t25.5 -62.5t-25.5 -63t-66.5 -24zM219 730q-41 0 -66.5 24t-25.5 63t25.5 62.5t66.5 23.5t66.5 -23.5t25.5 -62.5t-25.5 -63t-66.5 -24zM17 0v123h29q9 0 18.5 10.5t9.5 18.5v392q0 8 -9.5 18t-18.5 10
h-29v128h291v-700h-291zM622 0h-284v134h124l19 106h141v-240zM458 562h-120v138h275v-227h-135zM469 286h-131v142h131v-142z" />
    <glyph glyph-name="Igrave" unicode="&#xcc;" horiz-adv-x="391" 
d="M17 0v123h34q9 0 18.5 10.5t9.5 18.5v392q0 8 -9.5 18t-18.5 10h-34v128h358v-128h-35q-8 0 -17.5 -10t-9.5 -18v-392q0 -8 9.5 -18.5t17.5 -10.5h35v-123h-358zM145 734l-100 87v56h199l24 -143h-123z" />
    <glyph glyph-name="Iacute" unicode="&#xcd;" horiz-adv-x="391" 
d="M17 0v123h34q9 0 18.5 10.5t9.5 18.5v392q0 8 -9.5 18t-18.5 10h-34v128h358v-128h-35q-8 0 -17.5 -10t-9.5 -18v-392q0 -8 9.5 -18.5t17.5 -10.5h35v-123h-358zM123 734l24 143h199v-56l-100 -87h-123z" />
    <glyph glyph-name="Icircumflex" unicode="&#xce;" horiz-adv-x="391" 
d="M17 0v123h34q9 0 18.5 10.5t9.5 18.5v392q0 8 -9.5 18t-18.5 10h-34v128h358v-128h-35q-8 0 -17.5 -10t-9.5 -18v-392q0 -8 9.5 -18.5t17.5 -10.5h35v-123h-358zM45 734v40l72 103h159l70 -103v-40h-94l-62 44l-61 -44h-84z" />
    <glyph glyph-name="Idieresis" unicode="&#xcf;" horiz-adv-x="391" 
d="M17 0v123h34q9 0 18.5 10.5t9.5 18.5v392q0 8 -9.5 18t-18.5 10h-34v128h358v-128h-35q-8 0 -17.5 -10t-9.5 -18v-392q0 -8 9.5 -18.5t17.5 -10.5h35v-123h-358zM299 730q-41 0 -66.5 24t-25.5 63t25.5 62.5t66.5 23.5t66.5 -23.5t25.5 -62.5t-25.5 -63t-66.5 -24z
M91 730q-41 0 -66.5 24t-25.5 63t25.5 62.5t66.5 23.5t66.5 -23.5t25.5 -62.5t-25.5 -63t-66.5 -24z" />
    <glyph glyph-name="Eth" unicode="&#xd0;" horiz-adv-x="748" 
d="M17 288v122h57v134q0 8 -9.5 18t-18.5 10h-29v128h291v-290h95v-122h-95v-288h-291v123h29q9 0 18.5 10.5t9.5 18.5v136h-57zM730 355q0 -355 -392 -355v129h3q149 0 149 217q0 111 -37 164t-112 53h-3v137h6q198 0 292 -84t94 -261z" />
    <glyph glyph-name="Ntilde" unicode="&#xd1;" horiz-adv-x="748" 
d="M17 0v123h29q9 0 18.5 10.5t9.5 18.5v392q0 8 -9.5 18t-18.5 10h-29v128h224v-577h64v-123h-288zM475 0l-204 350v350h27l380 -640v-60h-203zM678 544v-424l-168 286v166h-61v128h282v-128h-26q-8 0 -17.5 -10t-9.5 -18zM215 735v84q28 61 103 61q23 0 62.5 -10t51.5 -10
q24 0 34 24h85v-86q-29 -61 -103 -61q-23 0 -62.5 11t-51.5 11q-24 0 -33 -24h-86z" />
    <glyph glyph-name="Ograve" unicode="&#xd2;" horiz-adv-x="760" 
d="M742 350q0 -165 -97 -260.5t-250 -100.5v148q50 7 78.5 60t28.5 149q0 95 -28.5 147t-78.5 59v159q151 -5 249 -101t98 -260zM18 350q0 164 98 260t249 101v-159q-50 -7 -78.5 -58.5t-28.5 -147.5t28.5 -149t78.5 -60v-148q-153 5 -250 100t-97 261zM328 736l-100 87v56
h199l24 -143h-123z" />
    <glyph glyph-name="Oacute" unicode="&#xd3;" horiz-adv-x="760" 
d="M305 736l24 143h199v-56l-100 -87h-123zM742 350q0 -165 -97 -260.5t-250 -100.5v148q50 7 78.5 60t28.5 149q0 95 -28.5 147t-78.5 59v159q151 -5 249 -101t98 -260zM18 350q0 164 98 260t249 101v-159q-50 -7 -78.5 -58.5t-28.5 -147.5t28.5 -149t78.5 -60v-148
q-153 5 -250 100t-97 261z" />
    <glyph glyph-name="Ocircumflex" unicode="&#xd4;" horiz-adv-x="760" 
d="M227 736v40l72 103h159l70 -103v-40h-94l-62 44l-61 -44h-84zM742 350q0 -165 -97 -260.5t-250 -100.5v148q50 7 78.5 60t28.5 149q0 95 -28.5 147t-78.5 59v159q151 -5 249 -101t98 -260zM18 350q0 164 98 260t249 101v-159q-50 -7 -78.5 -58.5t-28.5 -147.5t28.5 -149
t78.5 -60v-148q-153 5 -250 100t-97 261z" />
    <glyph glyph-name="Otilde" unicode="&#xd5;" horiz-adv-x="760" 
d="M742 350q0 -165 -97 -260.5t-250 -100.5v148q50 7 78.5 60t28.5 149q0 95 -28.5 147t-78.5 59v159q151 -5 249 -101t98 -260zM18 350q0 164 98 260t249 101v-159q-50 -7 -78.5 -58.5t-28.5 -147.5t28.5 -149t78.5 -60v-148q-153 5 -250 100t-97 261zM212 737v84
q28 61 103 61q23 0 62.5 -10t51.5 -10q24 0 34 24h85v-86q-29 -61 -103 -61q-23 0 -62.5 11t-51.5 11q-24 0 -33 -24h-86z" />
    <glyph glyph-name="Odieresis" unicode="&#xd6;" horiz-adv-x="760" 
d="M484 732q-41 0 -66.5 24t-25.5 63t25.5 62.5t66.5 23.5t66.5 -23.5t25.5 -62.5t-25.5 -63t-66.5 -24zM276 732q-41 0 -66.5 24t-25.5 63t25.5 62.5t66.5 23.5t66.5 -23.5t25.5 -62.5t-25.5 -63t-66.5 -24zM742 350q0 -165 -97 -260.5t-250 -100.5v148q50 7 78.5 60
t28.5 149q0 95 -28.5 147t-78.5 59v159q151 -5 249 -101t98 -260zM18 350q0 164 98 260t249 101v-159q-50 -7 -78.5 -58.5t-28.5 -147.5t28.5 -149t78.5 -60v-148q-153 5 -250 100t-97 261z" />
    <glyph glyph-name="multiply" unicode="&#xd7;" horiz-adv-x="544" 
d="M136 585l382 -376l-107 -109l-384 377zM135 100l-109 108l115 115l110 -109zM518 476l-115 -114l-110 109l117 114z" />
    <glyph glyph-name="Oslash" unicode="&#xd8;" horiz-adv-x="761" 
d="M255 346q0 -50 7 -84l80 98l61 -49l-108 -134q26 -35 70 -41v-147q-103 3 -183 49l-54 -67h-102l93 114q-101 98 -101 265q0 164 98 260t249 101v-159q-51 -6 -80.5 -57.5t-29.5 -148.5zM742 350q0 -165 -97 -260.5t-250 -100.5v148q50 6 80 59t30 150q0 50 -7 82
l-76 -94l-62 49l104 129q-28 34 -69 40v159q105 -5 187 -53l51 63h102l-91 -112q98 -98 98 -259z" />
    <glyph glyph-name="Ugrave" unicode="&#xd9;" horiz-adv-x="742" 
d="M304 243q0 -53 20 -78t64 -28v-145q-163 1 -240.5 65t-77.5 198v289q0 8 -9.5 18t-18.5 10h-25v128h356v-128h-69v-329zM673 255q0 -124 -65 -190.5t-190 -72.5v145q79 7 79 106v329h-69v128h297v-128h-25q-8 0 -17.5 -10t-9.5 -18v-289zM349 734l-100 87v56h199l24 -143
h-123z" />
    <glyph glyph-name="Uacute" unicode="&#xda;" horiz-adv-x="742" 
d="M327 734l24 143h199v-56l-100 -87h-123zM304 243q0 -53 20 -78t64 -28v-145q-163 1 -240.5 65t-77.5 198v289q0 8 -9.5 18t-18.5 10h-25v128h356v-128h-69v-329zM673 255q0 -124 -65 -190.5t-190 -72.5v145q79 7 79 106v329h-69v128h297v-128h-25q-8 0 -17.5 -10
t-9.5 -18v-289z" />
    <glyph glyph-name="Ucircumflex" unicode="&#xdb;" horiz-adv-x="742" 
d="M249 734v40l72 103h159l70 -103v-40h-94l-62 44l-61 -44h-84zM304 243q0 -53 20 -78t64 -28v-145q-163 1 -240.5 65t-77.5 198v289q0 8 -9.5 18t-18.5 10h-25v128h356v-128h-69v-329zM673 255q0 -124 -65 -190.5t-190 -72.5v145q79 7 79 106v329h-69v128h297v-128h-25
q-8 0 -17.5 -10t-9.5 -18v-289z" />
    <glyph glyph-name="Udieresis" unicode="&#xdc;" horiz-adv-x="742" 
d="M505 730q-41 0 -66.5 24t-25.5 63t25.5 62.5t66.5 23.5t66.5 -23.5t25.5 -62.5t-25.5 -63t-66.5 -24zM297 730q-41 0 -66.5 24t-25.5 63t25.5 62.5t66.5 23.5t66.5 -23.5t25.5 -62.5t-25.5 -63t-66.5 -24zM304 243q0 -53 20 -78t64 -28v-145q-163 1 -240.5 65t-77.5 198
v289q0 8 -9.5 18t-18.5 10h-25v128h356v-128h-69v-329zM673 255q0 -124 -65 -190.5t-190 -72.5v145q79 7 79 106v329h-69v128h297v-128h-25q-8 0 -17.5 -10t-9.5 -18v-289z" />
    <glyph glyph-name="Yacute" unicode="&#xdd;" horiz-adv-x="709" 
d="M488 299l-83 138l43 74q17 28 9 44.5t-41 16.5h-16v128h292v-128h-10q-20 0 -39 -29zM292 572l180 -304v-116q0 -8 9.5 -18.5t18.5 -10.5h34v-123h-357v123h34q9 0 18 10t9 19v113l-176 286q-13 21 -29 21h-16v128h336v-128h-61zM303 734l24 143h199v-56l-100 -87h-123z
" />
    <glyph glyph-name="Thorn" unicode="&#xde;" horiz-adv-x="675" 
d="M17 0v123h29q9 0 18.5 10.5t9.5 18.5v392q0 8 -9.5 18t-18.5 10h-29v128h351v-128h-60v-449h63v-123h-354zM351 420h-13v116h56q134 0 199 -40.5t65 -140.5q0 -103 -70.5 -148t-203.5 -45h-46v109h13q72 0 72 76q0 73 -72 73z" />
    <glyph glyph-name="germandbls" unicode="&#xdf;" horiz-adv-x="716" 
d="M64 528q3 75 74.5 126t198.5 57v-136q-54 -14 -54 -84v-491h-268v123h25q7 0 15.5 8.5t8.5 16.5v249h-52v131h52zM481 -8v123q25 5 25 30q0 16 -15 25.5t-56 24.5l-9 3q-56 20 -82.5 51t-26.5 83q0 35 14.5 60.5t47.5 61.5q23 27 32 42t9 34q0 41 -53 46v135
q131 0 202.5 -38.5t71.5 -114.5q0 -37 -19.5 -62t-57.5 -53q-57 -40 -57 -57q0 -13 11 -20.5t44 -21.5q73 -29 106 -65t33 -109q0 -83 -57.5 -130.5t-162.5 -47.5zM417 150q8 -29 34 -35v-122q-76 1 -139 26v131h105z" />
    <glyph glyph-name="agrave" unicode="&#xe0;" horiz-adv-x="589" 
d="M315 126v208q0 28 -16.5 41t-54.5 13q-59 0 -103 -36h-91v149q104 37 247 37q124 0 180.5 -43t56.5 -136v-211q0 -8 8.5 -16.5t15.5 -8.5h17v-104q-51 -28 -125 -28q-61 0 -98 29t-37 106zM267 116q11 0 16 1l18 -89q-47 -35 -123 -35q-70 0 -117 39t-47 112
q0 84 54 124.5t151 40.5q36 0 66 -3v-91q-4 1 -12 1q-27 0 -40.5 -12t-13.5 -40q0 -48 48 -48zM232 563l-100 87v56h199l24 -143h-123z" />
    <glyph glyph-name="aacute" unicode="&#xe1;" horiz-adv-x="589" 
d="M315 126v208q0 28 -16.5 41t-54.5 13q-59 0 -103 -36h-91v149q104 37 247 37q124 0 180.5 -43t56.5 -136v-211q0 -8 8.5 -16.5t15.5 -8.5h17v-104q-51 -28 -125 -28q-61 0 -98 29t-37 106zM267 116q11 0 16 1l18 -89q-47 -35 -123 -35q-70 0 -117 39t-47 112
q0 84 54 124.5t151 40.5q36 0 66 -3v-91q-4 1 -12 1q-27 0 -40.5 -12t-13.5 -40q0 -48 48 -48zM210 563l24 143h199v-56l-100 -87h-123z" />
    <glyph glyph-name="acircumflex" unicode="&#xe2;" horiz-adv-x="589" 
d="M315 126v208q0 28 -16.5 41t-54.5 13q-59 0 -103 -36h-91v149q104 37 247 37q124 0 180.5 -43t56.5 -136v-211q0 -8 8.5 -16.5t15.5 -8.5h17v-104q-51 -28 -125 -28q-61 0 -98 29t-37 106zM267 116q11 0 16 1l18 -89q-47 -35 -123 -35q-70 0 -117 39t-47 112
q0 84 54 124.5t151 40.5q36 0 66 -3v-91q-4 1 -12 1q-27 0 -40.5 -12t-13.5 -40q0 -48 48 -48zM132 563v40l72 103h159l70 -103v-40h-94l-62 44l-61 -44h-84z" />
    <glyph glyph-name="atilde" unicode="&#xe3;" horiz-adv-x="589" 
d="M315 126v208q0 28 -16.5 41t-54.5 13q-59 0 -103 -36h-91v149q104 37 247 37q124 0 180.5 -43t56.5 -136v-211q0 -8 8.5 -16.5t15.5 -8.5h17v-104q-51 -28 -125 -28q-61 0 -98 29t-37 106zM267 116q11 0 16 1l18 -89q-47 -35 -123 -35q-70 0 -117 39t-47 112
q0 84 54 124.5t151 40.5q36 0 66 -3v-91q-4 1 -12 1q-27 0 -40.5 -12t-13.5 -40q0 -48 48 -48zM113 564v84q28 61 103 61q23 0 62.5 -10t51.5 -10q24 0 34 24h85v-86q-29 -61 -103 -61q-23 0 -62.5 11t-51.5 11q-24 0 -33 -24h-86z" />
    <glyph glyph-name="adieresis" unicode="&#xe4;" horiz-adv-x="589" 
d="M315 126v208q0 28 -16.5 41t-54.5 13q-59 0 -103 -36h-91v149q104 37 247 37q124 0 180.5 -43t56.5 -136v-211q0 -8 8.5 -16.5t15.5 -8.5h17v-104q-51 -28 -125 -28q-61 0 -98 29t-37 106zM267 116q11 0 16 1l18 -89q-47 -35 -123 -35q-70 0 -117 39t-47 112
q0 84 54 124.5t151 40.5q36 0 66 -3v-91q-4 1 -12 1q-27 0 -40.5 -12t-13.5 -40q0 -48 48 -48zM386 559q-41 0 -66.5 24t-25.5 63t25.5 62.5t66.5 23.5t66.5 -23.5t25.5 -62.5t-25.5 -63t-66.5 -24zM178 559q-41 0 -66.5 24t-25.5 63t25.5 62.5t66.5 23.5t66.5 -23.5
t25.5 -62.5t-25.5 -63t-66.5 -24z" />
    <glyph glyph-name="aring" unicode="&#xe5;" horiz-adv-x="589" 
d="M315 126v208q0 28 -16.5 41t-54.5 13q-59 0 -103 -36h-91v149q104 37 247 37q124 0 180.5 -43t56.5 -136v-211q0 -8 8.5 -16.5t15.5 -8.5h17v-104q-51 -28 -125 -28q-61 0 -98 29t-37 106zM267 116q11 0 16 1l18 -89q-47 -35 -123 -35q-70 0 -117 39t-47 112
q0 84 54 124.5t151 40.5q36 0 66 -3v-91q-4 1 -12 1q-27 0 -40.5 -12t-13.5 -40q0 -48 48 -48zM173 667q0 42 28.5 70.5t68.5 31.5v-62q-28 -7 -28 -40q0 -35 28 -40v-63q-40 3 -68.5 32t-28.5 71zM392 667q0 -42 -28 -71t-68 -32v63q27 5 27 40q0 33 -27 40v62
q39 -3 67.5 -31.5t28.5 -70.5z" />
    <glyph glyph-name="ae" unicode="&#xe6;" horiz-adv-x="881" 
d="M306 125l41 -73q-34 -33 -73 -46t-96 -13q-70 0 -117 39t-47 112q0 84 54.5 126.5t150.5 42.5q38 0 68 -3v-94h-14q-27 0 -40.5 -12t-13.5 -40q0 -48 48 -48q20 0 39 9zM585 538v-126q-53 -7 -53 -145q0 -81 19 -111t66 -35v-130q-163 4 -231.5 72t-68.5 198v75
q0 28 -17.5 40t-55.5 12q-59 0 -103 -36h-91v149q104 37 230 37q113 0 168 -43q54 40 137 43zM565 217v103h96q-1 84 -45 92v126q127 -4 188 -69t61 -200q0 -15 -1 -33t-1 -19h-298zM844 39q-77 -44 -196 -48v130q51 3 81 45h115v-127z" />
    <glyph glyph-name="ccedilla" unicode="&#xe7;" horiz-adv-x="532" 
d="M238 260q0 -126 67 -139v-129q-144 2 -217 71.5t-73 198.5q0 127 77 199.5t213 76.5v-140q-67 -12 -67 -138zM388 352q-11 23 -22 33.5t-31 12.5v140q108 -3 169 -27v-159h-116zM505 41q-69 -45 -170 -49v129q44 4 75 44h95v-124zM302 -185q-51 0 -91 17v58h48
q9 -12 26 -12q20 0 20 16t-27 16h-25v55h71q51 0 72 -18.5t21 -54.5t-30 -56.5t-85 -20.5z" />
    <glyph glyph-name="egrave" unicode="&#xe8;" 
d="M232 267q0 -81 19 -111t66 -35v-130q-164 4 -233 72t-69 198q0 123 72 197.5t198 79.5v-127q-53 -7 -53 -144zM264 217v103h96q-1 84 -45 92v126q127 -4 188 -69t61 -200q0 -15 -1 -33t-1 -19h-298zM543 39q-77 -44 -196 -48v131q52 3 81 44h115v-127zM249 563l-100 87
v56h199l24 -143h-123z" />
    <glyph glyph-name="eacute" unicode="&#xe9;" 
d="M228 563l24 143h199v-56l-100 -87h-123zM232 267q0 -81 19 -111t66 -35v-130q-164 4 -233 72t-69 198q0 123 72 197.5t198 79.5v-127q-53 -7 -53 -144zM264 217v103h96q-1 84 -45 92v126q127 -4 188 -69t61 -200q0 -15 -1 -33t-1 -19h-298zM543 39q-77 -44 -196 -48v131
q52 3 81 44h115v-127z" />
    <glyph glyph-name="ecircumflex" unicode="&#xea;" 
d="M149 563v40l72 103h159l70 -103v-40h-94l-62 44l-61 -44h-84zM232 267q0 -81 19 -111t66 -35v-130q-164 4 -233 72t-69 198q0 123 72 197.5t198 79.5v-127q-53 -7 -53 -144zM264 217v103h96q-1 84 -45 92v126q127 -4 188 -69t61 -200q0 -15 -1 -33t-1 -19h-298zM543 39
q-77 -44 -196 -48v131q52 3 81 44h115v-127z" />
    <glyph glyph-name="edieresis" unicode="&#xeb;" 
d="M403 559q-41 0 -66.5 24t-25.5 63t25.5 62.5t66.5 23.5t66.5 -23.5t25.5 -62.5t-25.5 -63t-66.5 -24zM195 559q-41 0 -66.5 24t-25.5 63t25.5 62.5t66.5 23.5t66.5 -23.5t25.5 -62.5t-25.5 -63t-66.5 -24zM232 267q0 -81 19 -111t66 -35v-130q-164 4 -233 72t-69 198
q0 123 72 197.5t198 79.5v-127q-53 -7 -53 -144zM264 217v103h96q-1 84 -45 92v126q127 -4 188 -69t61 -200q0 -15 -1 -33t-1 -19h-298zM543 39q-77 -44 -196 -48v131q52 3 81 44h115v-127z" />
    <glyph glyph-name="igrave" unicode="&#xec;" horiz-adv-x="350" 
d="M15 0v123h26q7 0 15.5 8.5t8.5 16.5v224q0 7 -8.5 16t-15.5 9h-29v131h241q31 0 31 -51v-329q0 -8 9 -16.5t16 -8.5h26v-123h-320zM115 563l-100 87v56h199l24 -143h-123z" />
    <glyph glyph-name="iacute" unicode="&#xed;" horiz-adv-x="350" 
d="M93 563l24 143h199v-56l-100 -87h-123zM15 0v123h26q7 0 15.5 8.5t8.5 16.5v224q0 7 -8.5 16t-15.5 9h-29v131h241q31 0 31 -51v-329q0 -8 9 -16.5t16 -8.5h26v-123h-320z" />
    <glyph glyph-name="icircumflex" unicode="&#xee;" horiz-adv-x="350" 
d="M15 563v40l72 103h159l70 -103v-40h-94l-62 44l-61 -44h-84zM15 0v123h26q7 0 15.5 8.5t8.5 16.5v224q0 7 -8.5 16t-15.5 9h-29v131h241q31 0 31 -51v-329q0 -8 9 -16.5t16 -8.5h26v-123h-320z" />
    <glyph glyph-name="idieresis" unicode="&#xef;" horiz-adv-x="350" 
d="M268 559q-41 0 -66.5 24t-25.5 63t25.5 62.5t66.5 23.5t66.5 -23.5t25.5 -62.5t-25.5 -63t-66.5 -24zM60 559q-41 0 -66.5 24t-25.5 63t25.5 62.5t66.5 23.5t66.5 -23.5t25.5 -62.5t-25.5 -63t-66.5 -24zM15 0v123h26q7 0 15.5 8.5t8.5 16.5v224q0 7 -8.5 16t-15.5 9h-29
v131h241q31 0 31 -51v-329q0 -8 9 -16.5t16 -8.5h26v-123h-320z" />
    <glyph glyph-name="eth" unicode="&#xf0;" horiz-adv-x="625" 
d="M306 470q27 -34 43 -98q-18 6 -37 6q-76 0 -76 -133q0 -116 61 -127v-127q-126 3 -204 72t-78 188q0 59 20 105.5t53 72.5t70.5 39t77.5 13q45 0 70 -11zM387 270q0 61 -7 105t-23.5 73.5t-27.5 43.5t-35 36l-31 -24h-100v31l43 34q-10 3 -62 15v116h101q53 -10 95 -25
l31 25h100v-31l-44 -35q181 -112 181 -339q0 -149 -75 -223.5t-206 -80.5v127q60 13 60 152z" />
    <glyph glyph-name="ntilde" unicode="&#xf1;" horiz-adv-x="662" 
d="M15 0v123h25q7 0 16 9t9 16v224q0 8 -8.5 16.5t-16.5 8.5h-28v131h229q42 0 42 -97v-308h59v-123h-327zM324 375h-11v109q69 54 157 54q60 0 98 -29.5t38 -96.5v-264q0 -8 9 -16.5t16 -8.5h16v-123h-259v328q0 28 -14.5 37.5t-49.5 9.5zM162 564v84q28 61 103 61
q23 0 62.5 -10t51.5 -10q24 0 34 24h85v-86q-29 -61 -103 -61q-23 0 -62.5 11t-51.5 11q-24 0 -33 -24h-86z" />
    <glyph glyph-name="ograve" unicode="&#xf2;" horiz-adv-x="625" 
d="M15 261q0 122 78.5 197t203.5 80v-144q-61 -10 -61 -134q0 -127 61 -138v-131q-126 5 -204 77.5t-78 192.5zM608 261q0 -120 -78 -192.5t-203 -77.5v131q60 12 60 138q0 124 -60 134v144q125 -5 203 -80t78 -197zM262 563l-100 87v56h199l24 -143h-123z" />
    <glyph glyph-name="oacute" unicode="&#xf3;" horiz-adv-x="625" 
d="M240 563l24 143h199v-56l-100 -87h-123zM15 261q0 122 78.5 197t203.5 80v-144q-61 -10 -61 -134q0 -127 61 -138v-131q-126 5 -204 77.5t-78 192.5zM608 261q0 -120 -78 -192.5t-203 -77.5v131q60 12 60 138q0 124 -60 134v144q125 -5 203 -80t78 -197z" />
    <glyph glyph-name="ocircumflex" unicode="&#xf4;" horiz-adv-x="625" 
d="M162 563v40l72 103h159l70 -103v-40h-94l-62 44l-61 -44h-84zM15 261q0 122 78.5 197t203.5 80v-144q-61 -10 -61 -134q0 -127 61 -138v-131q-126 5 -204 77.5t-78 192.5zM608 261q0 -120 -78 -192.5t-203 -77.5v131q60 12 60 138q0 124 -60 134v144q125 -5 203 -80
t78 -197z" />
    <glyph glyph-name="otilde" unicode="&#xf5;" horiz-adv-x="625" 
d="M15 261q0 122 78.5 197t203.5 80v-144q-61 -10 -61 -134q0 -127 61 -138v-131q-126 5 -204 77.5t-78 192.5zM608 261q0 -120 -78 -192.5t-203 -77.5v131q60 12 60 138q0 124 -60 134v144q125 -5 203 -80t78 -197zM144 564v84q28 61 103 61q23 0 62.5 -10t51.5 -10
q24 0 34 24h85v-86q-29 -61 -103 -61q-23 0 -62.5 11t-51.5 11q-24 0 -33 -24h-86z" />
    <glyph glyph-name="odieresis" unicode="&#xf6;" horiz-adv-x="625" 
d="M416 559q-41 0 -66.5 24t-25.5 63t25.5 62.5t66.5 23.5t66.5 -23.5t25.5 -62.5t-25.5 -63t-66.5 -24zM208 559q-41 0 -66.5 24t-25.5 63t25.5 62.5t66.5 23.5t66.5 -23.5t25.5 -62.5t-25.5 -63t-66.5 -24zM15 261q0 122 78.5 197t203.5 80v-144q-61 -10 -61 -134
q0 -127 61 -138v-131q-126 5 -204 77.5t-78 192.5zM608 261q0 -120 -78 -192.5t-203 -77.5v131q60 12 60 138q0 124 -60 134v144q125 -5 203 -80t78 -197z" />
    <glyph glyph-name="divide" unicode="&#xf7;" horiz-adv-x="532" 
d="M267 454q-43 0 -72.5 28t-29.5 68q0 41 29.5 69.5t72.5 28.5q42 0 71.5 -28.5t29.5 -69.5q0 -40 -29.5 -68t-71.5 -28zM18 269v153h497v-153h-497zM267 43q-43 0 -72.5 28t-29.5 68q0 41 29.5 69.5t72.5 28.5q42 0 71.5 -28.5t29.5 -69.5q0 -40 -29.5 -68t-71.5 -28z" />
    <glyph glyph-name="oslash" unicode="&#xf8;" horiz-adv-x="625" 
d="M25 -29l75 90q-85 74 -85 200q0 122 78.5 197t203.5 80v-140q-30 -5 -48 -40.5t-18 -98.5q0 -17 2 -41l48 59l49 -48l-71 -87q17 -21 38 -24v-127q-78 3 -139 32l-44 -52h-89zM597 550l-72 -87q83 -77 83 -202q0 -120 -78 -192.5t-203 -77.5v127q29 6 47 42.5t18 99.5
q0 22 -3 42l-41 -50l-48 48l61 77q-15 18 -34 21v140q76 -3 141 -36l40 48h89z" />
    <glyph glyph-name="ugrave" unicode="&#xf9;" horiz-adv-x="661" 
d="M341 149h9v-107q-66 -51 -153 -51q-60 0 -100 29.5t-40 96.5v255q0 7 -8.5 16t-15.5 9h-21v131h264v-329q0 -29 15 -39.5t50 -10.5zM380 97v300h-53v131h272v-380q0 -7 8.5 -16t15.5 -9h23v-123h-224q-42 0 -42 97zM272 563l-100 87v56h199l24 -143h-123z" />
    <glyph glyph-name="uacute" unicode="&#xfa;" horiz-adv-x="661" 
d="M341 149h9v-107q-66 -51 -153 -51q-60 0 -100 29.5t-40 96.5v255q0 7 -8.5 16t-15.5 9h-21v131h264v-329q0 -29 15 -39.5t50 -10.5zM380 97v300h-53v131h272v-380q0 -7 8.5 -16t15.5 -9h23v-123h-224q-42 0 -42 97zM250 563l24 143h199v-56l-100 -87h-123z" />
    <glyph glyph-name="ucircumflex" unicode="&#xfb;" horiz-adv-x="661" 
d="M341 149h9v-107q-66 -51 -153 -51q-60 0 -100 29.5t-40 96.5v255q0 7 -8.5 16t-15.5 9h-21v131h264v-329q0 -29 15 -39.5t50 -10.5zM380 97v300h-53v131h272v-380q0 -7 8.5 -16t15.5 -9h23v-123h-224q-42 0 -42 97zM172 563v40l72 103h159l70 -103v-40h-94l-62 44
l-61 -44h-84z" />
    <glyph glyph-name="udieresis" unicode="&#xfc;" horiz-adv-x="661" 
d="M341 149h9v-107q-66 -51 -153 -51q-60 0 -100 29.5t-40 96.5v255q0 7 -8.5 16t-15.5 9h-21v131h264v-329q0 -29 15 -39.5t50 -10.5zM380 97v300h-53v131h272v-380q0 -7 8.5 -16t15.5 -9h23v-123h-224q-42 0 -42 97zM426 559q-41 0 -66.5 24t-25.5 63t25.5 62.5t66.5 23.5
t66.5 -23.5t25.5 -62.5t-25.5 -63t-66.5 -24zM218 559q-41 0 -66.5 24t-25.5 63t25.5 62.5t66.5 23.5t66.5 -23.5t25.5 -62.5t-25.5 -63t-66.5 -24z" />
    <glyph glyph-name="yacute" unicode="&#xfd;" horiz-adv-x="631" 
d="M321 277l-117 -235l-149 332q-4 9 -12.5 16t-16.5 7h-14v131h305v-131h-44zM258 81l132 271q8 17 2 31t-25 14h-9v131h252v-131h-15q-8 0 -19 -9.5t-16 -21.5l-136 -286q-45 -93 -87.5 -148t-92.5 -94h-165v109q72 19 111.5 48t67.5 86zM264 563l24 143h199v-56l-100 -87
h-123z" />
    <glyph glyph-name="thorn" unicode="&#xfe;" horiz-adv-x="618" 
d="M-14 -162v115h25q7 0 15.5 8.5t8.5 15.5v570q0 8 -8.5 16.5t-15.5 8.5h-28v128h240q31 0 31 -44v-703h46v-115h-314zM300 381q-3 0 -8.5 -0.5t-7.5 -0.5v116q54 42 123 42q85 0 141 -60.5t56 -197.5t-64.5 -202t-163.5 -65q-54 0 -92 16v104h15q38 0 60.5 27t22.5 101
q0 68 -22 94t-60 26z" />
    <glyph glyph-name="ydieresis" unicode="&#xff;" horiz-adv-x="631" 
d="M321 277l-117 -235l-149 332q-4 9 -12.5 16t-16.5 7h-14v131h305v-131h-44zM258 81l132 271q8 17 2 31t-25 14h-9v131h252v-131h-15q-8 0 -19 -9.5t-16 -21.5l-136 -286q-45 -93 -87.5 -148t-92.5 -94h-165v109q72 19 111.5 48t67.5 86zM440 559q-41 0 -66.5 24t-25.5 63
t25.5 62.5t66.5 23.5t66.5 -23.5t25.5 -62.5t-25.5 -63t-66.5 -24zM232 559q-41 0 -66.5 24t-25.5 63t25.5 62.5t66.5 23.5t66.5 -23.5t25.5 -62.5t-25.5 -63t-66.5 -24z" />
    <glyph glyph-name="Amacron" unicode="&#x100;" horiz-adv-x="768" 
d="M474 123l-166 577h223l175 -554q3 -8 12.5 -15.5t17.5 -7.5h16v-123h-356v123h78zM281 214l35 106h70l30 -106h-135zM340 479l-89 -261q-17 -49 -8.5 -72t44.5 -23h26v-123h-297v123h13q26 0 38 31l138 391q3 9 -3 18t-15 9h-33v128h122zM217 750v120h286v-120h-286z" />
    <glyph glyph-name="amacron" unicode="&#x101;" horiz-adv-x="589" 
d="M315 126v208q0 28 -16.5 41t-54.5 13q-59 0 -103 -36h-91v149q104 37 247 37q124 0 180.5 -43t56.5 -136v-211q0 -8 8.5 -16.5t15.5 -8.5h17v-104q-51 -28 -125 -28q-61 0 -98 29t-37 106zM267 116q11 0 16 1l18 -89q-47 -35 -123 -35q-70 0 -117 39t-47 112
q0 84 54 124.5t151 40.5q36 0 66 -3v-91q-4 1 -12 1q-27 0 -40.5 -12t-13.5 -40q0 -48 48 -48zM140 579v120h286v-120h-286z" />
    <glyph glyph-name="Abreve" unicode="&#x102;" horiz-adv-x="768" 
d="M474 123l-166 577h223l175 -554q3 -8 12.5 -15.5t17.5 -7.5h16v-123h-356v123h78zM281 214l35 106h70l30 -106h-135zM340 479l-89 -261q-17 -49 -8.5 -72t44.5 -23h26v-123h-297v123h13q26 0 38 31l138 391q3 9 -3 18t-15 9h-33v128h122zM360 733q-58 0 -95 26t-52 62v63
h103q7 -34 44 -34t44 34h103v-63q-15 -36 -51.5 -62t-95.5 -26z" />
    <glyph glyph-name="abreve" unicode="&#x103;" horiz-adv-x="589" 
d="M315 126v208q0 28 -16.5 41t-54.5 13q-59 0 -103 -36h-91v149q104 37 247 37q124 0 180.5 -43t56.5 -136v-211q0 -8 8.5 -16.5t15.5 -8.5h17v-104q-51 -28 -125 -28q-61 0 -98 29t-37 106zM267 116q11 0 16 1l18 -89q-47 -35 -123 -35q-70 0 -117 39t-47 112
q0 84 54 124.5t151 40.5q36 0 66 -3v-91q-4 1 -12 1q-27 0 -40.5 -12t-13.5 -40q0 -48 48 -48zM283 562q-58 0 -95 26t-52 62v63h103q7 -34 44 -34t44 34h103v-63q-15 -36 -51.5 -62t-95.5 -26z" />
    <glyph glyph-name="Aogonek" unicode="&#x104;" horiz-adv-x="768" 
d="M562 -97q0 46 57 70h85q-4 -9 -4 -24q0 -27 36 -27h16v-77q-30 -14 -79 -14q-51 0 -81 19.5t-30 52.5zM474 123l-166 577h223l175 -554q3 -8 12.5 -15.5t17.5 -7.5h16v-123h-356v123h78zM281 214l35 106h70l30 -106h-135zM340 479l-89 -261q-17 -49 -8.5 -72t44.5 -23h26
v-123h-297v123h13q26 0 38 31l138 391q3 9 -3 18t-15 9h-33v128h122z" />
    <glyph glyph-name="aogonek" unicode="&#x105;" horiz-adv-x="589" 
d="M315 126v208q0 28 -16.5 41t-54.5 13q-59 0 -103 -36h-91v149q104 37 247 37q124 0 180.5 -43t56.5 -136v-211q0 -8 8.5 -16.5t15.5 -8.5h17v-104q-51 -28 -125 -28q-61 0 -98 29t-37 106zM267 116q11 0 16 1l18 -89q-47 -35 -123 -35q-70 0 -117 39t-47 112
q0 84 54 124.5t151 40.5q36 0 66 -3v-91q-4 1 -12 1q-27 0 -40.5 -12t-13.5 -40q0 -48 48 -48zM385 -97q0 33 55 60l90 9q-7 -11 -7 -23q0 -27 36 -27h16v-77q-30 -14 -79 -14q-51 0 -81 19.5t-30 52.5z" />
    <glyph glyph-name="Cacute" unicode="&#x106;" horiz-adv-x="659" 
d="M300 736l24 143h199v-56l-100 -87h-123zM379 -11q-175 0 -267 90.5t-92 263.5q0 177 90.5 271t253.5 94q45 0 74 -8v-145h-25q-70 0 -106 -46t-36 -156q0 -102 26.5 -153.5t86.5 -57.5v-153h-5zM491 450l-23 105v145h172v-250h-149zM643 61q-93 -63 -229 -72v153
q72 7 113 70h116v-151z" />
    <glyph glyph-name="cacute" unicode="&#x107;" horiz-adv-x="532" 
d="M223 563l24 143h199v-56l-100 -87h-123zM237 260q0 -126 67 -139v-129q-144 2 -217 71.5t-73 198.5q0 127 77 199.5t213 76.5v-140q-67 -12 -67 -138zM387 352q-11 23 -22 33.5t-31 12.5v140q108 -3 169 -27v-159h-116zM504 41q-69 -45 -170 -49v129q44 4 75 44h95v-124z
" />
    <glyph glyph-name="Ccircumflex" unicode="&#x108;" horiz-adv-x="659" 
d="M227 736v40l72 103h159l70 -103v-40h-94l-62 44l-61 -44h-84zM380 -11q-175 0 -267 90.5t-92 263.5q0 177 90.5 271t253.5 94q45 0 74 -8v-145h-25q-70 0 -106 -46t-36 -156q0 -102 26.5 -153.5t86.5 -57.5v-153h-5zM492 450l-23 105v145h172v-250h-149zM644 61
q-93 -63 -229 -72v153q72 7 113 70h116v-151z" />
    <glyph glyph-name="ccircumflex" unicode="&#x109;" horiz-adv-x="532" 
d="M148 563v40l72 103h159l70 -103v-40h-94l-62 44l-61 -44h-84zM237 260q0 -126 67 -139v-129q-144 2 -217 71.5t-73 198.5q0 127 77 199.5t213 76.5v-140q-67 -12 -67 -138zM387 352q-11 23 -22 33.5t-31 12.5v140q108 -3 169 -27v-159h-116zM504 41q-69 -45 -170 -49v129
q44 4 75 44h95v-124z" />
    <glyph glyph-name="Cdotaccent" unicode="&#x10a;" horiz-adv-x="659" 
d="M379 -11q-175 0 -267 90.5t-92 263.5q0 177 90.5 271t253.5 94q45 0 74 -8v-145h-25q-70 0 -106 -46t-36 -156q0 -102 26.5 -153.5t86.5 -57.5v-153h-5zM491 450l-23 105v145h172v-250h-149zM643 61q-93 -63 -229 -72v153q72 7 113 70h116v-151zM373 731
q-45 0 -73.5 25.5t-28.5 67.5q0 43 28.5 69t73.5 26t73.5 -26t28.5 -69q0 -42 -28.5 -67.5t-73.5 -25.5z" />
    <glyph glyph-name="cdotaccent" unicode="&#x10b;" horiz-adv-x="532" 
d="M237 260q0 -126 67 -139v-129q-144 2 -217 71.5t-73 198.5q0 127 77 199.5t213 76.5v-140q-67 -12 -67 -138zM387 352q-11 23 -22 33.5t-31 12.5v140q108 -3 169 -27v-159h-116zM504 41q-69 -45 -170 -49v129q44 4 75 44h95v-124zM314 556q-45 0 -73.5 25.5t-28.5 67.5
q0 43 28.5 69t73.5 26t73.5 -26t28.5 -69q0 -42 -28.5 -67.5t-73.5 -25.5z" />
    <glyph glyph-name="Ccaron" unicode="&#x10c;" horiz-adv-x="659" 
d="M292 736l-70 103v40h94l62 -44l61 44h83v-40l-71 -103h-159zM379 -11q-175 0 -267 90.5t-92 263.5q0 177 90.5 271t253.5 94q45 0 74 -8v-145h-25q-70 0 -106 -46t-36 -156q0 -102 26.5 -153.5t86.5 -57.5v-153h-5zM491 450l-23 105v145h172v-250h-149zM643 61
q-93 -63 -229 -72v153q72 7 113 70h116v-151z" />
    <glyph glyph-name="ccaron" unicode="&#x10d;" horiz-adv-x="532" 
d="M227 563l-70 103v40h94l62 -44l61 44h83v-40l-71 -103h-159zM237 260q0 -126 67 -139v-129q-144 2 -217 71.5t-73 198.5q0 127 77 199.5t213 76.5v-140q-67 -12 -67 -138zM387 352q-11 23 -22 33.5t-31 12.5v140q108 -3 169 -27v-159h-116zM504 41q-69 -45 -170 -49v129
q44 4 75 44h95v-124z" />
    <glyph glyph-name="Dcaron" unicode="&#x10e;" horiz-adv-x="748" 
d="M247 734l-70 103v40h94l62 -44l61 44h83v-40l-71 -103h-159zM17 0v123h29q9 0 18.5 10.5t9.5 18.5v392q0 8 -9.5 18t-18.5 10h-29v128h291v-700h-291zM730 355q0 -355 -392 -355v129h3q149 0 149 217q0 111 -37 164t-112 53h-3v137h6q198 0 292 -84t94 -261z" />
    <glyph glyph-name="dcaron" unicode="&#x10f;" horiz-adv-x="655" 
d="M620 555l6 145h157v-56l-55 -89h-108zM638 0h-225q-42 0 -42 97v475h-51v128h238q15 0 23.5 -12t8.5 -32v-508q0 -7 8.5 -16t15.5 -9h24v-123zM317 124h24v-99q-48 -35 -115 -35q-97 0 -153.5 66t-56.5 208q0 140 61 207t153 67q63 0 111 -38v-117h-17q-41 0 -64 -26.5
t-23 -97.5q0 -135 80 -135z" />
    <glyph glyph-name="Dcroat" unicode="&#x110;" horiz-adv-x="748" 
d="M17 288v122h57v134q0 8 -9.5 18t-18.5 10h-29v128h291v-290h95v-122h-95v-288h-291v123h29q9 0 18.5 10.5t9.5 18.5v136h-57zM730 355q0 -355 -392 -355v129h3q149 0 149 217q0 111 -37 164t-112 53h-3v137h6q198 0 292 -84t94 -261z" />
    <glyph glyph-name="dcroat" unicode="&#x111;" horiz-adv-x="639" 
d="M317 124h24v-99q-48 -35 -115 -35q-97 0 -153.5 66t-56.5 208q0 140 61 207t153 67q63 0 111 -38v-117h-17q-41 0 -64 -26.5t-23 -97.5q0 -135 80 -135zM590 553v-405q0 -7 8.5 -16t15.5 -9h24v-123h-225q-42 0 -42 97v456h-83v94h82v53h188q15 0 23.5 -11t8.5 -28v-14
h48v-94h-48z" />
    <glyph glyph-name="Emacron" unicode="&#x112;" horiz-adv-x="642" 
d="M17 0v123h29q9 0 18.5 10.5t9.5 18.5v392q0 8 -9.5 18t-18.5 10h-29v128h291v-700h-291zM622 0h-284v134h124l19 106h141v-240zM458 562h-120v138h275v-227h-135zM469 286h-131v142h131v-142zM183 750v120h286v-120h-286z" />
    <glyph glyph-name="emacron" unicode="&#x113;" 
d="M231 267q0 -81 19 -111t66 -35v-130q-164 4 -233 72t-69 198q0 123 72 197.5t198 79.5v-127q-53 -7 -53 -144zM263 217v103h96q-1 84 -45 92v126q127 -4 188 -69t61 -200q0 -15 -1 -33t-1 -19h-298zM542 39q-77 -44 -196 -48v131q52 3 81 44h115v-127zM157 579v120h286
v-120h-286z" />
    <glyph glyph-name="Ebreve" unicode="&#x114;" horiz-adv-x="642" 
d="M17 0v123h29q9 0 18.5 10.5t9.5 18.5v392q0 8 -9.5 18t-18.5 10h-29v128h291v-700h-291zM622 0h-284v134h124l19 106h141v-240zM458 562h-120v138h275v-227h-135zM469 286h-131v142h131v-142zM332 733q-58 0 -95 26t-52 62v63h103q7 -34 44 -34t44 34h103v-63
q-15 -36 -51.5 -62t-95.5 -26z" />
    <glyph glyph-name="ebreve" unicode="&#x115;" 
d="M231 267q0 -81 19 -111t66 -35v-130q-164 4 -233 72t-69 198q0 123 72 197.5t198 79.5v-127q-53 -7 -53 -144zM263 217v103h96q-1 84 -45 92v126q127 -4 188 -69t61 -200q0 -15 -1 -33t-1 -19h-298zM542 39q-77 -44 -196 -48v131q52 3 81 44h115v-127zM303 562
q-58 0 -95 26t-52 62v63h103q7 -34 44 -34t44 34h103v-63q-15 -36 -51.5 -62t-95.5 -26z" />
    <glyph glyph-name="Edotaccent" unicode="&#x116;" horiz-adv-x="642" 
d="M17 0v123h29q9 0 18.5 10.5t9.5 18.5v392q0 8 -9.5 18t-18.5 10h-29v128h291v-700h-291zM622 0h-284v134h124l19 106h141v-240zM458 562h-120v138h275v-227h-135zM469 286h-131v142h131v-142zM326 726q-45 0 -73.5 25.5t-28.5 67.5q0 43 28.5 69t73.5 26t73.5 -26
t28.5 -69q0 -42 -28.5 -67.5t-73.5 -25.5z" />
    <glyph glyph-name="edotaccent" unicode="&#x117;" 
d="M231 267q0 -81 19 -111t66 -35v-130q-164 4 -233 72t-69 198q0 123 72 197.5t198 79.5v-127q-53 -7 -53 -144zM263 217v103h96q-1 84 -45 92v126q127 -4 188 -69t61 -200q0 -15 -1 -33t-1 -19h-298zM542 39q-77 -44 -196 -48v131q52 3 81 44h115v-127zM300 555
q-45 0 -73.5 25.5t-28.5 67.5q0 43 28.5 69t73.5 26t73.5 -26t28.5 -69q0 -42 -28.5 -67.5t-73.5 -25.5z" />
    <glyph glyph-name="Eogonek" unicode="&#x118;" horiz-adv-x="642" 
d="M17 0v123h29q9 0 18.5 10.5t9.5 18.5v392q0 8 -9.5 18t-18.5 10h-29v128h291v-700h-291zM622 0h-284v134h124l19 106h141v-240zM458 562h-120v138h275v-227h-135zM412 -97q0 45 58 70h85q-5 -12 -5 -24q0 -27 36 -27h16v-77q-30 -14 -79 -14q-51 0 -81 19.5t-30 52.5z
M469 286h-131v142h131v-142z" />
    <glyph glyph-name="eogonek" unicode="&#x119;" 
d="M232 267q0 -81 19 -111t66 -35v-130q-164 4 -233 72t-69 198q0 123 72 197.5t198 79.5v-127q-53 -7 -53 -144zM264 217v103h96q-1 84 -45 92v126q127 -4 188 -69t61 -200q0 -15 -1 -33t-1 -19h-298zM543 39q-77 -44 -196 -48v131q52 3 81 44h115v-127zM328 -97
q0 40 55 63l99 19q-16 -21 -16 -36q0 -27 36 -27h16v-77q-30 -14 -79 -14q-51 0 -81 19.5t-30 52.5z" />
    <glyph glyph-name="Ecaron" unicode="&#x11a;" horiz-adv-x="642" 
d="M244 734l-70 103v40h94l62 -44l61 44h83v-40l-71 -103h-159zM17 0v123h29q9 0 18.5 10.5t9.5 18.5v392q0 8 -9.5 18t-18.5 10h-29v128h291v-700h-291zM622 0h-284v134h124l19 106h141v-240zM458 562h-120v138h275v-227h-135zM469 286h-131v142h131v-142z" />
    <glyph glyph-name="ecaron" unicode="&#x11b;" 
d="M219 563l-70 103v40h94l62 -44l61 44h83v-40l-71 -103h-159zM231 267q0 -81 19 -111t66 -35v-130q-164 4 -233 72t-69 198q0 123 72 197.5t198 79.5v-127q-53 -7 -53 -144zM263 217v103h96q-1 84 -45 92v126q127 -4 188 -69t61 -200q0 -15 -1 -33t-1 -19h-298zM542 39
q-77 -44 -196 -48v131q52 3 81 44h115v-127z" />
    <glyph glyph-name="Gcircumflex" unicode="&#x11c;" horiz-adv-x="713" 
d="M222 736v40l72 103h159l70 -103v-40h-94l-62 44l-61 -44h-84zM347 -11q-164 0 -247 90t-83 264q0 177 90.5 271t257.5 94q44 0 74 -8v-145h-29q-70 0 -106 -46t-36 -155q0 -110 27 -160.5t92 -50.5h18l76 -127q-47 -27 -134 -27zM435 151v85h-49v122h314v-125h-15
q-9 0 -18.5 -10t-9.5 -18v-205h-132zM491 457l-22 98v145h172v-243h-150z" />
    <glyph glyph-name="gcircumflex" unicode="&#x11d;" 
d="M137 563v40l72 103h159l70 -103v-40h-94l-62 44l-61 -44h-84zM334 -1h-129q-78 0 -121 28t-43 81q0 66 61 95l78 -27q1 -17 28 -17h194q86 0 125.5 -33t39.5 -106q0 -91 -69 -144t-214 -57v115q93 4 93 40q0 14 -9.5 19.5t-33.5 5.5zM526 362q0 -80 -59 -124t-167 -47
v101q34 10 34 69t-34 67v110q37 -1 79 -10h186v-131h-20q-12 0 -20 -14q0 -3 0.5 -10t0.5 -11zM270 191q-107 0 -168.5 45.5t-61.5 125.5q0 81 60.5 127t169.5 49v-110q-35 -8 -35 -67t35 -69v-101zM3 -72q0 56 69 72l104 -29q-1 -21 15 -28.5t63 -8.5v-115q-251 3 -251 109
z" />
    <glyph glyph-name="Gbreve" unicode="&#x11e;" horiz-adv-x="713" 
d="M347 -11q-164 0 -247 90t-83 264q0 177 90.5 271t257.5 94q44 0 74 -8v-145h-29q-70 0 -106 -46t-36 -155q0 -110 27 -160.5t92 -50.5h18l76 -127q-47 -27 -134 -27zM435 151v85h-49v122h314v-125h-15q-9 0 -18.5 -10t-9.5 -18v-205h-132zM491 457l-22 98v145h172v-243
h-150zM371 735q-58 0 -95 26t-52 62v63h103q7 -34 44 -34t44 34h103v-63q-15 -36 -51.5 -62t-95.5 -26z" />
    <glyph glyph-name="gbreve" unicode="&#x11f;" 
d="M333 -1h-129q-78 0 -121 28t-43 81q0 66 61 95l78 -27q1 -17 28 -17h194q86 0 125.5 -33t39.5 -106q0 -91 -69 -144t-214 -57v115q93 4 93 40q0 14 -9.5 19.5t-33.5 5.5zM525 362q0 -80 -59 -124t-167 -47v101q34 10 34 69t-34 67v110q37 -1 79 -10h186v-131h-20
q-12 0 -20 -14q0 -3 0.5 -10t0.5 -11zM269 191q-107 0 -168.5 45.5t-61.5 125.5q0 81 60.5 127t169.5 49v-110q-35 -8 -35 -67t35 -69v-101zM2 -72q0 56 69 72l104 -29q-1 -21 15 -28.5t63 -8.5v-115q-251 3 -251 109zM284 562q-58 0 -95 26t-52 62v63h103q7 -34 44 -34
t44 34h103v-63q-15 -36 -51.5 -62t-95.5 -26z" />
    <glyph glyph-name="Gdotaccent" unicode="&#x120;" horiz-adv-x="713" 
d="M347 -11q-164 0 -247 90t-83 264q0 177 90.5 271t257.5 94q44 0 74 -8v-145h-29q-70 0 -106 -46t-36 -155q0 -110 27 -160.5t92 -50.5h18l76 -127q-47 -27 -134 -27zM435 151v85h-49v122h314v-125h-15q-9 0 -18.5 -10t-9.5 -18v-205h-132zM491 457l-22 98v145h172v-243
h-150zM371 728q-45 0 -73.5 25.5t-28.5 67.5q0 43 28.5 69t73.5 26t73.5 -26t28.5 -69q0 -42 -28.5 -67.5t-73.5 -25.5z" />
    <glyph glyph-name="gdotaccent" unicode="&#x121;" 
d="M333 -1h-129q-78 0 -121 28t-43 81q0 66 61 95l78 -27q1 -17 28 -17h194q86 0 125.5 -33t39.5 -106q0 -91 -69 -144t-214 -57v115q93 4 93 40q0 14 -9.5 19.5t-33.5 5.5zM525 362q0 -80 -59 -124t-167 -47v101q34 10 34 69t-34 67v110q37 -1 79 -10h186v-131h-20
q-12 0 -20 -14q0 -3 0.5 -10t0.5 -11zM269 191q-107 0 -168.5 45.5t-61.5 125.5q0 81 60.5 127t169.5 49v-110q-35 -8 -35 -67t35 -69v-101zM2 -72q0 56 69 72l104 -29q-1 -21 15 -28.5t63 -8.5v-115q-251 3 -251 109zM284 555q-45 0 -73.5 25.5t-28.5 67.5q0 43 28.5 69
t73.5 26t73.5 -26t28.5 -69q0 -42 -28.5 -67.5t-73.5 -25.5z" />
    <glyph glyph-name="Gcommaaccent" unicode="&#x122;" horiz-adv-x="713" 
d="M297 -237v56q47 4 47 26q0 3 -1.5 6t-4.5 5t-5.5 4t-7.5 4.5t-8 4.5q-21 12 -21 43q0 25 20 40t52 15q36 0 58 -19.5t22 -57.5q0 -61 -37.5 -91.5t-113.5 -35.5zM348 -11q-164 0 -247 90t-83 264q0 177 90.5 271t257.5 94q44 0 74 -8v-145h-29q-70 0 -106 -46t-36 -155
q0 -110 27 -160.5t92 -50.5h18l76 -127q-47 -27 -134 -27zM436 151v85h-49v122h314v-125h-15q-9 0 -18.5 -10t-9.5 -18v-205h-132zM492 457l-22 98v145h172v-243h-150z" />
    <glyph glyph-name="gcommaaccent" unicode="&#x123;" 
d="M358 764v-56q-47 -4 -47 -26q0 -3 1.5 -6t4.5 -5t5.5 -4t7.5 -4.5t8 -4.5q21 -12 21 -43q0 -25 -20 -40t-52 -15q-36 0 -58 19.5t-22 57.5q0 61 37.5 91.5t113.5 35.5zM333 -1h-129q-78 0 -121 28t-43 81q0 66 61 95l78 -27q1 -17 28 -17h194q86 0 125.5 -33t39.5 -106
q0 -91 -69 -144t-214 -57v115q93 4 93 40q0 14 -9.5 19.5t-33.5 5.5zM525 362q0 -80 -59 -124t-167 -47v101q34 10 34 69t-34 67v110q37 -1 79 -10h186v-131h-20q-12 0 -20 -14q0 -3 0.5 -10t0.5 -11zM269 191q-107 0 -168.5 45.5t-61.5 125.5q0 81 60.5 127t169.5 49v-110
q-35 -8 -35 -67t35 -69v-101zM2 -72q0 56 69 72l104 -29q-1 -21 15 -28.5t63 -8.5v-115q-251 3 -251 109z" />
    <glyph glyph-name="Hcircumflex" unicode="&#x124;" horiz-adv-x="781" 
d="M241 734v40l72 103h159l70 -103v-40h-94l-62 44l-61 -44h-84zM308 572v-449h60v-123h-351v123h29q9 0 18.5 10.5t9.5 18.5v392q0 8 -9.5 18t-18.5 10h-29v128h351v-128h-60zM413 123h60v449h-60v128h351v-128h-29q-9 0 -18.5 -10t-9.5 -18v-392q0 -8 9.5 -18.5
t18.5 -10.5h29v-123h-351v123zM338 295v119h105v-119h-105z" />
    <glyph glyph-name="hcircumflex" unicode="&#x125;" horiz-adv-x="661" 
d="M176 727v40l72 103h159l70 -103v-40h-94l-62 44l-61 -44h-84zM279 656v-533h58v-123h-326v123h25q7 0 15.5 9t8.5 16v400q0 8 -8 16t-16 8h-28v128h239q32 0 32 -44zM383 0v328q0 28 -14 37.5t-50 9.5h-10v109q69 54 157 54q60 0 98 -29.5t38 -96.5v-264q0 -8 8.5 -16.5
t15.5 -8.5h16v-123h-259z" />
    <glyph glyph-name="Hbar" unicode="&#x126;" horiz-adv-x="781" 
d="M17 451v75h57v18q0 8 -9.5 18t-18.5 10h-29v128h351v-128h-60v-449h60v-123h-351v123h29q9 0 18.5 10.5t9.5 18.5v299h-57zM413 123h60v449h-60v128h351v-128h-29q-9 0 -18.5 -10t-9.5 -18v-18h57v-75h-57v-299q0 -8 9.5 -18.5t18.5 -10.5h29v-123h-351v123zM338 287v119
h105v-119h-105zM338 451v75h105v-75h-105z" />
    <glyph glyph-name="hbar" unicode="&#x127;" horiz-adv-x="646" 
d="M283 553v-430h58v-123h-326v123h25q7 0 15.5 9t8.5 16v405h-52v94h52v53h187q32 0 32 -44v-9h83v-94h-83zM387 0v328q0 28 -14 37.5t-50 9.5h-10v109q69 54 157 54q60 0 98 -29.5t38 -96.5v-264q0 -8 8.5 -16.5t15.5 -8.5h16v-123h-259z" />
    <glyph glyph-name="Imacron" unicode="&#x12a;" horiz-adv-x="391" 
d="M17 0v123h34q9 0 18.5 10.5t9.5 18.5v392q0 8 -9.5 18t-18.5 10h-34v128h358v-128h-35q-8 0 -17.5 -10t-9.5 -18v-392q0 -8 9.5 -18.5t17.5 -10.5h35v-123h-358zM53 750v120h286v-120h-286z" />
    <glyph glyph-name="imacron" unicode="&#x12b;" horiz-adv-x="350" 
d="M14 0v123h26q7 0 15.5 8.5t8.5 16.5v224q0 7 -8.5 16t-15.5 9h-29v131h241q31 0 31 -51v-329q0 -8 8.5 -16.5t16.5 -8.5h26v-123h-320zM12 579v120h286v-120h-286z" />
    <glyph glyph-name="Iogonek" unicode="&#x12e;" horiz-adv-x="391" 
d="M155 -97q0 45 58 70h85q-5 -12 -5 -24q0 -27 36 -27h16v-77q-30 -14 -79 -14q-51 0 -81 19.5t-30 52.5zM17 0v123h34q9 0 18.5 10.5t9.5 18.5v392q0 8 -9.5 18t-18.5 10h-34v128h358v-128h-35q-8 0 -17.5 -10t-9.5 -18v-392q0 -8 9.5 -18.5t17.5 -10.5h35v-123h-358z" />
    <glyph glyph-name="iogonek" unicode="&#x12f;" horiz-adv-x="350" 
d="M135 -97q0 45 58 70h85q-5 -12 -5 -24q0 -27 36 -27h16v-77q-30 -14 -79 -14q-51 0 -81 19.5t-30 52.5zM15 0v123h26q7 0 15.5 8.5t8.5 16.5v224q0 7 -8.5 16t-15.5 9h-29v131h241q31 0 31 -51v-329q0 -8 9 -16.5t16 -8.5h26v-123h-320zM174 555q-45 0 -73 25.5t-28 67.5
t28 68.5t73 26.5t73.5 -26t28.5 -69q0 -42 -28.5 -67.5t-73.5 -25.5z" />
    <glyph glyph-name="Idotaccent" unicode="&#x130;" horiz-adv-x="391" 
d="M17 0v123h34q9 0 18.5 10.5t9.5 18.5v392q0 8 -9.5 18t-18.5 10h-34v128h358v-128h-35q-8 0 -17.5 -10t-9.5 -18v-392q0 -8 9.5 -18.5t17.5 -10.5h35v-123h-358zM198 726q-45 0 -73.5 25.5t-28.5 67.5q0 43 28.5 69t73.5 26t73.5 -26t28.5 -69q0 -42 -28.5 -67.5
t-73.5 -25.5z" />
    <glyph glyph-name="dotlessi" unicode="&#x131;" horiz-adv-x="350" 
d="M15 0v123h26q7 0 15.5 8.5t8.5 16.5v224q0 7 -8.5 16t-15.5 9h-29v131h241q31 0 31 -51v-329q0 -8 9 -16.5t16 -8.5h26v-123h-320z" />
    <glyph glyph-name="Jcircumflex" unicode="&#x134;" horiz-adv-x="561" 
d="M209 734v40l72 103h159l70 -103v-40h-94l-62 44l-61 -44h-84zM481 218q0 -119 -64.5 -171.5t-209.5 -54.5v147q39 5 39 59v346q0 8 -9.5 18t-17.5 10h-40v128h363v-128h-34q-9 0 -18 -10t-9 -18v-326zM128 180q16 -37 49 -41v-147q-94 3 -161 38v150h112z" />
    <glyph glyph-name="jcircumflex" unicode="&#x135;" horiz-adv-x="322" 
d="M88 -170q-54 0 -106 14v111h26q33 0 45 10.5t12 37.5v369q0 7 -8.5 16t-15.5 9h-29v131h241q15 0 23.5 -14.5t8.5 -36.5v-484q0 -89 -48.5 -126t-148.5 -37zM8 563v40l72 103h159l70 -103v-40h-94l-62 44l-61 -44h-84z" />
    <glyph glyph-name="Kcommaaccent" unicode="&#x136;" horiz-adv-x="754" 
d="M330 -237v56q47 4 47 26q0 3 -1.5 6t-4.5 5t-5.5 4t-7.5 4.5t-8 4.5q-21 12 -21 43q0 25 20 40t52 15q36 0 58 -19.5t22 -57.5q0 -61 -37.5 -91.5t-113.5 -35.5zM17 0v123h29q9 0 18.5 10.5t9.5 18.5v392q0 8 -9.5 18t-18.5 10h-29v128h344v-128h-53v-449h56v-123h-347z
M669 540l-331 -303v186l100 97q21 20 16.5 36t-29.5 16h-16v128h325v-128h-13q-18 0 -52 -32zM455 108l-66 134l167 153l137 -245q20 -27 33 -27h11v-123h-282v108z" />
    <glyph glyph-name="kcommaaccent" unicode="&#x137;" horiz-adv-x="651" 
d="M275 -237v56q47 4 47 26q0 3 -1.5 6t-4.5 5t-5.5 4t-7.5 4.5t-8 4.5q-21 12 -21 43q0 25 20 40t52 15q36 0 58 -19.5t22 -57.5q0 -61 -37.5 -91.5t-113.5 -35.5zM281 656v-533h44v-123h-312v123h25q8 0 16.5 8.5t8.5 16.5v399q0 7 -8.5 16t-16.5 9h-27v128h239
q31 0 31 -44zM312 192v138l40 33q18 16 16 27.5t-21 11.5h-19v126h304v-131h-12q-16 0 -32 -14l-105 -84l109 -150q20 -26 30 -26h12v-123h-263v120z" />
    <glyph glyph-name="Lacute" unicode="&#x139;" horiz-adv-x="624" 
d="M130 734l24 143h199v-56l-100 -87h-123zM17 0v123h29q9 0 18.5 10.5t9.5 18.5v392q0 8 -9.5 18t-18.5 10h-29v128h370v-128h-79v-572h-291zM608 0h-270v134h108l19 124h143v-258z" />
    <glyph glyph-name="lacute" unicode="&#x13a;" horiz-adv-x="355" 
d="M94 727l24 143h199v-56l-100 -87h-123zM13 0v123h29q7 0 15.5 8.5t8.5 16.5v399q0 8 -8.5 16.5t-15.5 8.5h-31v128h242q32 0 32 -44v-508q0 -8 8.5 -16.5t15.5 -8.5h30v-123h-326z" />
    <glyph glyph-name="Lcommaaccent" unicode="&#x13b;" horiz-adv-x="624" 
d="M241 -237v56q47 4 47 26q0 3 -1.5 6t-4.5 5t-5.5 4t-7.5 4.5t-8 4.5q-21 12 -21 43q0 25 20 40t52 15q36 0 58 -19.5t22 -57.5q0 -61 -37.5 -91.5t-113.5 -35.5zM17 0v123h29q9 0 18.5 10.5t9.5 18.5v392q0 8 -9.5 18t-18.5 10h-29v128h370v-128h-79v-572h-291zM608 0
h-270v134h108l19 124h143v-258z" />
    <glyph glyph-name="lcommaaccent" unicode="&#x13c;" horiz-adv-x="356" 
d="M107 -237v56q47 4 47 26q0 3 -1.5 6t-4.5 5t-5.5 4t-7.5 4.5t-8 4.5q-21 12 -21 43q0 25 20 40t52 15q36 0 58 -19.5t22 -57.5q0 -61 -37.5 -91.5t-113.5 -35.5zM14 0v123h29q7 0 15.5 8.5t8.5 16.5v399q0 8 -8.5 16.5t-15.5 8.5h-31v128h242q32 0 32 -44v-508
q0 -8 8.5 -16.5t15.5 -8.5h30v-123h-326z" />
    <glyph glyph-name="Lcaron" unicode="&#x13d;" horiz-adv-x="624" 
d="M418 552l6 148h164v-56l-55 -92h-115zM17 0v123h29q9 0 18.5 10.5t9.5 18.5v392q0 8 -9.5 18t-18.5 10h-29v128h370v-128h-79v-572h-291zM608 0h-270v134h108l19 124h143v-258z" />
    <glyph glyph-name="lcaron" unicode="&#x13e;" horiz-adv-x="356" 
d="M316 555l6 145h157v-56l-55 -89h-108zM14 0v123h29q7 0 15.5 8.5t8.5 16.5v399q0 8 -8.5 16.5t-15.5 8.5h-31v128h242q32 0 32 -44v-508q0 -8 8.5 -16.5t15.5 -8.5h30v-123h-326z" />
    <glyph glyph-name="Lslash" unicode="&#x141;" horiz-adv-x="624" 
d="M338 0v134h108l19 124h143v-258h-270zM338 321v123l140 53v-123zM308 572v-572h-291v123h29q9 0 18.5 10.5t9.5 18.5v71l-58 -21v123l58 21v198q0 8 -9.5 18t-18.5 10h-29v128h370v-128h-79z" />
    <glyph glyph-name="lslash" unicode="&#x142;" horiz-adv-x="355" 
d="M15 246v117l52 26v158q0 8 -8.5 16.5t-15.5 8.5h-31v128h242q32 0 32 -44v-154l51 26v-116l-51 -27v-237q0 -8 8.5 -16.5t15.5 -8.5h30v-123h-326v123h29q7 0 15.5 8.5t8.5 16.5v125z" />
    <glyph glyph-name="Nacute" unicode="&#x143;" horiz-adv-x="748" 
d="M313 734l24 143h199v-56l-100 -87h-123zM17 0v123h29q9 0 18.5 10.5t9.5 18.5v392q0 8 -9.5 18t-18.5 10h-29v128h224v-577h64v-123h-288zM475 0l-204 350v350h27l380 -640v-60h-203zM678 544v-424l-168 286v166h-61v128h282v-128h-26q-8 0 -17.5 -10t-9.5 -18z" />
    <glyph glyph-name="nacute" unicode="&#x144;" horiz-adv-x="662" 
d="M261 563l24 143h199v-56l-100 -87h-123zM15 0v123h25q7 0 16 9t9 16v224q0 8 -8.5 16.5t-16.5 8.5h-28v131h229q42 0 42 -97v-308h59v-123h-327zM324 375h-11v109q69 54 157 54q60 0 98 -29.5t38 -96.5v-264q0 -8 9 -16.5t16 -8.5h16v-123h-259v328q0 28 -14.5 37.5
t-49.5 9.5z" />
    <glyph glyph-name="Ncommaaccent" unicode="&#x145;" horiz-adv-x="748" 
d="M308 -237v56q47 4 47 26q0 3 -1.5 6t-4.5 5t-5.5 4t-7.5 4.5t-8 4.5q-21 12 -21 43q0 25 20 40t52 15q36 0 58 -19.5t22 -57.5q0 -61 -37.5 -91.5t-113.5 -35.5zM17 0v123h29q9 0 18.5 10.5t9.5 18.5v392q0 8 -9.5 18t-18.5 10h-29v128h224v-577h64v-123h-288zM475 0
l-204 350v350h27l380 -640v-60h-203zM678 544v-424l-168 286v166h-61v128h282v-128h-26q-8 0 -17.5 -10t-9.5 -18z" />
    <glyph glyph-name="ncommaaccent" unicode="&#x146;" horiz-adv-x="662" 
d="M267 -237v56q47 4 47 26q0 3 -1.5 6t-4.5 5t-5.5 4t-7.5 4.5t-8 4.5q-21 12 -21 43q0 25 20 40t52 15q36 0 58 -19.5t22 -57.5q0 -61 -37.5 -91.5t-113.5 -35.5zM15 0v123h25q7 0 16 9t9 16v224q0 8 -8.5 16.5t-16.5 8.5h-28v131h229q42 0 42 -97v-308h59v-123h-327z
M324 375h-11v109q69 54 157 54q60 0 98 -29.5t38 -96.5v-264q0 -8 9 -16.5t16 -8.5h16v-123h-259v328q0 28 -14.5 37.5t-49.5 9.5z" />
    <glyph glyph-name="Ncaron" unicode="&#x147;" horiz-adv-x="748" 
d="M305 734l-70 103v40h94l62 -44l61 44h83v-40l-71 -103h-159zM17 0v123h29q9 0 18.5 10.5t9.5 18.5v392q0 8 -9.5 18t-18.5 10h-29v128h224v-577h64v-123h-288zM475 0l-204 350v350h27l380 -640v-60h-203zM678 544v-424l-168 286v166h-61v128h282v-128h-26q-8 0 -17.5 -10
t-9.5 -18z" />
    <glyph glyph-name="ncaron" unicode="&#x148;" horiz-adv-x="662" 
d="M253 563l-70 103v40h94l62 -44l61 44h83v-40l-71 -103h-159zM15 0v123h25q7 0 16 9t9 16v224q0 8 -8.5 16.5t-16.5 8.5h-28v131h229q42 0 42 -97v-308h59v-123h-327zM324 375h-11v109q69 54 157 54q60 0 98 -29.5t38 -96.5v-264q0 -8 9 -16.5t16 -8.5h16v-123h-259v328
q0 28 -14.5 37.5t-49.5 9.5z" />
    <glyph glyph-name="Omacron" unicode="&#x14c;" horiz-adv-x="760" 
d="M236 752v120h286v-120h-286zM742 350q0 -165 -97 -260.5t-250 -100.5v148q50 7 78.5 60t28.5 149q0 95 -28.5 147t-78.5 59v159q151 -5 249 -101t98 -260zM18 350q0 164 98 260t249 101v-159q-50 -7 -78.5 -58.5t-28.5 -147.5t28.5 -149t78.5 -60v-148q-153 5 -250 100
t-97 261z" />
    <glyph glyph-name="omacron" unicode="&#x14d;" horiz-adv-x="625" 
d="M168 579v120h286v-120h-286zM14 261q0 122 78.5 197t203.5 80v-144q-61 -10 -61 -134q0 -127 61 -138v-131q-126 5 -204 77.5t-78 192.5zM607 261q0 -120 -78 -192.5t-203 -77.5v131q60 12 60 138q0 124 -60 134v144q125 -5 203 -80t78 -197z" />
    <glyph glyph-name="Ohungarumlaut" unicode="&#x150;" horiz-adv-x="760" 
d="M421 736l16 143h167v-53l-72 -90h-111zM219 736l17 143h167v-53l-72 -90h-112zM742 350q0 -165 -97 -260.5t-250 -100.5v148q50 7 78.5 60t28.5 149q0 95 -28.5 147t-78.5 59v159q151 -5 249 -101t98 -260zM18 350q0 164 98 260t249 101v-159q-50 -7 -78.5 -58.5
t-28.5 -147.5t28.5 -149t78.5 -60v-148q-153 5 -250 100t-97 261z" />
    <glyph glyph-name="ohungarumlaut" unicode="&#x151;" horiz-adv-x="625" 
d="M352 563l16 143h167v-53l-72 -90h-111zM150 563l17 143h167v-53l-72 -90h-112zM14 261q0 122 78.5 197t203.5 80v-144q-61 -10 -61 -134q0 -127 61 -138v-131q-126 5 -204 77.5t-78 192.5zM607 261q0 -120 -78 -192.5t-203 -77.5v131q60 12 60 138q0 124 -60 134v144
q125 -5 203 -80t78 -197z" />
    <glyph glyph-name="OE" unicode="&#x152;" horiz-adv-x="1003" 
d="M669 0h-234v700h234v-700zM398 133h7v-133h-6q-381 0 -381 345q0 175 95.5 265t284.5 90h7v-135h-7q-140 0 -140 -212q0 -109 37 -164.5t103 -55.5zM983 0h-284v134h124l19 106h141v-240zM819 562h-120v138h275v-227h-135zM830 286h-131v142h131v-142z" />
    <glyph glyph-name="oe" unicode="&#x153;" horiz-adv-x="947" 
d="M599 267q0 -81 19 -111t66 -35v-130q-143 3 -197 71q-56 -65 -160 -71v131q60 12 60 138q0 124 -60 134v144q108 -7 164 -76q50 67 161 76v-127q-53 -7 -53 -144zM15 261q0 122 78.5 197t203.5 80v-144q-61 -10 -61 -134q0 -127 61 -138v-131q-126 5 -204 77.5t-78 192.5
zM631 217v103h96q-1 84 -45 92v126q127 -4 188 -69t61 -200q0 -15 -1 -33t-1 -19h-298zM910 39q-77 -44 -196 -48v131q52 3 81 44h115v-127z" />
    <glyph glyph-name="Racute" unicode="&#x154;" horiz-adv-x="724" 
d="M257 734l24 143h199v-56l-100 -87h-123zM308 700v-577h63v-123h-354v123h29q9 0 18.5 10.5t9.5 18.5v392q0 8 -9.5 18t-18.5 10h-29v128h291zM350 267h-12v121h4q48 0 67 21.5t19 65.5t-19.5 66t-66.5 22h-4v137h27q152 0 224 -49.5t72 -150.5q0 -63 -32.5 -101.5
t-103.5 -57.5v-4q56 -12 84.5 -42.5t44.5 -101.5l11 -45q6 -25 25 -25h17v-123h-256l-23 190q-5 43 -22.5 60t-55.5 17z" />
    <glyph glyph-name="racute" unicode="&#x155;" horiz-adv-x="480" 
d="M175 563l24 143h199v-56l-100 -87h-123zM436 340q-73 0 -123 -9v136q16 32 47 49.5t66 17.5q14 0 32 -6v-188h-22zM15 0v123h25q7 0 16 9t9 16v224q0 8 -8.5 16.5t-16.5 8.5h-28v131h229q42 0 42 -97v-308h59v-123h-327z" />
    <glyph glyph-name="Rcommaaccent" unicode="&#x156;" horiz-adv-x="724" 
d="M304 -237v56q47 4 47 26q0 3 -1.5 6t-4.5 5t-5.5 4t-7.5 4.5t-8 4.5q-21 12 -21 43q0 25 20 40t52 15q36 0 58 -19.5t22 -57.5q0 -61 -37.5 -91.5t-113.5 -35.5zM308 700v-577h63v-123h-354v123h29q9 0 18.5 10.5t9.5 18.5v392q0 8 -9.5 18t-18.5 10h-29v128h291z
M350 267h-12v121h4q48 0 67 21.5t19 65.5t-19.5 66t-66.5 22h-4v137h27q152 0 224 -49.5t72 -150.5q0 -63 -32.5 -101.5t-103.5 -57.5v-4q56 -12 84.5 -42.5t44.5 -101.5l11 -45q6 -25 25 -25h17v-123h-256l-23 190q-5 43 -22.5 60t-55.5 17z" />
    <glyph glyph-name="rcommaaccent" unicode="&#x157;" horiz-adv-x="480" 
d="M101 -237v56q47 4 47 26q0 3 -1.5 6t-4.5 5t-5.5 4t-7.5 4.5t-8 4.5q-21 12 -21 43q0 25 20 40t52 15q36 0 58 -19.5t22 -57.5q0 -61 -37.5 -91.5t-113.5 -35.5zM436 340q-73 0 -123 -9v136q16 32 47 49.5t66 17.5q14 0 32 -6v-188h-22zM15 0v123h25q7 0 16 9t9 16v224
q0 8 -8.5 16.5t-16.5 8.5h-28v131h229q42 0 42 -97v-308h59v-123h-327z" />
    <glyph glyph-name="Rcaron" unicode="&#x158;" horiz-adv-x="724" 
d="M249 734l-70 103v40h94l62 -44l61 44h83v-40l-71 -103h-159zM308 700v-577h63v-123h-354v123h29q9 0 18.5 10.5t9.5 18.5v392q0 8 -9.5 18t-18.5 10h-29v128h291zM350 267h-12v121h4q48 0 67 21.5t19 65.5t-19.5 66t-66.5 22h-4v137h27q152 0 224 -49.5t72 -150.5
q0 -63 -32.5 -101.5t-103.5 -57.5v-4q56 -12 84.5 -42.5t44.5 -101.5l11 -45q6 -25 25 -25h17v-123h-256l-23 190q-5 43 -22.5 60t-55.5 17z" />
    <glyph glyph-name="rcaron" unicode="&#x159;" horiz-adv-x="480" 
d="M165 563l-70 103v40h94l62 -44l61 44h83v-40l-71 -103h-159zM436 340q-73 0 -123 -9v136q16 32 47 49.5t66 17.5q14 0 32 -6v-188h-22zM15 0v123h25q7 0 16 9t9 16v224q0 8 -8.5 16.5t-16.5 8.5h-28v131h229q42 0 42 -97v-308h59v-123h-327z" />
    <glyph glyph-name="Sacute" unicode="&#x15a;" horiz-adv-x="578" 
d="M217 736l24 143h199v-56l-100 -87h-123zM292 -8q-43 0 -73 8v130h30q85 0 85 59q0 31 -23 44t-83 29q-9 3 -14 4q-44 12 -74.5 25.5t-60 37.5t-44.5 63.5t-15 93.5q0 113 68.5 166.5t181.5 53.5q45 0 66 -6v-126h-22q-43 0 -64 -12.5t-21 -43.5q0 -20 12.5 -33.5
t28 -19.5t43.5 -13l12 -3q131 -35 181.5 -81.5t50.5 -143.5q0 -232 -265 -232zM169 221l20 -91v-130h-172v221h152zM386 497l-20 77v126h170v-203h-150z" />
    <glyph glyph-name="sacute" unicode="&#x15b;" horiz-adv-x="504" 
d="M177 563l24 143h199v-56l-100 -87h-123zM232 -9h-3v129q50 2 50 32q0 16 -16.5 22.5t-68.5 11.5q-92 10 -137 49.5t-45 124.5q0 88 63.5 132.5t177.5 45.5v-128q-48 -3 -48 -28q0 -14 16 -20.5t63 -12.5q106 -13 152 -47.5t46 -121.5q0 -94 -60 -141.5t-190 -47.5z
M128 167q21 -39 71 -47v-129q-106 2 -186 29v147h115zM348 373q-23 31 -65 37v128q98 -2 179 -27v-138h-114z" />
    <glyph glyph-name="Scircumflex" unicode="&#x15c;" horiz-adv-x="578" 
d="M141 736v40l72 103h159l70 -103v-40h-94l-62 44l-61 -44h-84zM293 -8q-43 0 -73 8v130h30q85 0 85 59q0 31 -23 44t-83 29q-9 3 -14 4q-44 12 -74.5 25.5t-60 37.5t-44.5 63.5t-15 93.5q0 113 68.5 166.5t181.5 53.5q45 0 66 -6v-126h-22q-43 0 -64 -12.5t-21 -43.5
q0 -20 12.5 -33.5t28 -19.5t43.5 -13l12 -3q131 -35 181.5 -81.5t50.5 -143.5q0 -232 -265 -232zM170 221l20 -91v-130h-172v221h152zM387 497l-20 77v126h170v-203h-150z" />
    <glyph glyph-name="scircumflex" unicode="&#x15d;" horiz-adv-x="504" 
d="M102 563v40l72 103h159l70 -103v-40h-94l-62 44l-61 -44h-84zM235 -9h-3v129q50 2 50 32q0 16 -16.5 22.5t-68.5 11.5q-92 10 -137 49.5t-45 124.5q0 88 63.5 132.5t177.5 45.5v-128q-48 -3 -48 -28q0 -14 16 -20.5t63 -12.5q106 -13 152 -47.5t46 -121.5
q0 -94 -60 -141.5t-190 -47.5zM131 167q21 -39 71 -47v-129q-106 2 -186 29v147h115zM351 373q-23 31 -65 37v128q98 -2 179 -27v-138h-114z" />
    <glyph glyph-name="Scedilla" unicode="&#x15e;" horiz-adv-x="578" 
d="M293 -8q-43 0 -73 8v130h30q85 0 85 59q0 31 -23 44t-83 29q-9 3 -14 4q-44 12 -74.5 25.5t-60 37.5t-44.5 63.5t-15 93.5q0 113 68.5 166.5t181.5 53.5q45 0 66 -6v-126h-22q-43 0 -64 -12.5t-21 -43.5q0 -20 12.5 -33.5t28 -19.5t43.5 -13l12 -3q131 -35 181.5 -81.5
t50.5 -143.5q0 -232 -265 -232zM170 221l20 -91v-130h-172v221h152zM387 497l-20 77v126h170v-203h-150zM272 -185q-51 0 -91 17v58h48q9 -12 26 -12q20 0 20 16t-27 16h-25v55h71q51 0 72 -18.5t21 -54.5t-30 -56.5t-85 -20.5z" />
    <glyph glyph-name="scedilla" unicode="&#x15f;" horiz-adv-x="504" 
d="M235 -9h-3v129q50 2 50 32q0 16 -16.5 22.5t-68.5 11.5q-92 10 -137 49.5t-45 124.5q0 88 63.5 132.5t177.5 45.5v-128q-48 -3 -48 -28q0 -14 16 -20.5t63 -12.5q106 -13 152 -47.5t46 -121.5q0 -94 -60 -141.5t-190 -47.5zM131 167q21 -39 71 -47v-129q-106 2 -186 29
v147h115zM351 373q-23 31 -65 37v128q98 -2 179 -27v-138h-114zM252 -185q-51 0 -91 17v58h48q9 -12 26 -12q20 0 20 16t-27 16h-25v55h71q51 0 72 -18.5t21 -54.5t-30 -56.5t-85 -20.5z" />
    <glyph glyph-name="Scaron" unicode="&#x160;" horiz-adv-x="578" 
d="M212 736l-70 103v40h94l62 -44l61 44h83v-40l-71 -103h-159zM293 -8q-43 0 -73 8v130h30q85 0 85 59q0 31 -23 44t-83 29q-9 3 -14 4q-44 12 -74.5 25.5t-60 37.5t-44.5 63.5t-15 93.5q0 113 68.5 166.5t181.5 53.5q45 0 66 -6v-126h-22q-43 0 -64 -12.5t-21 -43.5
q0 -20 12.5 -33.5t28 -19.5t43.5 -13l12 -3q131 -35 181.5 -81.5t50.5 -143.5q0 -232 -265 -232zM170 221l20 -91v-130h-172v221h152zM387 497l-20 77v126h170v-203h-150z" />
    <glyph glyph-name="scaron" unicode="&#x161;" horiz-adv-x="504" 
d="M173 563l-70 103v40h94l62 -44l61 44h83v-40l-71 -103h-159zM235 -9h-3v129q50 2 50 32q0 16 -16.5 22.5t-68.5 11.5q-92 10 -137 49.5t-45 124.5q0 88 63.5 132.5t177.5 45.5v-128q-48 -3 -48 -28q0 -14 16 -20.5t63 -12.5q106 -13 152 -47.5t46 -121.5
q0 -94 -60 -141.5t-190 -47.5zM131 167q21 -39 71 -47v-129q-106 2 -186 29v147h115zM351 373q-23 31 -65 37v128q98 -2 179 -27v-138h-114z" />
    <glyph glyph-name="Tcommaaccent" unicode="&#x162;" horiz-adv-x="700" 
d="M275 -237v56q47 4 47 26q0 3 -1.5 6t-4.5 5t-5.5 4t-7.5 4.5t-8 4.5q-21 12 -21 43q0 25 20 40t52 15q36 0 58 -19.5t22 -57.5q0 -61 -37.5 -91.5t-113.5 -35.5zM201 700v-134h-28l-15 -129h-139v263h182zM497 566v134h184v-263h-138l-16 129h-30zM233 700h234v-548
q0 -8 9.5 -18.5t18.5 -10.5h33v-123h-356v123h33q9 0 18.5 10.5t9.5 18.5v548z" />
    <glyph glyph-name="tcommaaccent" unicode="&#x163;" horiz-adv-x="398" 
d="M147 -237v56q47 4 47 26q0 3 -1.5 6t-4.5 5t-5.5 4t-7.5 4.5t-8 4.5q-21 12 -21 43q0 25 20 40t52 15q36 0 58 -19.5t22 -57.5q0 -61 -37.5 -91.5t-113.5 -35.5zM12 397v131h52v137h219v-483q0 -34 13.5 -46.5t49.5 -12.5h38v-119q-56 -15 -127 -15q-94 0 -143.5 34.5
t-49.5 121.5v252h-52zM382 397h-69v131h69v-131z" />
    <glyph glyph-name="Tcaron" unicode="&#x164;" horiz-adv-x="700" 
d="M270 734l-70 103v40h94l62 -44l61 44h83v-40l-71 -103h-159zM201 700v-134h-28l-15 -129h-139v263h182zM497 566v134h184v-263h-138l-16 129h-30zM233 700h234v-548q0 -8 9.5 -18.5t18.5 -10.5h33v-123h-356v123h33q9 0 18.5 10.5t9.5 18.5v548z" />
    <glyph glyph-name="tcaron" unicode="&#x165;" horiz-adv-x="398" 
d="M313 555l6 145h157v-56l-55 -89h-108zM12 397v131h52v137h219v-483q0 -34 13.5 -46.5t49.5 -12.5h38v-119q-56 -15 -127 -15q-94 0 -143.5 34.5t-49.5 121.5v252h-52zM382 397h-69v131h69v-131z" />
    <glyph glyph-name="Umacron" unicode="&#x16a;" horiz-adv-x="742" 
d="M304 243q0 -53 20 -78t64 -28v-145q-163 1 -240.5 65t-77.5 198v289q0 8 -9.5 18t-18.5 10h-25v128h356v-128h-69v-329zM673 255q0 -124 -65 -190.5t-190 -72.5v145q79 7 79 106v329h-69v128h297v-128h-25q-8 0 -17.5 -10t-9.5 -18v-289zM257 750v120h286v-120h-286z" />
    <glyph glyph-name="umacron" unicode="&#x16b;" horiz-adv-x="661" 
d="M341 149h9v-107q-66 -51 -153 -51q-60 0 -100 29.5t-40 96.5v255q0 7 -8.5 16t-15.5 9h-21v131h264v-329q0 -29 15 -39.5t50 -10.5zM380 97v300h-53v131h272v-380q0 -7 8.5 -16t15.5 -9h23v-123h-224q-42 0 -42 97zM180 579v120h286v-120h-286z" />
    <glyph glyph-name="Ubreve" unicode="&#x16c;" horiz-adv-x="742" 
d="M304 243q0 -53 20 -78t64 -28v-145q-163 1 -240.5 65t-77.5 198v289q0 8 -9.5 18t-18.5 10h-25v128h356v-128h-69v-329zM673 255q0 -124 -65 -190.5t-190 -72.5v145q79 7 79 106v329h-69v128h297v-128h-25q-8 0 -17.5 -10t-9.5 -18v-289zM400 733q-58 0 -95 26t-52 62v63
h103q7 -34 44 -34t44 34h103v-63q-15 -36 -51.5 -62t-95.5 -26z" />
    <glyph glyph-name="ubreve" unicode="&#x16d;" horiz-adv-x="661" 
d="M341 149h9v-107q-66 -51 -153 -51q-60 0 -100 29.5t-40 96.5v255q0 7 -8.5 16t-15.5 9h-21v131h264v-329q0 -29 15 -39.5t50 -10.5zM380 97v300h-53v131h272v-380q0 -7 8.5 -16t15.5 -9h23v-123h-224q-42 0 -42 97zM321 562q-58 0 -95 26t-52 62v63h103q7 -34 44 -34
t44 34h103v-63q-15 -36 -51.5 -62t-95.5 -26z" />
    <glyph glyph-name="Uring" unicode="&#x16e;" horiz-adv-x="742" 
d="M291 824q0 42 28.5 70.5t68.5 31.5v-62q-28 -7 -28 -40q0 -35 28 -40v-63q-40 3 -68.5 32t-28.5 71zM510 824q0 -42 -28 -71t-68 -32v63q27 5 27 40q0 33 -27 40v62q39 -3 67.5 -31.5t28.5 -70.5zM304 243q0 -53 20 -78t64 -28v-145q-163 1 -240.5 65t-77.5 198v289
q0 8 -9.5 18t-18.5 10h-25v128h356v-128h-69v-329zM673 255q0 -124 -65 -190.5t-190 -72.5v145q79 7 79 106v329h-69v128h297v-128h-25q-8 0 -17.5 -10t-9.5 -18v-289z" />
    <glyph glyph-name="uring" unicode="&#x16f;" horiz-adv-x="661" 
d="M341 149h9v-107q-66 -51 -153 -51q-60 0 -100 29.5t-40 96.5v255q0 7 -8.5 16t-15.5 9h-21v131h264v-329q0 -29 15 -39.5t50 -10.5zM380 97v300h-53v131h272v-380q0 -7 8.5 -16t15.5 -9h23v-123h-224q-42 0 -42 97zM211 667q0 42 28.5 70.5t68.5 31.5v-62q-28 -7 -28 -40
q0 -35 28 -40v-63q-40 3 -68.5 32t-28.5 71zM430 667q0 -42 -28 -71t-68 -32v63q27 5 27 40q0 33 -27 40v62q39 -3 67.5 -31.5t28.5 -70.5z" />
    <glyph glyph-name="Uhungarumlaut" unicode="&#x170;" horiz-adv-x="742" 
d="M304 243q0 -53 20 -78t64 -28v-145q-163 1 -240.5 65t-77.5 198v289q0 8 -9.5 18t-18.5 10h-25v128h356v-128h-69v-329zM673 255q0 -124 -65 -190.5t-190 -72.5v145q79 7 79 106v329h-69v128h297v-128h-25q-8 0 -17.5 -10t-9.5 -18v-289zM437 734l16 143h167v-53l-72 -90
h-111zM235 734l17 143h167v-53l-72 -90h-112z" />
    <glyph glyph-name="uhungarumlaut" unicode="&#x171;" horiz-adv-x="661" 
d="M341 149h9v-107q-66 -51 -153 -51q-60 0 -100 29.5t-40 96.5v255q0 7 -8.5 16t-15.5 9h-21v131h264v-329q0 -29 15 -39.5t50 -10.5zM380 97v300h-53v131h272v-380q0 -7 8.5 -16t15.5 -9h23v-123h-224q-42 0 -42 97zM159 563l17 143h167v-53l-72 -90h-112zM361 563l16 143
h167v-53l-72 -90h-111z" />
    <glyph glyph-name="Uogonek" unicode="&#x172;" horiz-adv-x="742" 
d="M306 -97q0 43 57 67h85q-4 -9 -4 -21q0 -27 36 -27h16v-77q-30 -14 -79 -14q-51 0 -81 19.5t-30 52.5zM304 243q0 -53 20 -78t64 -28v-145q-163 1 -240.5 65t-77.5 198v289q0 8 -9.5 18t-18.5 10h-25v128h356v-128h-69v-329zM673 255q0 -124 -65 -190.5t-190 -72.5v145
q79 7 79 106v329h-69v128h297v-128h-25q-8 0 -17.5 -10t-9.5 -18v-289z" />
    <glyph glyph-name="uogonek" unicode="&#x173;" horiz-adv-x="661" 
d="M341 149h9v-107q-66 -51 -153 -51q-60 0 -100 29.5t-40 96.5v255q0 7 -8.5 16t-15.5 9h-21v131h264v-329q0 -29 15 -39.5t50 -10.5zM380 97v300h-53v131h272v-380q0 -7 8.5 -16t15.5 -9h23v-123h-224q-42 0 -42 97zM456 -97q0 45 58 70h85q-5 -12 -5 -24q0 -27 36 -27h16
v-77q-30 -14 -79 -14q-51 0 -81 19.5t-30 52.5z" />
    <glyph glyph-name="Ydieresis" unicode="&#x178;" horiz-adv-x="709" 
d="M488 299l-83 138l43 74q17 28 9 44.5t-41 16.5h-16v128h292v-128h-10q-20 0 -39 -29zM292 572l180 -304v-116q0 -8 9.5 -18.5t18.5 -10.5h34v-123h-357v123h34q9 0 18 10t9 19v113l-176 286q-13 21 -29 21h-16v128h336v-128h-61zM479 723q-41 0 -66.5 24t-25.5 63
t25.5 62.5t66.5 23.5t66.5 -23.5t25.5 -62.5t-25.5 -63t-66.5 -24zM271 723q-41 0 -66.5 24t-25.5 63t25.5 62.5t66.5 23.5t66.5 -23.5t25.5 -62.5t-25.5 -63t-66.5 -24z" />
    <glyph glyph-name="Zacute" unicode="&#x179;" horiz-adv-x="608" 
d="M237 734l24 143h199v-56l-100 -87h-123zM17 0v153l433 547h141v-157l-431 -543h-143zM591 0h-392l105 134h126l19 98h142v-232zM36 478v222h376l-109 -138h-113l-19 -84h-135z" />
    <glyph glyph-name="zacute" unicode="&#x17a;" horiz-adv-x="537" 
d="M202 563l24 143h199v-56l-100 -87h-123zM17 0v139l389 389h113v-143l-386 -385h-116zM518 0h-342l134 135h69l15 59h124v-194zM27 329v199h337l-140 -139h-60l-19 -60h-118z" />
    <glyph glyph-name="Zdotaccent" unicode="&#x17b;" horiz-adv-x="608" 
d="M17 0v153l433 547h141v-157l-431 -543h-143zM591 0h-392l105 134h126l19 98h142v-232zM36 478v222h376l-109 -138h-113l-19 -84h-135zM310 726q-45 0 -73.5 25.5t-28.5 67.5q0 43 28.5 69t73.5 26t73.5 -26t28.5 -69q0 -42 -28.5 -67.5t-73.5 -25.5z" />
    <glyph glyph-name="zdotaccent" unicode="&#x17c;" horiz-adv-x="537" 
d="M17 0v139l389 389h113v-143l-386 -385h-116zM518 0h-342l134 135h69l15 59h124v-194zM27 329v199h337l-140 -139h-60l-19 -60h-118zM276 555q-45 0 -73.5 25.5t-28.5 67.5q0 43 28.5 69t73.5 26t73.5 -26t28.5 -69q0 -42 -28.5 -67.5t-73.5 -25.5z" />
    <glyph glyph-name="Zcaron" unicode="&#x17d;" horiz-adv-x="608" 
d="M226 734l-70 103v40h94l62 -44l61 44h83v-40l-71 -103h-159zM17 0v153l433 547h141v-157l-431 -543h-143zM591 0h-392l105 134h126l19 98h142v-232zM36 478v222h376l-109 -138h-113l-19 -84h-135z" />
    <glyph glyph-name="zcaron" unicode="&#x17e;" horiz-adv-x="537" 
d="M193 563l-70 103v40h94l62 -44l61 44h83v-40l-71 -103h-159zM17 0v139l389 389h113v-143l-386 -385h-116zM518 0h-342l134 135h69l15 59h124v-194zM27 329v199h337l-140 -139h-60l-19 -60h-118z" />
    <glyph glyph-name="florin" unicode="&#x192;" horiz-adv-x="435" 
d="M340 319l14 124h68v-124h-82zM337 535l-53 -434q-9 -77 -45.5 -124t-102.5 -77h-123v108q24 9 35.5 27t15.5 54l26 230h-52v124h66l11 101q20 170 215 170q68 0 113 -15v-114h-45q-30 0 -44 -11t-17 -39z" />
    <glyph glyph-name="Scommaaccent" unicode="&#x218;" horiz-adv-x="578" 
d="M210 -237v56q47 4 47 26q0 3 -1.5 6t-4.5 5t-5.5 4t-7.5 4.5t-8 4.5q-21 12 -21 43q0 25 20 40t52 15q36 0 58 -19.5t22 -57.5q0 -61 -37.5 -91.5t-113.5 -35.5zM292 -8q-43 0 -73 8v130h30q85 0 85 59q0 31 -23 44t-83 29q-9 3 -14 4q-44 12 -74.5 25.5t-60 37.5
t-44.5 63.5t-15 93.5q0 113 68.5 166.5t181.5 53.5q45 0 66 -6v-126h-22q-43 0 -64 -12.5t-21 -43.5q0 -20 12.5 -33.5t28 -19.5t43.5 -13l12 -3q131 -35 181.5 -81.5t50.5 -143.5q0 -232 -265 -232zM169 221l20 -91v-130h-172v221h152zM386 497l-20 77v126h170v-203h-150z
" />
    <glyph glyph-name="scommaaccent" unicode="&#x219;" horiz-adv-x="504" 
d="M177 -237v56q47 4 47 26q0 3 -1.5 6t-4.5 5t-5.5 4t-7.5 4.5t-8 4.5q-21 12 -21 43q0 25 20 40t52 15q36 0 58 -19.5t22 -57.5q0 -61 -37.5 -91.5t-113.5 -35.5zM235 -9h-3v129q50 2 50 32q0 16 -16.5 22.5t-68.5 11.5q-92 10 -137 49.5t-45 124.5q0 88 63.5 132.5
t177.5 45.5v-128q-48 -3 -48 -28q0 -14 16 -20.5t63 -12.5q106 -13 152 -47.5t46 -121.5q0 -94 -60 -141.5t-190 -47.5zM131 167q21 -39 71 -47v-129q-106 2 -186 29v147h115zM351 373q-23 31 -65 37v128q98 -2 179 -27v-138h-114z" />
    <glyph glyph-name="uni0237" unicode="&#x237;" horiz-adv-x="322" 
d="M88 -170q-54 0 -106 14v111h26q33 0 45 10.5t12 37.5v369q0 7 -8.5 16t-15.5 9h-29v131h241q15 0 23.5 -14.5t8.5 -36.5v-484q0 -89 -48.5 -126t-148.5 -37z" />
    <glyph glyph-name="circumflex" unicode="&#x2c6;" horiz-adv-x="416" 
d="M57 563v40l72 103h159l70 -103v-40h-94l-62 44l-61 -44h-84z" />
    <glyph glyph-name="caron" unicode="&#x2c7;" horiz-adv-x="416" 
d="M127 563l-70 103v40h94l62 -44l61 44h83v-40l-71 -103h-159z" />
    <glyph glyph-name="breve" unicode="&#x2d8;" horiz-adv-x="416" 
d="M208 562q-58 0 -95 26t-52 62v63h103q7 -34 44 -34t44 34h103v-63q-15 -36 -51.5 -62t-95.5 -26z" />
    <glyph glyph-name="dotaccent" unicode="&#x2d9;" horiz-adv-x="416" 
d="M210 555q-45 0 -73.5 25.5t-28.5 67.5q0 43 28.5 69t73.5 26t73.5 -26t28.5 -69q0 -42 -28.5 -67.5t-73.5 -25.5z" />
    <glyph glyph-name="ring" unicode="&#x2da;" horiz-adv-x="416" 
d="M98 667q0 42 28.5 70.5t68.5 31.5v-62q-28 -7 -28 -40q0 -35 28 -40v-63q-40 3 -68.5 32t-28.5 71zM317 667q0 -42 -28 -71t-68 -32v63q27 5 27 40q0 33 -27 40v62q39 -3 67.5 -31.5t28.5 -70.5z" />
    <glyph glyph-name="ogonek" unicode="&#x2db;" horiz-adv-x="416" 
d="M226 -169q-52 0 -81.5 21t-29.5 56q0 62 97 92h69q-28 -28 -28 -51q0 -27 36 -27h16v-77q-30 -14 -79 -14z" />
    <glyph glyph-name="tilde" unicode="&#x2dc;" horiz-adv-x="416" 
d="M40 564v84q28 61 103 61q23 0 62.5 -10t51.5 -10q24 0 34 24h85v-86q-29 -61 -103 -61q-23 0 -62.5 11t-51.5 11q-24 0 -33 -24h-86z" />
    <glyph glyph-name="hungarumlaut" unicode="&#x2dd;" horiz-adv-x="416" 
d="M250 563l16 143h167v-53l-72 -90h-111zM48 563l17 143h167v-53l-72 -90h-112z" />
    <glyph glyph-name="uni2009" unicode="&#x2009;" horiz-adv-x="65" 
 />
    <glyph glyph-name="endash" unicode="&#x2013;" horiz-adv-x="430" 
d="M24 212v145h380v-145h-380z" />
    <glyph glyph-name="emdash" unicode="&#x2014;" horiz-adv-x="703" 
d="M24 212v145h653v-145h-653z" />
    <glyph glyph-name="quoteleft" unicode="&#x2018;" horiz-adv-x="226" 
d="M118 413q-44 0 -73.5 28.5t-29.5 82.5q0 85 48.5 128t146.5 50v-73q-61 -10 -61 -39q0 -8 4.5 -12.5t15 -10.5t15.5 -10q27 -22 27 -63q0 -36 -26 -58.5t-67 -22.5z" />
    <glyph glyph-name="quoteright" unicode="&#x2019;" horiz-adv-x="226" 
d="M17 421v73q61 10 61 39q0 8 -4.5 12.5t-15 10.5t-15.5 10q-28 22 -28 63q0 36 26.5 58.5t67.5 22.5q44 0 73.5 -28.5t29.5 -82.5q0 -85 -48.5 -128t-146.5 -50z" />
    <glyph glyph-name="quotesinglbase" unicode="&#x201a;" horiz-adv-x="226" 
d="M17 -113v74q61 8 61 39q0 8 -4.5 12.5t-15 10.5t-15.5 10q-28 22 -28 62q0 36 26.5 58.5t67.5 22.5q44 0 73.5 -28.5t29.5 -81.5q0 -85 -49 -128.5t-146 -50.5z" />
    <glyph glyph-name="quotedblleft" unicode="&#x201c;" horiz-adv-x="450" 
d="M341 413q-44 0 -73.5 28.5t-29.5 82.5q0 164 195 178v-73q-61 -10 -61 -39q0 -8 4.5 -12.5t15 -10.5t15.5 -10q28 -22 28 -63q0 -36 -26.5 -58.5t-67.5 -22.5zM118 413q-44 0 -73.5 28.5t-29.5 82.5q0 85 48.5 128t146.5 50v-73q-61 -10 -61 -39q0 -8 4.5 -12.5t15 -10.5
t15.5 -10q27 -22 27 -63q0 -36 -26 -58.5t-67 -22.5z" />
    <glyph glyph-name="quotedblright" unicode="&#x201d;" horiz-adv-x="450" 
d="M240 421v73q61 10 61 39q0 8 -4.5 12.5t-15 10.5t-15.5 10q-27 22 -27 63q0 36 26 58.5t67 22.5q45 0 74 -28.5t29 -82.5q0 -85 -48.5 -128t-146.5 -50zM17 421v73q61 10 61 39q0 8 -4.5 12.5t-15 10.5t-15.5 10q-28 22 -28 63q0 36 26.5 58.5t67.5 22.5q44 0 73.5 -28.5
t29.5 -82.5q0 -85 -48.5 -128t-146.5 -50z" />
    <glyph glyph-name="quotedblbase" unicode="&#x201e;" horiz-adv-x="450" 
d="M240 -113v74q61 8 61 39q0 8 -4.5 12.5t-15 10.5t-15.5 10q-27 22 -27 62q0 36 26 58.5t67 22.5q45 0 74 -28t29 -82q0 -85 -49 -128.5t-146 -50.5zM17 -113v74q61 8 61 39q0 8 -4.5 12.5t-15 10.5t-15.5 10q-28 22 -28 62q0 36 26.5 58.5t67.5 22.5q44 0 73.5 -28.5
t29.5 -81.5q0 -85 -49 -128.5t-146 -50.5z" />
    <glyph glyph-name="dagger" unicode="&#x2020;" horiz-adv-x="488" 
d="M231 435h24l99 -122v-81l-69 -281h-83l-69 279v81zM255 479h-24l-89 117v60l31 44h141l31 -44v-60zM263 446v22l151 91l56 -26v-149l-56 -26zM223 468v-22l-151 -88l-55 26v149l55 26z" />
    <glyph glyph-name="daggerdbl" unicode="&#x2021;" horiz-adv-x="488" 
d="M354 311l-99 -102h-24l-98 102v31l98 100h24l99 -100v-31zM255 489h-24l-89 107v60l31 44h141l31 -44v-60zM263 456v22l151 91l56 -26v-149l-56 -26zM223 478v-22l-151 -88l-55 26v149l55 26zM231 162h24l90 -107v-60l-31 -44h-141l-31 44v60zM263 173v22l151 88l56 -26
v-149l-56 -26zM223 195v-22l-151 -91l-55 26v149l55 26z" />
    <glyph glyph-name="bullet" unicode="&#x2022;" horiz-adv-x="372" 
d="M185 122q-69 0 -115 42.5t-46 114.5t46 115.5t115 43.5t115 -43.5t46 -115.5t-46 -114.5t-115 -42.5z" />
    <glyph glyph-name="ellipsis" unicode="&#x2026;" horiz-adv-x="699" 
d="M580 -7q-43 0 -72.5 28t-29.5 68q0 41 29.5 69.5t72.5 28.5q42 0 71.5 -28.5t29.5 -69.5q0 -40 -29.5 -68t-71.5 -28zM350 -7q-43 0 -72.5 28t-29.5 68q0 41 29.5 69.5t72.5 28.5q42 0 71.5 -28.5t29.5 -69.5q0 -40 -29.5 -68t-71.5 -28zM120 -7q-43 0 -72.5 28t-29.5 68
q0 41 29.5 69.5t72.5 28.5q42 0 71.5 -28.5t29.5 -69.5q0 -40 -29.5 -68t-71.5 -28z" />
    <glyph glyph-name="perthousand" unicode="&#x2030;" horiz-adv-x="1270" 
d="M123 -34l493 763h118l-493 -763h-118zM400 516q0 -89 -50.5 -139.5t-125.5 -53.5v97q28 14 28 94q0 82 -28 96v98q74 -2 125 -52.5t51 -139.5zM18 516q0 89 50.5 139.5t125.5 52.5v-98q-28 -13 -28 -96q0 -82 28 -94v-97q-75 3 -125.5 53.5t-50.5 139.5zM843 184
q0 -89 -50.5 -139.5t-125.5 -53.5v97q28 14 28 94q0 82 -28 96v98q75 -3 125.5 -53.5t50.5 -138.5zM461 184q0 89 50.5 139t125.5 53v-98q-28 -13 -28 -96q0 -82 28 -94v-97q-75 3 -125.5 53.5t-50.5 139.5zM1252 184q0 -89 -50.5 -139.5t-125.5 -53.5v97q28 14 28 94
q0 82 -28 96v98q75 -3 125.5 -53.5t50.5 -138.5zM870 184q0 89 50.5 139t125.5 53v-98q-28 -13 -28 -96q0 -82 28 -94v-97q-75 3 -125.5 53.5t-50.5 139.5z" />
    <glyph glyph-name="guilsinglleft" unicode="&#x2039;" horiz-adv-x="307" 
d="M167 40l-142 181v77l142 182h115v-51l-87 -166v-3l87 -167v-53h-115z" />
    <glyph glyph-name="guilsinglright" unicode="&#x203a;" horiz-adv-x="307" 
d="M25 40v51l87 166v3l-87 167v53h115l142 -181v-77l-142 -182h-115z" />
    <glyph glyph-name="fraction" unicode="&#x2044;" horiz-adv-x="247" 
d="M-168 -34l494 763h98l-494 -763h-98z" />
    <glyph glyph-name="Euro" unicode="&#x20ac;" horiz-adv-x="639" 
d="M448 363h-430v88h56q25 124 108 191t212 69v-154q-66 -9 -80 -106h148zM18 235v87h423l-14 -87h-111q15 -86 78 -93v-153h-6q-268 0 -315 246h-55zM497 495q-19 57 -73 62v154q118 -3 193 -35v-181h-120zM618 49q-90 -54 -194 -60v153q45 6 82 54h112v-147z" />
    <glyph glyph-name="trademark" unicode="&#x2122;" horiz-adv-x="757" 
d="M102 700h112v-210q0 -3 4 -7t8 -4h13v-59h-160v59h12q4 0 7.5 4t3.5 7v210zM594 479h17v44l49 177h83v-61h-12q-3 0 -7 -4t-4 -7v-138q0 -3 4 -7t7 -4h12v-59h-149v59zM485 420l-79 280h104l60 -233l-13 -47h-72zM324 420v59h11q4 0 7.5 4t3.5 7v138q0 3 -3.5 7t-7.5 4
h-11v61h57l42 -149v-72h18v-59h-117zM636 700l-53 -186l-30 115l19 71h64zM236 637v63h67v-110h-60zM80 700v-63l-6 -47h-60v110h66z" />
    <glyph glyph-name="onethird" unicode="&#x2153;" horiz-adv-x="865" 
d="M24 303v83h39q4 0 10 5.5t6 9.5v177l-33 -23h-28v97l107 48h118v-299q0 -4 6 -9.5t10 -5.5h35v-83h-270zM122 -34l494 763h98l-494 -763h-98zM845 110q0 -56 -48 -87t-139 -31v94q26 6 26 35q0 33 -47 33h-38v84h38q46 0 46 32q0 25 -25 30v104h14q77 0 121 -26.5
t44 -79.5q0 -77 -84 -95v-3q92 -11 92 -90zM594 116q14 -24 37 -30v-94q-69 4 -116 22v102h79zM524 382q49 17 107 21v-103q-20 -5 -32 -23h-75v105z" />
    <glyph glyph-name="twothirds" unicode="&#x2154;" horiz-adv-x="893" 
d="M257 463q-9 -5 -33 -16.5t-33 -16.5h-154q19 37 71 72l17 11l16.5 10.5t13.5 9.5t12 10t8.5 9t6.5 10t2 10q0 24 -24 28v107h17q78 0 124 -30.5t46 -88.5q0 -48 -23.5 -74.5t-66.5 -50.5zM20 303v52q0 27 6 49h213l7 24h93v-125h-319zM23 686q51 16 110 20v-107
q-22 -7 -32 -28h-78v115zM155 -34l494 763h98l-494 -763h-98zM873 110q0 -56 -48 -87t-139 -31v94q26 6 26 35q0 33 -47 33h-38v84h38q46 0 46 32q0 25 -25 30v104h14q77 0 121 -26.5t44 -79.5q0 -77 -84 -95v-3q92 -11 92 -90zM622 116q14 -24 37 -30v-94q-69 4 -116 22
v102h79zM552 382q49 17 107 21v-103q-20 -5 -32 -23h-75v105z" />
    <glyph glyph-name="oneeighth" unicode="&#x215b;" horiz-adv-x="876" 
d="M24 303v83h39q4 0 10 5.5t6 9.5v177l-33 -23h-28v97l107 48h118v-299q0 -4 6 -9.5t10 -5.5h35v-83h-270zM122 -34l494 763h98l-494 -763h-98zM491 296q0 46 45 75.5t117 31.5v-89q-25 -5 -25 -36q0 -32 25 -36v-69q-29 -5 -29 -45q0 -41 29 -46v-90q-86 2 -131.5 34.5
t-45.5 86.5q0 74 81 97v2q-66 21 -66 84zM857 113q0 -54 -46 -86.5t-131 -34.5v90q28 5 28 46q0 40 -28 45v69q24 6 24 36t-24 36v90q71 -2 116 -32t45 -76q0 -64 -66 -84v-2q82 -23 82 -97z" />
    <glyph glyph-name="threeeighths" unicode="&#x215c;" horiz-adv-x="879" 
d="M348 413q0 -56 -48 -87t-139 -31v94q26 6 26 35q0 33 -47 33h-38v84h38q46 0 46 32q0 25 -25 30v104h14q77 0 121 -26.5t44 -79.5q0 -77 -84 -95v-3q92 -11 92 -90zM97 419q14 -24 37 -30v-94q-69 4 -116 22v102h79zM27 685q49 17 107 21v-103q-20 -5 -32 -23h-75v105z
M123 -34l494 763h98l-494 -763h-98zM494 296q0 46 45 75.5t117 31.5v-89q-25 -5 -25 -36q0 -32 25 -36v-69q-29 -5 -29 -45q0 -41 29 -46v-90q-86 2 -131.5 34.5t-45.5 86.5q0 74 81 97v2q-66 21 -66 84zM860 113q0 -54 -46 -86.5t-131 -34.5v90q28 5 28 46q0 40 -28 45v69
q24 6 24 36t-24 36v90q71 -2 116 -32t45 -76q0 -64 -66 -84v-2q82 -23 82 -97z" />
    <glyph glyph-name="fiveeighths" unicode="&#x215d;" horiz-adv-x="868" 
d="M346 434q0 -65 -47 -101.5t-136 -37.5v97q23 7 23 39q0 37 -37 37q-25 0 -39 -16h-85v121h108v-45h2q28 26 81 26q59 0 94.5 -29.5t35.5 -90.5zM222 600h-197v100h296v-122h-93zM97 418q11 -22 39 -26v-97q-70 4 -118 22v101h79zM113 -34l494 763h98l-494 -763h-98z
M483 296q0 46 45 75.5t117 31.5v-89q-25 -5 -25 -36q0 -32 25 -36v-69q-29 -5 -29 -45q0 -41 29 -46v-90q-86 2 -131.5 34.5t-45.5 86.5q0 74 81 97v2q-66 21 -66 84zM849 113q0 -54 -46 -86.5t-131 -34.5v90q28 5 28 46q0 40 -28 45v69q24 6 24 36t-24 36v90q71 -2 116 -32
t45 -76q0 -64 -66 -84v-2q82 -23 82 -97z" />
    <glyph glyph-name="seveneighths" unicode="&#x215e;" horiz-adv-x="849" 
d="M86 -34l494 763h98l-494 -763h-98zM464 296q0 46 45 75.5t117 31.5v-89q-25 -5 -25 -36q0 -32 25 -36v-69q-29 -5 -29 -45q0 -41 29 -46v-90q-86 2 -131.5 34.5t-45.5 86.5q0 74 81 97v2q-66 21 -66 84zM830 113q0 -54 -46 -86.5t-131 -34.5v90q28 5 28 46q0 40 -28 45
v69q24 6 24 36t-24 36v90q71 -2 116 -32t45 -76q0 -64 -66 -84v-2q82 -23 82 -97zM65 303v61l254 336h19v-117l-114 -280h-159zM18 552v148h267l-85 -111h-82l-9 -37h-91z" />
    <glyph glyph-name="minus" unicode="&#x2212;" horiz-adv-x="532" 
d="M18 269v153h497v-153h-497z" />
    <glyph glyph-name="apple" horiz-adv-x="0" 
 />
    <glyph glyph-name="space_uni0326" horiz-adv-x="416" 
d="M136 -237v56q47 4 47 26q0 3 -1.5 6t-4.5 5t-5.5 4t-7.5 4.5t-8 4.5q-21 12 -21 43q0 25 20 40t52 15q36 0 58 -19.5t22 -57.5q0 -61 -37.5 -91.5t-113.5 -35.5z" />
    <glyph glyph-name="paragraph.cap" horiz-adv-x="579" 
d="M231 0v297q-214 17 -214 201q0 202 254 202h70v-700h-110zM506 0h-110v700h167v-128h-29q-9 0 -18.5 -10t-9.5 -18v-544z" />
    <glyph glyph-name="bullet.cap" horiz-adv-x="372" 
d="M185 170q-69 0 -115 42.5t-46 114.5t46 115t115 43t115 -43t46 -115t-45.5 -114.5t-115.5 -42.5z" />
    <glyph glyph-name="at.cap" horiz-adv-x="800" 
d="M544 168q-134 0 -134 88q0 29 5 49l24 104q11 51 37 80t54 29h91l-50 -223q-12 -49 20 -49q41 0 70 42t29 124q0 101 -72.5 161.5t-186.5 65.5v73q91 -3 168 -37.5t126 -102.5t49 -157q0 -122 -62.5 -184.5t-167.5 -62.5zM27 328q0 87 33.5 160.5t88 120.5t120 73.5
t132.5 28.5v-72q-116 -5 -198 -86t-82 -226q0 -133 77 -198t203 -67v-71q-57 1 -110.5 13.5t-102 39t-84 65t-56.5 95t-21 124.5zM664 59q-84 -61 -233 -67v70q109 4 187 53h46v-56zM383 262v-60q-35 -31 -92 -31q-47 0 -76 32t-29 90q0 99 63 174q52 57 130 57q35 0 61 -23
l-28 -70q-34 -1 -52.5 -40t-18.5 -93q0 -36 31 -36h11z" />
    <glyph glyph-name="dagger.cap" horiz-adv-x="488" 
d="M231 439h24l99 -116v-71l-69 -252h-83l-69 250v71zM255 483h-24l-89 113v60l31 44h141l31 -44v-60zM263 450v22l151 91l56 -26v-149l-56 -26zM223 472v-22l-151 -88l-55 26v149l55 26z" />
    <glyph glyph-name="daggerdbl.cap" horiz-adv-x="488" 
d="M354 334l-99 -94h-24l-98 94v32l98 94h24l99 -94v-32zM255 507h-24l-89 102v47l31 44h141l31 -44v-47zM263 474v22l151 86l56 -26v-139l-56 -26zM223 496v-22l-151 -83l-55 26v139l55 26zM231 193h24l90 -102v-47l-31 -44h-141l-31 44v47zM263 204v22l151 83l56 -26v-139
l-56 -26zM223 226v-22l-151 -86l-55 26v139l55 26z" />
    <glyph glyph-name="less.cap" horiz-adv-x="477" 
d="M19 418l331 282h107v-127l-347 -368l-91 77v136zM266 327l191 -204v-123h-107l-217 185z" />
    <glyph glyph-name="greater.cap" horiz-adv-x="477" 
d="M367 495l90 -77v-136l-331 -282h-106v123zM20 572v128h106l218 -186l-134 -144z" />
    <glyph glyph-name="guillemotleft.cap" horiz-adv-x="761" 
d="M19 415l284 285h107v-128l-301 -377l-90 91v129zM251 323l159 -200v-123h-107l-173 174zM349 415l284 285h107v-128l-301 -377l-90 91v129zM581 323l159 -200v-123h-107l-173 174z" />
    <glyph glyph-name="guillemotright.cap" horiz-adv-x="761" 
d="M20 0v122l300 383l91 -91v-128l-285 -286h-106zM20 700h106l173 -174l-119 -152l-160 198v128zM350 0v122l300 383l91 -91v-128l-285 -286h-106zM350 700h106l173 -174l-119 -152l-160 198v128z" />
    <glyph glyph-name="quotedblleft.cap" horiz-adv-x="1048" 
d="M800 -10q-112 0 -187 72t-75 207q0 197 124.5 308.5t362.5 122.5v-128q-185 -20 -185 -127q0 -22 15 -35.5t48 -30.5t54 -33q71 -53 71 -154q0 -90 -64 -146t-164 -56zM280 -10q-112 0 -187 72t-75 207q0 197 124.5 308.5t362.5 122.5v-128q-185 -20 -185 -127
q0 -22 15 -35.5t48 -30.5t54 -33q71 -53 71 -154q0 -90 -64 -146t-164 -56z" />
    <glyph glyph-name="quotedblright.cap" horiz-adv-x="1048" 
d="M542 0v123q96 11 140.5 47t44.5 85q0 22 -15 35.5t-48.5 30.5t-54.5 33q-71 53 -71 154q0 90 64.5 146t164.5 56q111 0 186 -72t75 -207q0 -197 -124.5 -308.5t-361.5 -122.5zM22 0v123q96 11 140.5 47t44.5 85q0 22 -15 35.5t-48.5 30.5t-54.5 33q-71 53 -71 154
q0 90 64 146t164 56q112 0 187 -72t75 -207q0 -197 -124.5 -308.5t-361.5 -122.5z" />
    <glyph glyph-name="quoteleft.cap" horiz-adv-x="528" 
d="M280 -10q-112 0 -187 72t-75 207q0 197 124.5 308.5t362.5 122.5v-128q-185 -20 -185 -127q0 -22 15 -35.5t48 -30.5t54 -33q71 -53 71 -154q0 -90 -64 -146t-164 -56z" />
    <glyph glyph-name="quoteright.cap" horiz-adv-x="528" 
d="M22 0v123q96 11 140.5 47t44.5 85q0 22 -15 35.5t-48.5 30.5t-54.5 33q-71 53 -71 154q0 90 64 146t164 56q112 0 187 -72t75 -207q0 -197 -124.5 -308.5t-361.5 -122.5z" />
    <glyph glyph-name="hyphen.cap" horiz-adv-x="313" 
d="M24 250v155h263v-155h-263z" />
    <glyph glyph-name="endash.cap" horiz-adv-x="430" 
d="M24 256v144h380v-144h-380z" />
    <glyph glyph-name="emdash.cap" horiz-adv-x="703" 
d="M24 256v144h653v-144h-653z" />
    <glyph glyph-name="questiondown.cap" horiz-adv-x="488" 
d="M360 481q13 -61 -1 -104t-53 -83l-16 -16.5t-19.5 -21.5l-14 -19t-13 -24t-3.5 -23q0 -45 35 -52v-149q-258 1 -258 194q0 46 19 82t41.5 55t61.5 44q36 24 51 35.5t28 33t11 48.5h131zM288 707q43 0 72.5 -28t29.5 -68q0 -41 -29.5 -69.5t-72.5 -28.5q-42 0 -71.5 28.5
t-29.5 69.5q0 40 29.5 68t71.5 28zM469 24q-81 -31 -164 -35v149q32 8 45 50h119v-164z" />
    <glyph glyph-name="exclamdown.cap" horiz-adv-x="264" 
d="M129 513q-41 0 -70.5 28.5t-29.5 69.5q0 40 29.5 68t70.5 28q43 0 73 -27.5t30 -68.5t-30 -69.5t-73 -28.5zM20 0v127l58 354h104l59 -354v-127h-221z" />
    <glyph glyph-name="zero.num" horiz-adv-x="445" 
d="M428 502q0 -93 -53 -147.5t-138 -59.5v102q28 8 28 102q0 89 -28 97v110q82 -5 136.5 -59.5t54.5 -144.5zM16 502q0 91 54 145t137 59v-110q-28 -8 -28 -97q0 -94 28 -102v-102q-85 5 -138 59.5t-53 147.5z" />
    <glyph glyph-name="one.num" horiz-adv-x="307" 
d="M21 303v83h39q4 0 10 5.5t6 9.5v177l-33 -23h-28v97l107 48h118v-299q0 -4 6 -9.5t10 -5.5h35v-83h-270z" />
    <glyph glyph-name="two.num" horiz-adv-x="361" 
d="M254 463q-9 -5 -33 -16.5t-33 -16.5h-154q19 37 71 72l17 11l16.5 10.5t13.5 9.5t12 10t8.5 9t6.5 10t2 10q0 24 -24 28v107h17q78 0 124 -30.5t46 -88.5q0 -48 -23.5 -74.5t-66.5 -50.5zM17 303v52q0 27 6 49h213l7 24h93v-125h-319zM20 686q51 16 110 20v-107
q-22 -7 -32 -28h-78v115z" />
    <glyph glyph-name="three.num" horiz-adv-x="362" 
d="M345 413q0 -56 -48 -87t-139 -31v94q26 6 26 35q0 33 -47 33h-38v84h38q46 0 46 32q0 25 -25 30v104h14q77 0 121 -26.5t44 -79.5q0 -77 -84 -95v-3q92 -11 92 -90zM94 419q14 -24 37 -30v-94q-69 4 -116 22v102h79zM24 685q49 17 107 21v-103q-20 -5 -32 -23h-75v105z
" />
    <glyph glyph-name="four.num" horiz-adv-x="394" 
d="M139 303v83h28q4 0 10 5.5t6 9.5v299h155v-203h40v-82h-40v-14q0 -4 5.5 -9.5t9.5 -5.5h25v-83h-239zM107 499v-2h48v-82h-140v94l140 166v-118z" />
    <glyph glyph-name="five.num" horiz-adv-x="360" 
d="M343 434q0 -65 -47 -101.5t-136 -37.5v97q23 7 23 39q0 37 -37 37q-25 0 -39 -16h-85v121h108v-45h2q28 26 81 26q59 0 94.5 -29.5t35.5 -90.5zM219 600h-197v100h296v-122h-93zM94 418q11 -22 39 -26v-97q-70 4 -118 22v101h79z" />
    <glyph glyph-name="six.num" horiz-adv-x="414" 
d="M175 484q0 -51 5.5 -71.5t19.5 -23.5v-94q-184 8 -184 198q0 97 55 153t158 61v-100q-54 -11 -54 -123zM202 475v68q31 14 74 14q56 0 88.5 -28.5t32.5 -87.5q0 -65 -45 -104t-124 -42v94q19 6 19 45q0 41 -40 41h-5zM300 587q-17 19 -44 20v100q71 -1 115 -13v-107h-71z
" />
    <glyph glyph-name="seven.num" horiz-adv-x="352" 
d="M62 303v61l254 336h19v-117l-114 -280h-159zM15 552v148h267l-85 -111h-82l-9 -37h-91z" />
    <glyph glyph-name="eight.num" horiz-adv-x="413" 
d="M31 599q0 46 45 75.5t117 31.5v-89q-25 -5 -25 -36q0 -32 25 -36v-69q-29 -5 -29 -45q0 -41 29 -46v-90q-86 2 -131.5 34.5t-45.5 86.5q0 74 81 97v2q-66 21 -66 84zM397 416q0 -54 -46 -86.5t-131 -34.5v90q28 5 28 46q0 40 -28 45v69q24 6 24 36t-24 36v90
q71 -2 116 -32t45 -76q0 -64 -66 -84v-2q82 -23 82 -97z" />
    <glyph glyph-name="nine.num" horiz-adv-x="414" 
d="M239 518q0 91 -26 95v94q185 -10 185 -198q0 -101 -54.5 -155t-157.5 -59v103q28 6 40.5 32t12.5 88zM212 527v-66q-30 -16 -74 -16q-56 0 -89 28.5t-33 87.5q0 65 45.5 104t124.5 42v-94q-20 -6 -20 -45t38 -41h8zM109 415q14 -15 50 -18v-102q-80 1 -126 15v105h76z
" />
    <glyph glyph-name="zero.den" horiz-adv-x="445" 
d="M428 199q0 -93 -53 -147.5t-138 -59.5v102q28 8 28 102q0 89 -28 97v110q82 -5 136.5 -59t54.5 -145zM16 199q0 91 54 145t137 59v-110q-28 -8 -28 -97q0 -94 28 -102v-102q-85 5 -138 59.5t-53 147.5z" />
    <glyph glyph-name="one.den" horiz-adv-x="307" 
d="M21 0v83h39q4 0 10 5.5t6 9.5v177l-33 -23h-28v97l107 48h118v-299q0 -4 6 -9.5t10 -5.5h35v-83h-270z" />
    <glyph glyph-name="two.den" horiz-adv-x="361" 
d="M254 160q-9 -5 -33 -16.5t-33 -16.5h-154q19 37 71 72l17 11l16.5 10.5t13.5 9.5t12 10t8.5 9t6.5 10t2 10q0 23 -24 28v107h17q78 0 124 -30.5t46 -88.5q0 -48 -23.5 -74.5t-66.5 -50.5zM17 0v52q0 26 6 49h213l7 24h93v-125h-319zM20 383q51 16 110 20v-107
q-22 -7 -32 -28h-78v115z" />
    <glyph glyph-name="three.den" horiz-adv-x="362" 
d="M345 110q0 -56 -48 -87t-139 -31v94q26 6 26 35q0 33 -47 33h-38v84h38q46 0 46 32q0 25 -25 30v104h14q77 0 121 -26.5t44 -79.5q0 -77 -84 -95v-3q92 -11 92 -90zM94 116q14 -24 37 -30v-94q-69 4 -116 22v102h79zM24 382q49 17 107 21v-103q-20 -5 -32 -23h-75v105z
" />
    <glyph glyph-name="four.den" horiz-adv-x="394" 
d="M139 0v83h28q4 0 10 5.5t6 9.5v299h155v-203h40v-82h-40v-14q0 -4 5.5 -9.5t9.5 -5.5h25v-83h-239zM107 196v-2h48v-82h-140v94l140 166v-118z" />
    <glyph glyph-name="five.den" horiz-adv-x="360" 
d="M343 131q0 -65 -47 -101.5t-136 -37.5v97q23 7 23 39q0 37 -37 37q-25 0 -39 -16h-85v121h108v-45h2q28 26 81 26q59 0 94.5 -29.5t35.5 -90.5zM219 297h-197v100h296v-122h-93zM94 115q11 -22 39 -26v-97q-70 4 -118 22v101h79z" />
    <glyph glyph-name="six.den" horiz-adv-x="414" 
d="M175 181q0 -51 5.5 -71.5t19.5 -23.5v-94q-184 8 -184 198q0 97 55 153t158 61v-100q-54 -11 -54 -123zM202 172v68q31 14 74 14q56 0 88.5 -28.5t32.5 -87.5q0 -65 -45 -104t-124 -42v94q19 6 19 45q0 41 -40 41h-5zM300 284q-17 19 -44 20v100q71 -1 115 -13v-107h-71z
" />
    <glyph glyph-name="seven.den" horiz-adv-x="352" 
d="M62 0v61l254 336h19v-117l-114 -280h-159zM15 249v148h267l-85 -111h-82l-9 -37h-91z" />
    <glyph glyph-name="eight.den" horiz-adv-x="413" 
d="M31 296q0 46 45 75.5t117 31.5v-89q-25 -5 -25 -36q0 -32 25 -36v-69q-29 -5 -29 -45q0 -41 29 -46v-90q-86 2 -131.5 34.5t-45.5 86.5q0 74 81 97v2q-66 21 -66 84zM397 113q0 -54 -46 -86.5t-131 -34.5v90q28 5 28 46q0 40 -28 45v69q24 6 24 36t-24 36v90
q71 -2 116 -32t45 -76q0 -64 -66 -84v-2q82 -23 82 -97z" />
    <glyph glyph-name="nine.den" horiz-adv-x="414" 
d="M239 215q0 91 -26 95v94q185 -10 185 -198q0 -101 -54.5 -155t-157.5 -59v103q28 6 40.5 32t12.5 88zM212 224v-66q-30 -16 -74 -16q-56 0 -89 28.5t-33 87.5q0 65 45.5 104t124.5 42v-94q-20 -6 -20 -45t38 -41h8zM109 112q14 -15 50 -18v-102q-80 1 -126 15v105h76z
" />
    <glyph glyph-name="idotaccent" horiz-adv-x="349" 
d="M15 0v123h26q7 0 15.5 8.5t8.5 16.5v224q0 7 -8.5 16t-15.5 9h-29v131h241q31 0 31 -51v-329q0 -8 9 -16.5t16 -8.5h26v-123h-320zM174 555q-45 0 -73 25.5t-28 67.5t28 68.5t73 26.5t73.5 -26t28.5 -69q0 -42 -28.5 -67.5t-73.5 -25.5z" />
    </font>
</defs>
</svg>
